<svg xmlns="http://www.w3.org/2000/svg" xmlns:xlink="http://www.w3.org/1999/xlink" viewBox="0 0 86.13 84.49"><defs><style>.cls-1{isolation:isolate;}.cls-2{fill:url(#radial-gradient);}.cls-3{fill:url(#radial-gradient-2);}.cls-4{fill:url(#radial-gradient-3);}.cls-5{fill:url(#radial-gradient-4);}.cls-6{fill:url(#radial-gradient-5);}.cls-7{fill:url(#radial-gradient-6);}.cls-8{fill:url(#radial-gradient-7);}.cls-9{fill:url(#radial-gradient-8);}.cls-10,.cls-11,.cls-12,.cls-13,.cls-14,.cls-15,.cls-16,.cls-17,.cls-18,.cls-19,.cls-20,.cls-21,.cls-22,.cls-23,.cls-24,.cls-25,.cls-26,.cls-27,.cls-28,.cls-29,.cls-30,.cls-31,.cls-32,.cls-33,.cls-34,.cls-35,.cls-36,.cls-37,.cls-38,.cls-39,.cls-41{mix-blend-mode:multiply;}.cls-10{fill:url(#radial-gradient-9);}.cls-11{fill:url(#radial-gradient-10);}.cls-12{fill:url(#radial-gradient-11);}.cls-13{fill:url(#radial-gradient-12);}.cls-14{fill:url(#radial-gradient-13);}.cls-15{fill:url(#radial-gradient-14);}.cls-16{fill:url(#radial-gradient-15);}.cls-17{fill:url(#radial-gradient-16);}.cls-18{fill:url(#radial-gradient-17);}.cls-19{fill:url(#radial-gradient-18);}.cls-20{fill:url(#radial-gradient-19);}.cls-21{fill:url(#radial-gradient-20);}.cls-22{fill:url(#radial-gradient-21);}.cls-23{fill:url(#radial-gradient-22);}.cls-24{fill:url(#radial-gradient-23);}.cls-25{fill:url(#radial-gradient-24);}.cls-26{fill:url(#radial-gradient-25);}.cls-27{fill:url(#radial-gradient-26);}.cls-28{fill:url(#radial-gradient-27);}.cls-29{fill:url(#radial-gradient-28);}.cls-30{fill:url(#radial-gradient-29);}.cls-31{fill:url(#radial-gradient-30);}.cls-32{fill:url(#radial-gradient-31);}.cls-33{fill:url(#radial-gradient-32);}.cls-34{fill:url(#radial-gradient-33);}.cls-35{fill:url(#radial-gradient-34);}.cls-36{fill:url(#radial-gradient-35);}.cls-37{fill:url(#radial-gradient-36);}.cls-38{fill:url(#radial-gradient-37);}.cls-39{fill:url(#radial-gradient-38);}.cls-40,.cls-42,.cls-43,.cls-44,.cls-45{mix-blend-mode:screen;}.cls-41{fill:url(#radial-gradient-39);}.cls-42{fill:url(#radial-gradient-40);}.cls-43{fill:url(#radial-gradient-41);}.cls-44{fill:url(#radial-gradient-42);}.cls-45{fill:url(#radial-gradient-43);}</style><radialGradient id="radial-gradient" cx="77.35" cy="-152.19" r="76.35" gradientTransform="translate(-100.5 8.11) rotate(69.29)" gradientUnits="userSpaceOnUse"><stop offset="0" stop-color="#8ee1ee"/><stop offset="0.62" stop-color="#5e8dec"/><stop offset="0.63" stop-color="#5f89e8"/><stop offset="0.74" stop-color="#6b64c7"/><stop offset="0.84" stop-color="#714eb3"/><stop offset="0.9" stop-color="#7446ac"/></radialGradient><radialGradient id="radial-gradient-2" cx="61.44" cy="-182.3" r="116.84" gradientTransform="translate(-47.54 159.09) rotate(4.03)" xlink:href="#radial-gradient"/><radialGradient id="radial-gradient-3" cx="61.44" cy="-182.3" r="116.84" gradientTransform="translate(-47.54 159.09) rotate(4.03)" xlink:href="#radial-gradient"/><radialGradient id="radial-gradient-4" cx="61.44" cy="-182.3" r="116.84" gradientTransform="translate(-47.54 159.09) rotate(4.03)" xlink:href="#radial-gradient"/><radialGradient id="radial-gradient-5" cx="61.44" cy="-182.3" r="116.84" gradientTransform="translate(-47.54 159.09) rotate(4.03)" xlink:href="#radial-gradient"/><radialGradient id="radial-gradient-6" cx="61.44" cy="-182.3" r="116.84" gradientTransform="translate(-47.54 159.09) rotate(4.03)" xlink:href="#radial-gradient"/><radialGradient id="radial-gradient-7" cx="61.44" cy="-182.3" r="116.84" gradientTransform="translate(-47.54 159.09) rotate(4.03)" xlink:href="#radial-gradient"/><radialGradient id="radial-gradient-8" cx="61.44" cy="-182.3" r="116.84" gradientTransform="translate(-47.54 159.09) rotate(4.03)" xlink:href="#radial-gradient"/><radialGradient id="radial-gradient-9" cx="70.89" cy="-166.79" r="84.46" gradientTransform="translate(-47.54 159.09) rotate(4.03)" xlink:href="#radial-gradient"/><radialGradient id="radial-gradient-10" cx="70.89" cy="-166.79" r="84.46" gradientTransform="translate(-47.54 159.09) rotate(4.03)" xlink:href="#radial-gradient"/><radialGradient id="radial-gradient-11" cx="70.89" cy="-166.79" r="84.46" gradientTransform="translate(-47.54 159.09) rotate(4.03)" xlink:href="#radial-gradient"/><radialGradient id="radial-gradient-12" cx="70.9" cy="-166.79" r="84.45" gradientTransform="translate(-47.54 159.09) rotate(4.03)" xlink:href="#radial-gradient"/><radialGradient id="radial-gradient-13" cx="70.9" cy="-166.79" r="84.45" gradientTransform="translate(-47.54 159.09) rotate(4.03)" xlink:href="#radial-gradient"/><radialGradient id="radial-gradient-14" cx="70.9" cy="-166.79" r="84.45" gradientTransform="translate(-47.54 159.09) rotate(4.03)" xlink:href="#radial-gradient"/><radialGradient id="radial-gradient-15" cx="70.89" cy="-166.79" r="84.45" gradientTransform="translate(-47.54 159.09) rotate(4.03)" xlink:href="#radial-gradient"/><radialGradient id="radial-gradient-16" cx="70.89" cy="-166.79" r="84.45" gradientTransform="translate(-47.54 159.09) rotate(4.03)" xlink:href="#radial-gradient"/><radialGradient id="radial-gradient-17" cx="70.9" cy="-166.79" r="84.45" gradientTransform="translate(-47.54 159.09) rotate(4.03)" xlink:href="#radial-gradient"/><radialGradient id="radial-gradient-18" cx="70.9" cy="-166.79" r="84.46" gradientTransform="translate(-47.54 159.09) rotate(4.03)" xlink:href="#radial-gradient"/><radialGradient id="radial-gradient-19" cx="70.89" cy="-166.79" r="84.46" gradientTransform="translate(-47.54 159.09) rotate(4.03)" xlink:href="#radial-gradient"/><radialGradient id="radial-gradient-20" cx="70.89" cy="-166.79" r="84.46" gradientTransform="translate(-47.54 159.09) rotate(4.03)" xlink:href="#radial-gradient"/><radialGradient id="radial-gradient-21" cx="70.89" cy="-166.79" r="84.45" gradientTransform="translate(-47.54 159.09) rotate(4.03)" xlink:href="#radial-gradient"/><radialGradient id="radial-gradient-22" cx="70.89" cy="-166.79" r="84.46" gradientTransform="translate(-47.54 159.09) rotate(4.03)" xlink:href="#radial-gradient"/><radialGradient id="radial-gradient-23" cx="70.89" cy="-166.79" r="84.46" gradientTransform="translate(-47.54 159.09) rotate(4.03)" xlink:href="#radial-gradient"/><radialGradient id="radial-gradient-24" cx="70.9" cy="-166.79" r="84.45" gradientTransform="translate(-47.54 159.09) rotate(4.03)" xlink:href="#radial-gradient"/><radialGradient id="radial-gradient-25" cx="70.89" cy="-166.79" r="84.45" gradientTransform="translate(-47.54 159.09) rotate(4.03)" xlink:href="#radial-gradient"/><radialGradient id="radial-gradient-26" cx="70.89" cy="-166.79" r="84.46" gradientTransform="translate(-47.54 159.09) rotate(4.03)" xlink:href="#radial-gradient"/><radialGradient id="radial-gradient-27" cx="70.89" cy="-166.79" r="84.46" gradientTransform="translate(-47.54 159.09) rotate(4.03)" xlink:href="#radial-gradient"/><radialGradient id="radial-gradient-28" cx="70.89" cy="-166.79" r="84.46" gradientTransform="translate(-47.54 159.09) rotate(4.03)" xlink:href="#radial-gradient"/><radialGradient id="radial-gradient-29" cx="70.9" cy="-166.79" r="84.46" gradientTransform="translate(-47.54 159.09) rotate(4.03)" xlink:href="#radial-gradient"/><radialGradient id="radial-gradient-30" cx="70.89" cy="-166.79" r="84.45" gradientTransform="translate(-47.54 159.09) rotate(4.03)" xlink:href="#radial-gradient"/><radialGradient id="radial-gradient-31" cx="70.89" cy="-166.79" r="84.45" gradientTransform="translate(-47.54 159.09) rotate(4.03)" xlink:href="#radial-gradient"/><radialGradient id="radial-gradient-32" cx="70.89" cy="-166.79" r="84.45" gradientTransform="translate(-47.54 159.09) rotate(4.03)" xlink:href="#radial-gradient"/><radialGradient id="radial-gradient-33" cx="70.89" cy="-166.79" r="84.45" gradientTransform="translate(-47.54 159.09) rotate(4.03)" xlink:href="#radial-gradient"/><radialGradient id="radial-gradient-34" cx="70.9" cy="-166.79" r="84.45" gradientTransform="translate(-47.54 159.09) rotate(4.03)" xlink:href="#radial-gradient"/><radialGradient id="radial-gradient-35" cx="70.89" cy="-166.81" r="84.48" gradientTransform="translate(-47.54 159.09) rotate(4.03)" xlink:href="#radial-gradient"/><radialGradient id="radial-gradient-36" cx="70.9" cy="-166.79" r="84.45" gradientTransform="translate(-47.54 159.09) rotate(4.03)" xlink:href="#radial-gradient"/><radialGradient id="radial-gradient-37" cx="83.23" cy="-122.17" r="40.11" gradientTransform="translate(-47.54 159.09) rotate(4.03)" xlink:href="#radial-gradient"/><radialGradient id="radial-gradient-38" cx="77.35" cy="-145" r="71.14" gradientTransform="translate(-47.54 159.09) rotate(4.03)" xlink:href="#radial-gradient"/><radialGradient id="radial-gradient-39" cx="50.5" cy="-95.43" r="59.91" gradientTransform="matrix(0.98, 0.07, -0.07, 0.94, -16.27, 122.38)" xlink:href="#radial-gradient"/><radialGradient id="radial-gradient-40" cx="75.24" cy="-152.71" r="60.12" gradientTransform="translate(-47.54 159.09) rotate(4.03)" xlink:href="#radial-gradient"/><radialGradient id="radial-gradient-41" cx="62.98" cy="-161.25" r="57.06" gradientTransform="translate(-47.54 159.09) rotate(4.03)" xlink:href="#radial-gradient"/><radialGradient id="radial-gradient-42" cx="-43.68" cy="-1498.45" r="23.13" gradientTransform="translate(1186.06 947.86) rotate(-50.33)" xlink:href="#radial-gradient"/><radialGradient id="radial-gradient-43" cx="-142.33" cy="-876.27" r="12.76" gradientTransform="matrix(0.9, -0.44, 0.44, 0.9, 533.66, 736.61)" xlink:href="#radial-gradient"/></defs><title>time</title><g class="cls-1"><g id="OBJECTS"><circle class="cls-2" cx="43.88" cy="42.24" r="42.24" transform="translate(-12.85 64.42) rotate(-65.26)"/><path class="cls-3" d="M44.55,32.25c.82-.89,1.37-1.38,1.26-1.57s-.84,0-2,.66a12,12,0,0,0-3.92,3.9A13.57,13.57,0,0,0,37.76,43a12,12,0,0,0,1.13,4.68,9.79,9.79,0,0,0,3.46,4A12.18,12.18,0,0,0,52.27,53a17.76,17.76,0,0,0,7.31-4.3A20.44,20.44,0,0,0,63.34,44a14.69,14.69,0,0,0,1-2.18s.08-.21.19-.62a12.55,12.55,0,0,0,.37-1.82,11.37,11.37,0,0,0,0-3,7.86,7.86,0,0,0-.2-1,5.87,5.87,0,0,0-.51-1.29A5.35,5.35,0,0,0,62.17,32,9.2,9.2,0,0,0,60,31.14a10.73,10.73,0,0,0-2.29-.35,12.4,12.4,0,0,0-4.75.71,13.5,13.5,0,0,0-4.3,2.5,16,16,0,0,0-3.16,3.77,18.77,18.77,0,0,0-1.11,2.13,18.24,18.24,0,0,0-.84,2.26,9,9,0,0,0-.26,1.33,5.17,5.17,0,0,0,0,.81,4.58,4.58,0,0,0,.08.83A4,4,0,0,0,45,47.75a5.27,5.27,0,0,0,1.37.67,6.27,6.27,0,0,0,3.69,0,6.73,6.73,0,0,0,3.47-2.36,6.05,6.05,0,0,0,.88-1.66,4.45,4.45,0,0,0,.25-1.75,2.74,2.74,0,0,0-.25-.9,2.22,2.22,0,0,0-1.93-1.21,1.78,1.78,0,0,0-1.58.92c-.19.37-.13.6-.05.63s.24-.1.49-.24a1.25,1.25,0,0,1,1-.14,1,1,0,0,1,.47.37.69.69,0,0,1,.1.27.78.78,0,0,1,0,.34,2.79,2.79,0,0,1-.36.94,4.36,4.36,0,0,1-.74,1,4.58,4.58,0,0,1-2.4,1.15,3.81,3.81,0,0,1-1.35,0,4.11,4.11,0,0,1-.62-.21,1.58,1.58,0,0,1-.38-.26,1,1,0,0,1-.34-.77,1.25,1.25,0,0,1,0-.21,1.64,1.64,0,0,1,0-.23A4.94,4.94,0,0,1,47,43.3a16,16,0,0,1,.82-1.67,15.3,15.3,0,0,1,1-1.58,10.16,10.16,0,0,1,5.5-4,7.5,7.5,0,0,1,2.9-.21,5.77,5.77,0,0,1,1.24.29,3.8,3.8,0,0,1,.89.41.14.14,0,0,1,0,.11v0l0,.29a6.42,6.42,0,0,1-.12,1.52,7.1,7.1,0,0,1-.28,1l-.13.36a9.12,9.12,0,0,1-.58,1.41,15.09,15.09,0,0,1-2.53,3.58,13.34,13.34,0,0,1-5,3.51,8,8,0,0,1-6.36-.25A7.18,7.18,0,0,1,41,42.71a11.82,11.82,0,0,1,.9-6.4A14.43,14.43,0,0,1,44.55,32.25Z"/><path class="cls-4" d="M18.33,71.46a9.38,9.38,0,0,0,6.3.16,11.25,11.25,0,0,0,4.68-2.82A12,12,0,0,0,31.84,65a15.71,15.71,0,0,0,1-3.23,19.25,19.25,0,0,0,.27-2.09c0-.48,0-.74,0-.74l0-.73c0-.47-.06-1.17-.18-2A25.75,25.75,0,0,0,31,49.33a23,23,0,0,0-5.87-8.12,16.46,16.46,0,0,0-5-3.09A10.78,10.78,0,0,0,17,37.46a11.62,11.62,0,0,0-3.16.31A23.2,23.2,0,0,0,4,43a28,28,0,0,0-2.25,2.24c.09,1.26.24,2.5.43,3.73A25.83,25.83,0,0,1,6,45.52a22.57,22.57,0,0,1,4.05-2.36,18.84,18.84,0,0,1,4.49-1.37,7.56,7.56,0,0,1,2.06,0,6.78,6.78,0,0,1,1.86.54,11.78,11.78,0,0,1,3.4,2.47,18.17,18.17,0,0,1,4.18,6.59,20.74,20.74,0,0,1,1.22,5.44c.06.67.05,1.18.06,1.52l0,.53v.53a13.84,13.84,0,0,1-.11,1.44,10.33,10.33,0,0,1-.51,2.09,7.12,7.12,0,0,1-1.28,2.22A6.28,6.28,0,0,1,23,66.79,4.55,4.55,0,0,1,20,67a5.13,5.13,0,0,1-2.62-2.25,14.32,14.32,0,0,1-1.09-2c-.33-.73-.67-1.53-1-2.28a11.09,11.09,0,0,1-.85-4.32,4.85,4.85,0,0,1,1.35-3.37,3.15,3.15,0,0,1,2.92-.83A4,4,0,0,1,21,54.1,5.44,5.44,0,0,1,21.56,57a4.63,4.63,0,0,1-.86,2.19c-.82,1.12-1.68,1.44-1.61,1.65s.27.14.71.05A4,4,0,0,0,21.54,60a5.39,5.39,0,0,0,1.7-2.64,6.91,6.91,0,0,0-.11-4.11A7.28,7.28,0,0,0,22,51.11a5.6,5.6,0,0,0-2.21-1.75A5.41,5.41,0,0,0,16.71,49a6.53,6.53,0,0,0-2.89,1.25,8.19,8.19,0,0,0-3,5.51,14.45,14.45,0,0,0,.62,6c.27.92.55,1.76.88,2.65A18.68,18.68,0,0,0,13.58,67,9.69,9.69,0,0,0,18.33,71.46Z"/><path class="cls-5" d="M74.19,60.86a9.12,9.12,0,0,0-1.26-4.48A7.1,7.1,0,0,0,70.5,54a6.31,6.31,0,0,0-1.08-.54,6.73,6.73,0,0,0-1.1-.33,10.2,10.2,0,0,0-2.87-.19,19.05,19.05,0,0,0-3.73.66A38.28,38.28,0,0,0,57.39,55a33.19,33.19,0,0,0-9.79,5.87,27.07,27.07,0,0,0-7.52,10.73,18.23,18.23,0,0,0-1.28,6.76,9.51,9.51,0,0,0,.77,3.58,8.87,8.87,0,0,0,1.61,2.5,42.32,42.32,0,0,0,5.16,0,8,8,0,0,1-2.4-1.81,5.88,5.88,0,0,1-1.45-4.29,14.77,14.77,0,0,1,1.39-5.21,23,23,0,0,1,6.81-8.58A28.55,28.55,0,0,1,59.23,60a25.58,25.58,0,0,1,6.47-1.41,4.67,4.67,0,0,1,1.3.14l.32.11a1.4,1.4,0,0,1,.26.11,1.35,1.35,0,0,1,.54.48c.47.6.93,2.4,0,4.73a15.2,15.2,0,0,1-2.08,3.7,18.68,18.68,0,0,1-3.42,3.54A17.32,17.32,0,0,1,58.12,74a11.42,11.42,0,0,1-1.28.45c-.43.15-.87.24-1.31.35s-.89.15-1.33.23l-.68.06-.25,0a3.85,3.85,0,0,1-.49,0,.49.49,0,0,1-.43-.23,1.31,1.31,0,0,1,.1-1l0-.11a1.82,1.82,0,0,1,.14-.28c.1-.2.2-.4.32-.59a13.3,13.3,0,0,1,.72-1.12,13.66,13.66,0,0,1,1.72-2,13.83,13.83,0,0,1,2-1.6c.35-.22.71-.44,1.07-.63a10.67,10.67,0,0,1,1.05-.5,2.64,2.64,0,0,1,1.52-.21s.05,0,.08,0,0,0,0,0,0,0,.05,0l.1.12,0-.06h0a.56.56,0,0,1,0,.08,1.11,1.11,0,0,1,.08.6,4.26,4.26,0,0,1-.56,1.65,5.41,5.41,0,0,1-1.08,1.32,6.54,6.54,0,0,1-2.54,1.4c-1.61.45-2.65.15-2.71.38s.18.28.67.47a5,5,0,0,0,2.24.3,7.1,7.1,0,0,0,3.39-1.17,6.68,6.68,0,0,0,2.82-4,3.47,3.47,0,0,0-.06-1.74,2.45,2.45,0,0,0-.2-.48l-.06-.12,0,0v0l-.07-.09-.09-.12a.76.76,0,0,0-.17-.2,2.49,2.49,0,0,0-.23-.23,3.28,3.28,0,0,0-.45-.31,3.83,3.83,0,0,0-1.87-.45,6.86,6.86,0,0,0-1.66.24,14.27,14.27,0,0,0-1.45.53c-.46.19-.91.41-1.37.65a17.5,17.5,0,0,0-2.61,1.75,16.86,16.86,0,0,0-2.33,2.3c-.35.42-.69.87-1,1.33-.16.24-.3.48-.46.72s-.14.23-.22.38-.22.39-.3.57c-.76,1.48-1.21,3.11-.55,4.52A3.14,3.14,0,0,0,50,78.78a7.54,7.54,0,0,0,2.41.44,6.11,6.11,0,0,0,1.28,0l.87,0c.58-.06,1.16-.09,1.73-.19a14.2,14.2,0,0,0,1.7-.34,15.54,15.54,0,0,0,1.65-.47,21.7,21.7,0,0,0,5.91-3A23.41,23.41,0,0,0,70.1,71a20.21,20.21,0,0,0,3-4.87A12.71,12.71,0,0,0,74.19,60.86Z"/><path class="cls-6" d="M84.85,52.45a7.17,7.17,0,0,1-3.51-1,11.13,11.13,0,0,1-3.13-2.85,26.15,26.15,0,0,1-4.16-8.82,31.84,31.84,0,0,1-1-4.91,19.5,19.5,0,0,1,0-4.64,18.56,18.56,0,0,1,2.48-7.62,15.12,15.12,0,0,1,1.85-2.47c.32-.31.62-.64.89-.86a4.38,4.38,0,0,1,.66-.48l0,0a40.71,40.71,0,0,0-3.47-4.49,9.4,9.4,0,0,0-1,.87c-.44.41-.81.85-1.24,1.33A20.33,20.33,0,0,0,70.86,20a23.25,23.25,0,0,0-2.62,9.87,24.23,24.23,0,0,0,.4,5.68A34.87,34.87,0,0,0,70.15,41a28.37,28.37,0,0,0,5.61,9.68,13.62,13.62,0,0,0,4.34,3.2,9.2,9.2,0,0,0,4.13.85c.23-.75.45-1.52.64-2.29Z"/><path class="cls-7" d="M70.09,9.11c-1-.78-2-1.52-3.08-2.22L67,7a21.15,21.15,0,0,1-2.18,4.61,26.73,26.73,0,0,1-3.18,4,42.4,42.4,0,0,1-7.73,6.2A46.31,46.31,0,0,1,46,26a75.81,75.81,0,0,1-7.29,2.47c-2.21.65-4.17,1.2-5.77,1.7-3.2,1-5,1.75-4.91,1.94s1.92-.2,5.2-.81c1.63-.31,3.62-.68,5.91-1.16a67,67,0,0,0,7.64-2A38.54,38.54,0,0,0,51,26.41c1.45-.68,2.86-1.43,4.32-2.26a43.4,43.4,0,0,0,8.59-6.27,29,29,0,0,0,3.77-4.36A24.71,24.71,0,0,0,70.09,9.11Z"/><path class="cls-8" d="M76.13,29.08a7.51,7.51,0,0,0-.8,2.34c0,.22-.07.45-.1.67s0,.23,0,.34l0,.28a10,10,0,0,0,0,1.09,11.93,11.93,0,0,0,1.17,4.31,15.63,15.63,0,0,0,1.1,2c.2.32.41.63.62.93l.18.24.26.34a5.67,5.67,0,0,0,.58.62,4.09,4.09,0,0,0,3,1.24,4.82,4.82,0,0,0,3.09-1.36A6.59,6.59,0,0,0,86.11,41a42.14,42.14,0,0,0-1.88-11.27,22,22,0,0,1,0,2.69,20.38,20.38,0,0,1-.61,3.67c-.16.6-.36,1.2-.57,1.79a7.78,7.78,0,0,1-.32.74,1.92,1.92,0,0,1-.15.29.92.92,0,0,1-.53.37.75.75,0,0,1-.65-.19L81.23,39l-.07-.06L81,38.74c-.21-.24-.4-.48-.59-.72a13.49,13.49,0,0,1-1-1.49,9.1,9.1,0,0,1-1.18-3.07,4.92,4.92,0,0,1-.09-.76l0-.31v-.23a3.93,3.93,0,0,1,.12-.95,2.73,2.73,0,0,1,.39-.91,1.17,1.17,0,0,1,.8-.51,1.64,1.64,0,0,1,1.52.64,4,4,0,0,1,.53,1,7.11,7.11,0,0,1,.29,1.08,2.07,2.07,0,0,1-.26,1.67,1.53,1.53,0,0,1-.85.59c-.22.07-.41.06-.43.14s0,.22.4.34a1.77,1.77,0,0,0,1.53-.39,3,3,0,0,0,1-2.45,7.4,7.4,0,0,0-1-3.78,3.63,3.63,0,0,0-2.84-1.74,2.84,2.84,0,0,0-1.83.55A4.72,4.72,0,0,0,76.13,29.08Z"/><path class="cls-9" d="M9.36,19.73a9.48,9.48,0,0,0,2.78,3.64A16.45,16.45,0,0,0,16,25.62a29.19,29.19,0,0,0,4.25,1.48c1.47.39,2.95.73,4.57,1a35.14,35.14,0,0,0,5.11.58,30.3,30.3,0,0,0,11-1.8,47.8,47.8,0,0,0,10.28-5.27c1.63-1.08,3.18-2.2,4.75-3.42a11,11,0,0,0,2.46-2.59c.09-.15.17-.3.26-.47s.17-.37.25-.55a5,5,0,0,0,.31-1.19A4.84,4.84,0,0,0,58.91,11a5.35,5.35,0,0,0-1.42-1.92,7.4,7.4,0,0,0-1.65-1.06,14.05,14.05,0,0,0-3.2-1,20.36,20.36,0,0,0-6.22-.16,30.28,30.28,0,0,0-11,3.64,29.66,29.66,0,0,0-4.57,3.12,14.57,14.57,0,0,0-2,2,6,6,0,0,0-1.34,2.92,4.35,4.35,0,0,0,.83,3.32A3.88,3.88,0,0,0,29.58,23a6.67,6.67,0,0,0,.78.31,6.36,6.36,0,0,0,.7.16,12.12,12.12,0,0,0,2.3.15,21.88,21.88,0,0,1-3.23.05A40.39,40.39,0,0,1,21.67,22a25.1,25.1,0,0,1-3.46-1.29,11.35,11.35,0,0,1-2.51-1.55,3.81,3.81,0,0,1-1.13-1.48,2.83,2.83,0,0,1-.11-1.39,7.84,7.84,0,0,1,.38-1.59c.17-.51.35-.93.49-1.27.31-.68.51-1,.51-1s.17-.36.55-1a19.6,19.6,0,0,1,2-2.73l.06-.07A42.2,42.2,0,0,0,9,18.48,6.9,6.9,0,0,0,9.36,19.73ZM31.57,21a4.38,4.38,0,0,1-.43-.13l-.29-.13a1.55,1.55,0,0,1-.49-.43A1.62,1.62,0,0,1,30.15,19c.17-1,1.19-2,2.52-3a27.78,27.78,0,0,1,4.23-2.62,27.25,27.25,0,0,1,9.89-2.83,16.72,16.72,0,0,1,5.06.31,10,10,0,0,1,2.22.75,3.54,3.54,0,0,1,.73.5.84.84,0,0,1,.25.37.81.81,0,0,1,0,.41,1.46,1.46,0,0,1-.07.19l0,.09-.1.15a6.75,6.75,0,0,1-1.53,1.45c-1.47,1.06-3,2.11-4.55,3.06a46.23,46.23,0,0,1-6,3.16,7.68,7.68,0,0,0,.78-.47A6.45,6.45,0,0,0,45,19.29a4.4,4.4,0,0,0,.54-.79,2.47,2.47,0,0,0,.2-.4l.08-.17,0-.13,0-.12a1.71,1.71,0,0,0,0-1.24,1.63,1.63,0,0,0-.85-.79,4,4,0,0,0-1.53-.28,5.46,5.46,0,0,0-2.36.57,8.17,8.17,0,0,0-1.47.86c-.75.53-1.08.88-1,1s.5-.1,1.32-.45a14.81,14.81,0,0,1,1.49-.55,5.15,5.15,0,0,1,2-.23,2.82,2.82,0,0,1,1,.3c.13.07.17.16.16.15s0,.05-.08.21a4.07,4.07,0,0,1-.32.55,3.55,3.55,0,0,1-.41.49,5,5,0,0,1-1.16.87,13.61,13.61,0,0,1-3.24,1.19,29.45,29.45,0,0,1-3.87.79A12,12,0,0,1,31.57,21Z"/><path class="cls-10" d="M29.51,40.73c.57.71.93,1.2.93,1.2s.38.47.91,1.21A29,29,0,0,1,33.13,46c.57,1.08,1.08,2.2,1.42,3.05a5.68,5.68,0,0,0,.64,1.42A4.16,4.16,0,0,0,35,48.89a21.19,21.19,0,0,0-1.13-3.25,24.22,24.22,0,0,0-1.64-3.06c-.24-.41-.48-.72-.63-.95l-.25-.36s-.39-.49-1-1.2a27.22,27.22,0,0,0-2.52-2.38,20.78,20.78,0,0,0-2.84-1.95,4.35,4.35,0,0,0-1.43-.64c0,.07.46.43,1.2,1a32.38,32.38,0,0,1,2.57,2.18A29.36,29.36,0,0,1,29.51,40.73Z"/><path class="cls-11" d="M22.45,49.47A11.05,11.05,0,0,1,23.68,51c.55.84.91,1.81,1.06,1.78s.05-1.11-.37-2.13a9,9,0,0,0-1.09-1.91,9,9,0,0,0-1.71-1.38c-.95-.57-2-.84-2.05-.7s.85.65,1.59,1.32A10.49,10.49,0,0,1,22.45,49.47Z"/><path class="cls-12" d="M17.71,61.26c-.53-1.39-.11-3-.28-3.07s-.26.35-.41,1A4.86,4.86,0,0,0,17,61.48a4.13,4.13,0,0,0,1.29,2.08,4.26,4.26,0,0,0,.95.64,4,4,0,0,0,1.1.29,4,4,0,0,0,4-2.19c.29-.58.29-1,.23-1s-.23.36-.59.81a3.88,3.88,0,0,1-1.61,1.23,3.19,3.19,0,0,1-1.91.19,3.34,3.34,0,0,1-.81-.29,3.68,3.68,0,0,1-.77-.43A3.34,3.34,0,0,1,17.71,61.26Z"/><path class="cls-13" d="M28,3.32c-.61.43-1.12.79-1.46,1.06L26,4.81l-.51.46c-.33.29-.77.74-1.3,1.28a17.45,17.45,0,0,0-3.16,4.54,6.84,6.84,0,0,0-.59,3,5,5,0,0,0,.85,2.49,3.57,3.57,0,0,0,1.4,1.2c.41.19.66.2.67.17s-.22-.13-.57-.36a3.77,3.77,0,0,1-1.14-1.24,4.64,4.64,0,0,1-.6-2.28,6.3,6.3,0,0,1,.68-2.62,17.15,17.15,0,0,1,3.18-4.16c.52-.5,1-.92,1.29-1.18l.5-.43.51-.42c.32-.28.8-.65,1.38-1.08A36.66,36.66,0,0,1,33,1.43c-1.37.36-2.72.8-4,1.29Z"/><path class="cls-14" d="M48.75,13.06s.2,0,.27-.29a.76.76,0,0,0-.05-.48.92.92,0,0,0-.47-.44,3.45,3.45,0,0,0-1.4-.14,14,14,0,0,0-1.54.14,17.92,17.92,0,0,0-2.81.67c-.74.24-1.23.43-1.23.43s-.48.22-1.17.58A23.3,23.3,0,0,0,37.87,15a7.69,7.69,0,0,0-2.11,2c-.45.67-.55,1.21-.49,1.23s.31-.43.82-1a8.64,8.64,0,0,1,2.18-1.62c.87-.48,1.81-.89,2.51-1.19S41.94,14,41.94,14a21,21,0,0,1,3.77-1.36c.48-.12,1-.21,1.44-.29a3.65,3.65,0,0,1,1.2-.06.55.55,0,0,1,.45.5C48.82,12.93,48.72,13,48.75,13.06Z"/><path class="cls-15" d="M29.73,9.75c1-.86,2-1.62,2-1.62s1-.86,2-1.64a12.49,12.49,0,0,0,2.09-1.63,6.55,6.55,0,0,0-2.5,1,21.26,21.26,0,0,0-2.28,1.45A22.52,22.52,0,0,0,29.19,9.2a6.63,6.63,0,0,0-1.49,2.24C27.82,11.53,28.74,10.59,29.73,9.75Z"/><path class="cls-16" d="M36.41,34.26c-.12-.08-.81.8-1.28,1.83a11.32,11.32,0,0,0-.72,2.14,11.21,11.21,0,0,0,0,2.25A4.09,4.09,0,0,0,35,42.63a11.39,11.39,0,0,0,.15-2.16,15.14,15.14,0,0,1,.32-2.06,14.69,14.69,0,0,1,.37-2.06A10.3,10.3,0,0,0,36.41,34.26Z"/><path class="cls-17" d="M70,74.53l-1.3,1.37-.71,1c.94-.65,1.85-1.35,2.74-2.08.46-.75.83-1.48.72-1.56S70.7,73.84,70,74.53Z"/><path class="cls-18" d="M64.8,6a5.24,5.24,0,0,1-.26,2.08s.19-.14.36-.5A3.41,3.41,0,0,0,65.23,6l0-.22-.52-.31A3.06,3.06,0,0,1,64.8,6Z"/><path class="cls-19" d="M42.16,3.9a13.7,13.7,0,0,0,2.06-.75A31.56,31.56,0,0,1,48.8,1.82a28.69,28.69,0,0,1,4.71-.56l.51,0C53,1,51.94.76,50.87.59c-.73.12-1.49.28-2.25.48a25.81,25.81,0,0,0-4.57,1.69A7.41,7.41,0,0,0,42.16,3.9Z"/><path class="cls-20" d="M12.43,29.63c0,.3,3.78.81,3.78.81s3.83,0,3.85-.27-3.78-.81-3.78-.81S12.45,29.33,12.43,29.63Z"/><path class="cls-21" d="M70.75,13.23a19.49,19.49,0,0,0-2.35,3c-.56.88-.87,1.51-.87,1.51s-.31.63-.68,1.6A25.32,25.32,0,0,0,65.79,23a17.48,17.48,0,0,0-.51,5.46c.15,0,.48-2.69,1.25-5.27a28.56,28.56,0,0,1,1.25-3.46c.41-.91.72-1.5.72-1.5s.27-.61.76-1.48a20.61,20.61,0,0,1,2.06-3,20.31,20.31,0,0,1,1.84-1.94l-.39-.37A15.74,15.74,0,0,0,70.75,13.23Z"/><path class="cls-22" d="M50,30.24c0,.07.45-.13,1.06-.4A17.45,17.45,0,0,1,53.31,29a16.46,16.46,0,0,1,2.34-.42c.64-.06,1.07-.07,1.07-.07s.43,0,1.07-.06a16.15,16.15,0,0,1,2.38.14,17.86,17.86,0,0,1,2.34.53c.63.2,1.06.34,1.09.27s-.33-.34-.93-.66a11.24,11.24,0,0,0-2.35-.89,13.54,13.54,0,0,0-2.51-.39c-.69,0-1.16,0-1.16,0s-.46,0-1.14.17a14.87,14.87,0,0,0-2.45.68,11.67,11.67,0,0,0-2.22,1.18C50.28,29.86,50,30.18,50,30.24Z"/><path class="cls-23" d="M63.22,48.73a20.68,20.68,0,0,0,1.69-2.08c.42-.6.67-1,.67-1a12.1,12.1,0,0,0,.52-1.13,12.35,12.35,0,0,0,.76-2.61,9.17,9.17,0,0,0,0-2.7c-.11-.73-.29-1.19-.36-1.18s0,.5-.06,1.2a10.92,10.92,0,0,1-.39,2.52,13.1,13.1,0,0,1-.91,2.36c-.31.61-.56,1-.56,1s-.2.42-.56,1-.88,1.37-1.45,2.13a24.38,24.38,0,0,0-2.27,3.07A14,14,0,0,0,63.22,48.73Z"/><path class="cls-24" d="M57.51,82.14a22.87,22.87,0,0,1-4.71.78,8.5,8.5,0,0,1-1.51-.1,4.46,4.46,0,0,1-.55-.12s-.2,0-.54-.14A5.76,5.76,0,0,1,48.84,82a7,7,0,0,1-2.9-3.45,7.77,7.77,0,0,1-.2-4.62c.32-1.26.82-2,.74-2.07a4.54,4.54,0,0,0-1.15,2,7.91,7.91,0,0,0-.11,5,7.68,7.68,0,0,0,3.09,4,7.31,7.31,0,0,0,1.55.77,5.24,5.24,0,0,0,.63.19,5,5,0,0,0,.6.11A42,42,0,0,0,58.26,82Z"/><path class="cls-25" d="M74,53.36A9.27,9.27,0,0,1,75.7,57.1a11.31,11.31,0,0,1,.21,1.34c0,.33,0,.52,0,.52a12.06,12.06,0,0,1,0,1.88A17.2,17.2,0,0,1,75.18,65c-.94,3-2.58,5.67-2.43,5.75a19.4,19.4,0,0,0,3.15-5.49A16.75,16.75,0,0,0,77,60.92a12.21,12.21,0,0,0,0-2s0-.21-.06-.56a11.22,11.22,0,0,0-.28-1.46,10,10,0,0,0-2.05-4A8.47,8.47,0,0,0,71,50.38a3.66,3.66,0,0,0-2-.26c0,.08.78.17,1.82.65A8.46,8.46,0,0,1,74,53.36Z"/><path class="cls-26" d="M35.83,83.55a12.06,12.06,0,0,1-.69-2.36c-.23-1.23-.14-2.51-.29-2.54a4.78,4.78,0,0,0-.48,2.61,9.49,9.49,0,0,0,.32,2.21c.39.09.79.17,1.19.24Z"/><path class="cls-27" d="M76.63,26c.13.08.8-.75,1.54-1.48s1.54-1.38,1.54-1.38.55-.57,1.23-1.16l-.4-.74A14.89,14.89,0,0,0,79,22.35,14.82,14.82,0,0,0,77.58,24C77,24.94,76.5,25.94,76.63,26Z"/><path class="cls-28" d="M46.8,55.46A5,5,0,0,0,49.28,55a15.47,15.47,0,0,0-2.42-.32,16.82,16.82,0,0,1-2.31-.54,17,17,0,0,1-2.29-.65A15.29,15.29,0,0,0,40,52.63c-.09.12.85,1,2,1.58a13,13,0,0,0,2.34,1A12.7,12.7,0,0,0,46.8,55.46Z"/><path class="cls-29" d="M78.05,65.28a20.29,20.29,0,0,1-.69,2.1c-.16.44-.34.87-.51,1.27.72-.9,1.4-1.82,2-2.78,0-.1.08-.2.11-.29.22-.6.33-1,.33-1a12.15,12.15,0,0,0,.19-3.4,5.75,5.75,0,0,0-1-3.2c-.13.06.36,1.62.27,3.22a13,13,0,0,1-.48,3.13S78.2,64.7,78.05,65.28Z"/><path class="cls-30" d="M85.47,47.36a8.91,8.91,0,0,1-1-.07,9.06,9.06,0,0,1-1-.13,9.16,9.16,0,0,1-2.22-.72,22.54,22.54,0,0,1-2.9-1.93,5.92,5.92,0,0,0,2.53,2.61,9.3,9.3,0,0,0,2.36,1,8.77,8.77,0,0,0,1.16.23,8.58,8.58,0,0,0,1.19,0h.16c0-.33.11-.66.15-1Z"/><path class="cls-31" d="M22.61,78.59a15,15,0,0,0,5.33-1.81,21.13,21.13,0,0,0,2.51-1.69,19.72,19.72,0,0,0,2-1.78c.54-.55,1-1,1.25-1.4l.44-.56.4-.59c.25-.37.6-.91,1-1.59a31.46,31.46,0,0,0,2.3-5.12,46,46,0,0,0,1.51-5.37,11,11,0,0,0,.41-2.51c-.16,0-1.13,3.9-2.64,7.6a32.83,32.83,0,0,1-2.44,4.9c-.39.63-.74,1.14-1,1.49l-.4.55-.4.54c-.26.35-.64.83-1.14,1.38a23.46,23.46,0,0,1-1.8,1.77,21.87,21.87,0,0,1-2.33,1.71,16.07,16.07,0,0,1-5,2.07l-.64.12.52.31Z"/><path class="cls-32" d="M36.62,69.27a35.29,35.29,0,0,0-1.39,3.28A11.45,11.45,0,0,0,34.34,76a21.26,21.26,0,0,0,1.59-3.13c.78-1.57,1.65-3.07,1.65-3.07s.75-1.56,1.62-3.08a22.23,22.23,0,0,0,1.71-3.07,11,11,0,0,0-2.36,2.66A34.79,34.79,0,0,0,36.62,69.27Z"/><path class="cls-33" d="M7.08,60.71a2.94,2.94,0,0,0-.35,1.36c0,.07,0,.15,0,.22l.53,1C7.09,61.86,7.18,60.73,7.08,60.71Z"/><path class="cls-34" d="M6.3,36.88c.48-.23.9-.37,1.19-.5l.45-.18L8.39,36c.29-.1.7-.29,1.21-.44a24.57,24.57,0,0,1,3.79-1,28.17,28.17,0,0,1,3.92-.32,8.57,8.57,0,0,0,1.81,0,5.31,5.31,0,0,0-1.79-.38,21.54,21.54,0,0,0-4,0,23.9,23.9,0,0,0-4,.75c-.54.13-1,.31-1.28.4l-.48.16-.46.21c-.3.15-.73.31-1.22.58a24,24,0,0,0-3.43,2.17c-.21.17-.42.34-.62.52,0,.2-.05.4-.06.61s0,.22,0,.33l1.15-.84A27.21,27.21,0,0,1,6.3,36.88Z"/><path class="cls-35" d="M10.32,49a10.54,10.54,0,0,1,1.77-1.6,28,28,0,0,1,3.14-1.68,6.44,6.44,0,0,0-3.55,1A10,10,0,0,0,9.6,48.3a10.43,10.43,0,0,0-.81.88,10.34,10.34,0,0,0-.62,1,10.13,10.13,0,0,0-.91,2.44,6.4,6.4,0,0,0,0,3.7A27.22,27.22,0,0,1,8,52.85a10.72,10.72,0,0,1,1.66-3S9.9,49.48,10.32,49Z"/><path class="cls-36" d="M16,73.94s-.06-.07-.18-.12L16,74S16,74,16,73.94Z"/><path class="cls-37" d="M5.19,29a29.6,29.6,0,0,1,3.22-.38,21.42,21.42,0,0,0,3.3-.22,9.3,9.3,0,0,0-3.3-.55A22,22,0,0,0,5,27.9s-.38.06-1,.2c-.12.35-.25.71-.37,1.08C4.56,29,5.19,29,5.19,29Z"/><path class="cls-38" d="M21.31,33.24a1.16,1.16,0,0,1,.16-2.31,1.16,1.16,0,0,1-.16,2.31Zm4.31,1.41a1.16,1.16,0,0,0,.17-2.31,1.16,1.16,0,0,0-.17,2.31Zm9.67,23.13a1.15,1.15,0,0,0,.16-2.3,1.15,1.15,0,0,0-.16,2.3Zm-.73,5.11a1.16,1.16,0,0,0,.16-2.31,1.16,1.16,0,0,0-.16,2.31Zm-1.48,5.29a1.15,1.15,0,0,0,.16-2.3,1.15,1.15,0,0,0-.16,2.3ZM42.31,6.86a1.16,1.16,0,0,0,.16-2.31,1.16,1.16,0,0,0-.16,2.31Zm7.36-1.69a1.16,1.16,0,0,0,.16-2.31,1.16,1.16,0,0,0-.16,2.31Zm6.65,1.32a1.15,1.15,0,0,0,.17-2.3,1.15,1.15,0,0,0-.17,2.3Zm4.62,4.13a1.15,1.15,0,0,0,.16-2.3,1.15,1.15,0,0,0-.16,2.3Zm7.39,34.52a1.16,1.16,0,0,0,.16-2.31,1.16,1.16,0,0,0-.16,2.31Zm2.49,4.71a1.15,1.15,0,0,0,.16-2.3,1.15,1.15,0,0,0-.16,2.3ZM65.53,64a1.15,1.15,0,0,0,.16-2.3,1.15,1.15,0,0,0-.16,2.3Zm-5.35-.74a1.16,1.16,0,0,0,.17-2.31,1.16,1.16,0,0,0-.17,2.31ZM36.09,79.44a1.16,1.16,0,0,0,.16-2.31,1.16,1.16,0,0,0-.16,2.31Zm.72,3.73A1.16,1.16,0,0,0,37,80.86a1.16,1.16,0,0,0-.16,2.31ZM4.71,52.81a1.16,1.16,0,0,0,.16-2.31,1.16,1.16,0,0,0-.16,2.31Zm3.15-4.69A1.16,1.16,0,0,0,8,45.81a1.16,1.16,0,0,0-.16,2.31Zm4.61-2.74a1.16,1.16,0,0,0,.17-2.31,1.16,1.16,0,0,0-.17,2.31ZM18,56.44a1.16,1.16,0,0,0,.17-2.31A1.16,1.16,0,0,0,18,56.44Zm42.25-30a1.15,1.15,0,0,0,.16-2.3,1.15,1.15,0,0,0-.16,2.3Zm2.91-3a1.16,1.16,0,0,0,.16-2.31,1.16,1.16,0,0,0-.16,2.31ZM7.83,25.91A1.16,1.16,0,0,0,8,23.6a1.16,1.16,0,0,0-.16,2.31Zm4.28,2a1.16,1.16,0,0,0,.16-2.31,1.16,1.16,0,0,0-.16,2.31Zm66.13,29a1.15,1.15,0,0,0,.16-2.3,1.15,1.15,0,0,0-.16,2.3Zm3.39,1.78a1.16,1.16,0,0,0,.16-2.31,1.16,1.16,0,0,0-.16,2.31Z"/><path class="cls-39" d="M71.6,10.37A37.11,37.11,0,1,1,2.2,35.43C2,36.69,1.84,38,1.75,39.28A42.24,42.24,0,1,0,71.6,10.37Z"/><g class="cls-40"><path class="cls-41" d="M83.33,31a37.92,37.92,0,0,1,.85,11.1C82.64,64,62.87,80.47,40,78.86,22.38,77.62,8.06,66,3.17,50.64,7,67.55,22,80.79,40.9,82.12c22.85,1.6,42.62-14.84,44.17-36.74A38.2,38.2,0,0,0,83.33,31Z"/></g><path class="cls-42" d="M7.4,43.11A39.14,39.14,0,0,1,78.52,23.43,39.14,39.14,0,1,0,11.9,64.25,38.89,38.89,0,0,1,7.4,43.11Z"/><path class="cls-43" d="M64.43,23.54a14.59,14.59,0,0,1-3.19,1.31C56.88,26.08,52.17,26,48,27.66c-4.72,1.92-8.25,5.92-11.35,10S30.59,46,26.46,49s-9.88,4.38-14.36,2c-12-6.45-3.31-25.38,3-32.83A37.9,37.9,0,0,1,46.5,4.79c5.31.37,10,2,14.93,3.9A13.64,13.64,0,0,1,68.64,15C70.5,18.84,67.77,21.7,64.43,23.54Z"/><path class="cls-44" d="M26.28,18.42c1.89,1.57,1.07,5.68-1.84,9.18s-6.8,5.08-8.69,3.51-1.07-5.68,1.84-9.19S24.39,16.85,26.28,18.42Z"/><path class="cls-45" d="M35.93,11.67c.59,1.22-.77,3.1-3,4.2s-4.57,1-5.16-.23.76-3.1,3-4.2S35.34,10.45,35.93,11.67Z"/></g></g></svg>