<svg xmlns="http://www.w3.org/2000/svg" xmlns:xlink="http://www.w3.org/1999/xlink" viewBox="0 0 81.21 81.21"><defs><style>.cls-1{isolation:isolate;}.cls-2{fill:url(#radial-gradient);}.cls-3{opacity:0.5;fill:url(#radial-gradient-2);}.cls-4{opacity:0.78;mix-blend-mode:multiply;fill:url(#radial-gradient-3);}.cls-10,.cls-11,.cls-12,.cls-13,.cls-14,.cls-15,.cls-16,.cls-17,.cls-18,.cls-19,.cls-20,.cls-5,.cls-6,.cls-7,.cls-8,.cls-9{mix-blend-mode:screen;}.cls-6{fill:url(#radial-gradient-4);}.cls-7{fill:url(#radial-gradient-5);}.cls-8{fill:url(#radial-gradient-6);}.cls-9{fill:url(#radial-gradient-7);}.cls-10{fill:url(#radial-gradient-8);}.cls-11{fill:url(#radial-gradient-9);}.cls-12{fill:url(#radial-gradient-10);}.cls-13{fill:url(#radial-gradient-11);}.cls-14{fill:url(#radial-gradient-12);}.cls-15{fill:url(#radial-gradient-15);}.cls-16{fill:url(#radial-gradient-16);}.cls-17{fill:url(#radial-gradient-17);}.cls-18{fill:url(#radial-gradient-18);}.cls-19{fill:url(#radial-gradient-19);}.cls-20{fill:url(#radial-gradient-20);}</style><radialGradient id="radial-gradient" cx="23.62" cy="-1.18" r="86.44" gradientUnits="userSpaceOnUse"><stop offset="0.08" stop-color="#ffe245"/><stop offset="0.53" stop-color="#de007b"/><stop offset="1" stop-color="#e38427"/></radialGradient><radialGradient id="radial-gradient-2" cx="23.68" cy="2.24" r="84.02" gradientUnits="userSpaceOnUse"><stop offset="0" stop-color="#e38427"/><stop offset="0.47" stop-color="#de007b"/><stop offset="0.92" stop-color="#ffe245"/></radialGradient><radialGradient id="radial-gradient-3" cx="29.72" cy="14.46" r="69.87" xlink:href="#radial-gradient"/><radialGradient id="radial-gradient-4" cx="32.47" cy="-9.3" r="103.43" xlink:href="#radial-gradient"/><radialGradient id="radial-gradient-5" cx="32.47" cy="-9.3" r="103.43" xlink:href="#radial-gradient"/><radialGradient id="radial-gradient-6" cx="32.47" cy="-9.3" r="103.43" xlink:href="#radial-gradient"/><radialGradient id="radial-gradient-7" cx="32.47" cy="-9.3" r="103.43" xlink:href="#radial-gradient"/><radialGradient id="radial-gradient-8" cx="32.47" cy="-9.3" r="103.43" xlink:href="#radial-gradient"/><radialGradient id="radial-gradient-9" cx="32.47" cy="-9.3" r="103.43" xlink:href="#radial-gradient"/><radialGradient id="radial-gradient-10" cx="32.47" cy="-9.3" r="103.43" xlink:href="#radial-gradient"/><radialGradient id="radial-gradient-11" cx="32.47" cy="-9.3" r="103.43" xlink:href="#radial-gradient"/><radialGradient id="radial-gradient-12" cx="32.47" cy="-9.3" r="103.43" xlink:href="#radial-gradient"/><radialGradient id="radial-gradient-15" cx="32.47" cy="-9.3" r="103.43" xlink:href="#radial-gradient"/><radialGradient id="radial-gradient-16" cx="32.47" cy="-9.3" r="103.43" xlink:href="#radial-gradient"/><radialGradient id="radial-gradient-17" cx="21.21" cy="-0.99" r="74.13" xlink:href="#radial-gradient"/><radialGradient id="radial-gradient-18" cx="139.27" cy="-1205.84" r="22.23" gradientTransform="translate(-134.33 1216.21)" gradientUnits="userSpaceOnUse"><stop offset="0" stop-color="#8ee1ee"/><stop offset="0.62" stop-color="#5e8dec"/><stop offset="0.63" stop-color="#5f89e8"/><stop offset="0.74" stop-color="#6b64c7"/><stop offset="0.84" stop-color="#714eb3"/><stop offset="0.9" stop-color="#7446ac"/></radialGradient><radialGradient id="radial-gradient-19" cx="-44.43" cy="-646.46" r="12.27" gradientTransform="matrix(0.88, -0.47, 0.47, 0.88, 359.79, 557.83)" xlink:href="#radial-gradient-18"/><radialGradient id="radial-gradient-20" cx="21.38" cy="3.74" r="54.85" xlink:href="#radial-gradient"/></defs><title>time</title><g class="cls-1"><g id="OBJECTS"><circle class="cls-2" cx="40.61" cy="40.61" r="40.61"/><path class="cls-3" d="M56.8,3.37A34.67,34.67,0,1,1,.09,43.16,40.6,40.6,0,1,0,56.8,3.37Z"/><path class="cls-4" d="M69.72,15.38A37.37,37.37,0,0,1,75.93,36,38.36,38.36,0,0,1,9.27,61.42,38.35,38.35,0,0,0,79.6,40.76,37.46,37.46,0,0,0,69.72,15.38Z"/><g class="cls-5"><path class="cls-6" d="M61.31,9.18c-.27.69-.53,1.25-.72,1.63l-.31.6L60,12c-.21.38-.51.92-.91,1.54a30.33,30.33,0,0,1-3.36,4.29,48.62,48.62,0,0,1-4,3.76,20.26,20.26,0,0,0-1.89,1.65,11.46,11.46,0,0,0,2.12-1.37,38.9,38.9,0,0,0,4.24-3.59A28.66,28.66,0,0,0,59.77,14c.44-.63.77-1.18,1-1.56l.35-.62.3-.64a16.42,16.42,0,0,0,.7-1.72A21,21,0,0,0,62.84,7c0-.09,0-.2,0-.3l-.69-.44c0,.19-.07.39-.12.57A20.46,20.46,0,0,1,61.31,9.18Z"/><path class="cls-7" d="M8.28,43.71s1.14.25,2.87.51a54.32,54.32,0,0,0,6.38.56c2.33.08,4.65,0,6.39-.1a17.3,17.3,0,0,0,2.88-.3,21,21,0,0,0-2.89-.06c-1.74,0-4.05,0-6.35-.19a60.12,60.12,0,0,1-6.27-.75c-1.69-.3-2.81-.58-2.81-.58s-1.12-.22-2.77-.69A38.77,38.77,0,0,1,0,40c0,.21,0,.41,0,.62v.12a36.71,36.71,0,0,0,5.46,2.19C7.14,43.45,8.28,43.71,8.28,43.71Z"/><path class="cls-8" d="M8,17.42a9.53,9.53,0,0,0,.06,3.94A8.91,8.91,0,0,0,9.9,25a12.56,12.56,0,0,0,3,2.57,12,12,0,0,0,3.68,1.56,17.22,17.22,0,0,0,3.8.49,31.66,31.66,0,0,0,7.13-.7,61.36,61.36,0,0,0,6.33-1.64,48.87,48.87,0,0,0,5.55-2.05,34.32,34.32,0,0,0,7.74-4.66c.86-.7,1.5-1.3,1.93-1.72.21-.2.37-.37.48-.48l.16-.17.5-.56c.3-.39.76-.89,1.32-1.69a14.67,14.67,0,0,0,1.66-3.11,8.66,8.66,0,0,0,.46-5A6.85,6.85,0,0,0,52.23,5a7.63,7.63,0,0,0-2.58-1.95,13,13,0,0,0-6-1,30.68,30.68,0,0,0-11.83,3.3A31.51,31.51,0,0,0,26.46,8.8c-.83.66-1.61,1.36-2.35,2.08-.37.38-.73.72-1.1,1.14a10.15,10.15,0,0,0-1,1.35,5.73,5.73,0,0,0-.75,1.68,4,4,0,0,0,0,2.07,3.83,3.83,0,0,0,1.06,1.78,5,5,0,0,0,1.54,1,9.22,9.22,0,0,0,3,.61,14.85,14.85,0,0,0,2.77-.12,14.64,14.64,0,0,0,8.11-3.86,11.09,11.09,0,0,0,2.07-2.56,2.15,2.15,0,0,0,.16-2.09,1.79,1.79,0,0,0-1-.91,3.55,3.55,0,0,0-1.2-.26,7.46,7.46,0,0,0-1.91.17,7.91,7.91,0,0,0-2.22.83c-.92.56-1,.77-1,.81s.21-.06,1.15-.49a8.33,8.33,0,0,1,2.16-.64,7.55,7.55,0,0,1,1.67-.08,3.19,3.19,0,0,1,.88.2,1.31,1.31,0,0,1,.73.68,1.83,1.83,0,0,1-.48,1.43,2.76,2.76,0,0,1-.33.36l-.45.47a13.54,13.54,0,0,1-1.17,1,13.74,13.74,0,0,1-3.18,1.86,14,14,0,0,1-4.23,1,13.34,13.34,0,0,1-2.36,0,7.23,7.23,0,0,1-2.23-.57,1.76,1.76,0,0,1-1.11-1.17,2.35,2.35,0,0,1,.56-1.69,7.75,7.75,0,0,1,.8-.95c.3-.31.67-.64,1-1a27.4,27.4,0,0,1,2.21-1.79,28.66,28.66,0,0,1,4.93-2.89A27.76,27.76,0,0,1,43.73,5.67a9.41,9.41,0,0,1,4.28.8,3.12,3.12,0,0,1,1.81,2.22,4.76,4.76,0,0,1-.4,2.7,10,10,0,0,1-1.25,2.18c-.42.57-.85,1-1.1,1.34l-.43.45-.14.15a5.66,5.66,0,0,1-.39.42c-.35.36-.88.89-1.6,1.51a31,31,0,0,1-6.73,4.3A48.27,48.27,0,0,1,32.7,23.8c-1.86.64-3.86,1.25-5.93,1.75a29.51,29.51,0,0,1-6.35.86,11.47,11.47,0,0,1-6-1.35,7.58,7.58,0,0,1-3.81-4.36,9.27,9.27,0,0,1,.63-5.84c.17-.48.41-.95.62-1.42s.47-.93.72-1.37c.37-.66.75-1.3,1.15-1.91h0c-1,.87-1.94,1.8-2.84,2.76h0c-.45.48-.88,1-1.31,1.47h0c-.43.51-.84,1-1.24,1.54A11.68,11.68,0,0,0,8,17.42Z"/><path class="cls-9" d="M63.8,73.62s-2.32.93-5.88,2.1a136.29,136.29,0,0,1-13.27,3.55c-2.45.53-4.9,1-7.22,1.34-.71.1-1.41.18-2.09.25q1.15.15,2.34.24c2.29-.29,4.7-.71,7.1-1.19a132.18,132.18,0,0,0,13.4-3.37c1.27-.4,2.37-.77,3.28-1.09,1.14-.68,2.24-1.42,3.31-2.21Z"/><path class="cls-10" d="M16.11,73l.2,0h.26c.61,0,1.34-.09,2.17-.17s1.78-.18,2.81-.33c2.05-.26,4.43-.72,7-1.27s5.18-1.33,7.81-2.16a130.43,130.43,0,0,0,14.13-5.57c1.89-.85,3.43-1.62,4.52-2.15l1.69-.85,1.69-.88c1.06-.56,2.58-1.38,4.38-2.42A83.3,83.3,0,0,0,75.22,48.5a64.4,64.4,0,0,0,5.94-5.83c0-.26,0-.52,0-.78A66.66,66.66,0,0,1,74.79,48,83.19,83.19,0,0,1,62.3,56.41c-1.79,1-3.31,1.8-4.38,2.36l-1.68.86-1.68.86c-1.07.54-2.61,1.32-4.47,2.19a135.06,135.06,0,0,1-14,5.71c-2.61.87-5.24,1.65-7.74,2.28s-4.85,1.11-6.89,1.42l-1.12.18c.91-.17,1.82-.34,2.73-.54a108.43,108.43,0,0,0,10.81-3.08C37.29,67.44,40.42,66.21,43,65l1.88-.86,1.67-.82c1-.52,2-1,2.69-1.38l2.33-1.26,2.23-1.39c.72-.44,1.57-1,2.53-1.65s2.07-1.38,3.23-2.22c2.35-1.65,5-3.7,7.75-6s5.59-4.83,8.34-7.46c1.84-1.78,3.64-3.6,5.35-5.4,0-.37-.09-.74-.14-1.11,0-.17,0-.35-.07-.53-.07-.49-.14-1-.23-1.44-2.18,2.09-4.5,4.24-6.9,6.3-2.83,2.44-5.72,4.8-8.5,6.92s-5.44,4-7.78,5.5c-1.16.78-2.24,1.46-3.2,2s-1.8,1.12-2.51,1.51l-2.2,1.28-2.2,1.28c-.7.42-1.56.89-2.56,1.42l-1.58.86-1.78.89c-2.47,1.27-5.44,2.57-8.66,3.88S26,67.85,22.38,68.86c-3,.8-5.95,1.48-8.85,2,.77.69,1.56,1.34,2.38,2h0l.17.14h0l0,0Z"/><path class="cls-11" d="M27.7,79.11q1.52-.06,3.15-.18a69.71,69.71,0,0,0,7.77-1.22,78.19,78.19,0,0,0,7.58-2.13c2.37-.83,4.57-1.68,6.4-2.51.93-.4,1.76-.8,2.5-1.16s1.38-.67,1.9-.94l1.63-.86,1.57-1c.5-.3,1.09-.69,1.77-1.15s1.45-1,2.26-1.54c1.65-1.15,3.51-2.57,5.46-4.12s4-3.31,5.91-5.1q1.71-1.57,3.33-3.17h0c.25-.72.48-1.46.69-2.19l0-.11c.21-.74.4-1.48.57-2.24-2,1.77-4.26,3.65-6.54,5.46-2,1.61-4.11,3.18-6.08,4.59s-3.86,2.66-5.5,3.67c-.82.52-1.57,1-2.25,1.37s-1.26.75-1.75,1l-1.54.86L55,67.37c-.48.29-1.08.62-1.77,1s-1.45.8-2.32,1.23c-1.7.89-3.75,1.81-6,2.75s-4.65,1.76-7.11,2.51-5,1.32-7.35,1.76-4.62.72-6.56.86l-.33,0h0c.65.3,1.32.58,2,.85h0C26.34,78.63,27,78.88,27.7,79.11Z"/><path class="cls-12" d="M79.49,28.9c-.18-.62-.38-1.23-.6-1.84a102.68,102.68,0,0,1-13.3,8.53A106.11,106.11,0,0,1,50,42.38c-2.2.72-4,1.33-5.35,1.65l-2,.56-.53.16c-.34.12-.85.26-1.51.43l-2.36.61-1.45.38c-.52.12-1.06.22-1.63.34a94.43,94.43,0,0,1-16.88,2.18c-1.55.12-3.1.09-4.63.08H11.3c-.75,0-1.48-.05-2.21-.09a40,40,0,0,1-7.77-1.16L.56,47.3c.1.6.21,1.2.34,1.8a36.74,36.74,0,0,0,8,1.91l2.28.26,2.34.16c1.57.11,3.17.24,4.77.22a91.18,91.18,0,0,0,17.58-1.36c.59-.1,1.16-.18,1.7-.28l1.53-.33,2.48-.54c.69-.14,1.23-.27,1.59-.38l.56-.15L45.8,48c1.36-.39,3.24-1.1,5.49-2a100.53,100.53,0,0,0,15.78-7.85A85.68,85.68,0,0,0,79.49,28.9Z"/><path class="cls-13" d="M.62,35.16a18.39,18.39,0,0,0,7.49,5.25,46.82,46.82,0,0,0,10,2.73,52.57,52.57,0,0,0,10.33.53,55.29,55.29,0,0,0,9-1.22,54.15,54.15,0,0,0,6.17-1.74c.74-.26,1.31-.46,1.69-.62l.6-.23s.82-.34,2.21-1a61.84,61.84,0,0,0,5.61-3.08,68.33,68.33,0,0,0,14.7-12.36,57.87,57.87,0,0,0,5.17-6.58c-.5-.69-1-1.37-1.55-2h0a60.23,60.23,0,0,1-5.75,6.57A68.82,68.82,0,0,1,51.68,32.46a58,58,0,0,1-5.35,2.67c-1.33.58-2.1.87-2.1.87l-.54.23c-.35.16-.88.37-1.55.63a50.19,50.19,0,0,1-5.68,1.85,52.63,52.63,0,0,1-8.31,1.5,51.51,51.51,0,0,1-9.7,0c-6.54-.73-13.3-2.55-16.6-6.12A12.82,12.82,0,0,1,.76,32.78h0c-.13.69-.25,1.39-.35,2.09C.48,35,.54,35.06.62,35.16Z"/><path class="cls-14" d="M14.83,65.42c2.39-.36,4-.7,4-.7s1.57-.34,3.9-1,5.39-1.61,8.39-2.73,6-2.4,8.13-3.42c1.09-.5,2-1,2.61-1.27a4.73,4.73,0,0,0,1-.54,5.37,5.37,0,0,0-1,.37l-2.67,1.11c-2.22.91-5.19,2.08-8.21,3.13s-6.07,1.94-8.39,2.52-3.88.9-3.88.9-1.55.36-3.9.77c-1.74.31-3.93.61-6.24.81l.54.68C11.15,65.92,13.19,65.68,14.83,65.42Z"/><path class="cls-11" d="M27.59,55.67c2.26-.32,4.14-.64,5.45-.89l2.05-.4,2-.46c1.29-.3,3.14-.77,5.34-1.42A98.18,98.18,0,0,0,58,46.33,133.18,133.18,0,0,0,72.48,38c1.9-1.26,3.45-2.35,4.53-3.13l1.24-.92a3.12,3.12,0,0,0,.42-.35,2.83,2.83,0,0,0-.48.27c-.29.2-.73.48-1.29.84-1.11.73-2.69,1.77-4.61,3a146.11,146.11,0,0,1-14.55,8.09,99.21,99.21,0,0,1-15.5,5.94c-2.18.62-4,1.06-5.31,1.35l-2,.44-2,.42c-1.3.26-3.16.59-5.4.94C23,55.52,17,56.2,10.91,56.6c-2.55.17-5.1.23-7.55.19.08.19.17.37.25.56,2.38.06,4.86,0,7.34-.09C17,56.94,23.07,56.32,27.59,55.67Z"/><path class="cls-7" d="M5.42,31.67c.36.28.71.57,1.08.82l1.13.73c.37.23.73.5,1.11.7l1.15.6c.37.19.74.4,1.11.57l1.1.45a16.2,16.2,0,0,0,2.05.75c.65.2,1.24.39,1.77.54l1.4.3.9.19a2.28,2.28,0,0,0,.31.06l1.24.15c.39,0,.87.11,1.41.15l1.85.07a39,39,0,0,0,9.8-1.15A40.87,40.87,0,0,0,42,33.08l1.6-.89,1.19-.77a6.64,6.64,0,0,0,1-.71,5.62,5.62,0,0,0-1.09.55L43.48,32l-1.63.81A43.2,43.2,0,0,1,32.68,36a38.58,38.58,0,0,1-9.63.93l-1.8-.1c-.53,0-1-.12-1.37-.17l-1.2-.16a1.43,1.43,0,0,1-.31-.05l-.87-.17L16.14,36c-.52-.13-1.1-.31-1.73-.49a16.72,16.72,0,0,1-2-.7l-1.08-.42c-.36-.16-.72-.35-1.09-.53l-1.12-.56c-.38-.19-.73-.44-1.1-.66l-1.12-.69c-.37-.23-.71-.5-1.06-.76a14.58,14.58,0,0,1-3.44-3.77l-.11-.19c-.08.21-.15.43-.22.64A15,15,0,0,0,5.42,31.67Z"/><path class="cls-15" d="M74,25.33s-.79.7-2,1.72-2.87,2.33-4.56,3.59S63.93,33.09,62.6,34a15.9,15.9,0,0,0-2.19,1.51,15.24,15.24,0,0,0,2.38-1.2c1.39-.77,3.2-1.89,5-3.08s3.48-2.47,4.73-3.47S74.56,26,74.56,26s.8-.71,2-1.81c.27-.25.56-.54.86-.83-.12-.26-.24-.52-.37-.78-.38.36-.74.69-1.07,1C74.76,24.65,74,25.33,74,25.33Z"/><path class="cls-16" d="M68.44,11.63c-.15.23-.34.58-.61,1a29.35,29.35,0,0,1-2.1,2.72,31,31,0,0,1-2.46,2.44c-.71.62-1.2,1-1.16,1.09A5.68,5.68,0,0,0,63.5,18a21.54,21.54,0,0,0,2.7-2.27,25.59,25.59,0,0,0,2.33-2.68c.3-.38.51-.73.68-.95l.14-.21-.68-.65Z"/></g><path class="cls-17" d="M2.34,43.41A40.6,40.6,0,0,1,72.92,16,40.61,40.61,0,1,0,10.63,68,40.43,40.43,0,0,1,2.34,43.41Z"/><ellipse class="cls-18" cx="14.96" cy="22.22" rx="7.93" ry="4.28" transform="translate(-11.77 20.56) rotate(-52.5)"/><path class="cls-19" d="M28.81,9.1c.61,1.15-.62,3-2.75,4.14s-4.36,1.12-5,0,.62-3,2.75-4.14S28.2,8,28.81,9.1Z"/><path class="cls-20" d="M59.06,21.21a14.65,14.65,0,0,1-3,1.47c-4.1,1.47-8.62,1.67-12.54,3.59C39.16,28.43,36,32.5,33.35,36.59s-5.22,8.41-9,11.55S15.19,53,10.73,51c-12-5.38-4.89-24.11.63-31.68A36.43,36.43,0,0,1,40.61,4.43c5.11,0,9.74,1.24,14.57,2.73a13.18,13.18,0,0,1,7.35,5.6C64.57,16.28,62.14,19.21,59.06,21.21Z"/></g></g></svg>