<svg xmlns="http://www.w3.org/2000/svg" xmlns:xlink="http://www.w3.org/1999/xlink" viewBox="0 0 82.61 81.03"><defs><style>.cls-1{isolation:isolate;}.cls-2,.cls-42,.cls-43,.cls-44,.cls-45{mix-blend-mode:screen;}.cls-3{fill:url(#radial-gradient);}.cls-4{fill:url(#radial-gradient-2);}.cls-5{fill:url(#radial-gradient-3);}.cls-6{fill:url(#radial-gradient-4);}.cls-7{fill:url(#radial-gradient-5);}.cls-8{fill:url(#radial-gradient-6);}.cls-9{fill:url(#radial-gradient-7);}.cls-10{fill:url(#radial-gradient-8);}.cls-11,.cls-12,.cls-13,.cls-14,.cls-15,.cls-16,.cls-17,.cls-18,.cls-19,.cls-20,.cls-21,.cls-22,.cls-23,.cls-24,.cls-25,.cls-26,.cls-27,.cls-28,.cls-29,.cls-30,.cls-31,.cls-32,.cls-33,.cls-34,.cls-35,.cls-36,.cls-37,.cls-38,.cls-39,.cls-40,.cls-41{mix-blend-mode:multiply;}.cls-11{fill:url(#radial-gradient-9);}.cls-12{fill:url(#radial-gradient-10);}.cls-13{fill:url(#radial-gradient-11);}.cls-14{fill:url(#radial-gradient-12);}.cls-15{fill:url(#radial-gradient-13);}.cls-16{fill:url(#radial-gradient-14);}.cls-17{fill:url(#radial-gradient-15);}.cls-18{fill:url(#radial-gradient-16);}.cls-19{fill:url(#radial-gradient-17);}.cls-20{fill:url(#radial-gradient-18);}.cls-21{fill:url(#radial-gradient-19);}.cls-22{fill:url(#radial-gradient-20);}.cls-23{fill:url(#radial-gradient-21);}.cls-24{fill:url(#radial-gradient-22);}.cls-25{fill:url(#radial-gradient-23);}.cls-26{fill:url(#radial-gradient-24);}.cls-27{fill:url(#radial-gradient-25);}.cls-28{fill:url(#radial-gradient-26);}.cls-29{fill:url(#radial-gradient-27);}.cls-30{fill:url(#radial-gradient-28);}.cls-31{fill:url(#radial-gradient-29);}.cls-32{fill:url(#radial-gradient-30);}.cls-33{fill:url(#radial-gradient-31);}.cls-34{fill:url(#radial-gradient-32);}.cls-35{fill:url(#radial-gradient-33);}.cls-36{fill:url(#radial-gradient-34);}.cls-37{fill:url(#radial-gradient-35);}.cls-38{fill:url(#radial-gradient-36);}.cls-39{fill:url(#radial-gradient-37);}.cls-40{fill:url(#radial-gradient-38);}.cls-41{fill:url(#radial-gradient-39);}.cls-42{fill:url(#radial-gradient-40);}.cls-43{fill:url(#radial-gradient-41);}.cls-44{fill:url(#radial-gradient-42);}.cls-45{fill:url(#radial-gradient-43);}</style><radialGradient id="radial-gradient" cx="33.8" cy="-151.27" r="73.23" gradientTransform="translate(-87.03 47.99) rotate(69.04)" gradientUnits="userSpaceOnUse"><stop offset="0.08" stop-color="#ffe245"/><stop offset="0.53" stop-color="#de007b"/><stop offset="1" stop-color="#e38427"/></radialGradient><radialGradient id="radial-gradient-2" cx="18.53" cy="-180.15" r="112.06" gradientTransform="translate(-5.67 160.71) rotate(4.03)" xlink:href="#radial-gradient"/><radialGradient id="radial-gradient-3" cx="18.53" cy="-180.15" r="112.06" gradientTransform="translate(-5.67 160.71) rotate(4.03)" xlink:href="#radial-gradient"/><radialGradient id="radial-gradient-4" cx="18.53" cy="-180.15" r="112.06" gradientTransform="translate(-5.67 160.71) rotate(4.03)" xlink:href="#radial-gradient"/><radialGradient id="radial-gradient-5" cx="18.53" cy="-180.15" r="112.06" gradientTransform="translate(-5.67 160.71) rotate(4.03)" xlink:href="#radial-gradient"/><radialGradient id="radial-gradient-6" cx="18.53" cy="-180.15" r="112.06" gradientTransform="translate(-5.67 160.71) rotate(4.03)" xlink:href="#radial-gradient"/><radialGradient id="radial-gradient-7" cx="18.53" cy="-180.15" r="112.06" gradientTransform="translate(-5.67 160.71) rotate(4.03)" xlink:href="#radial-gradient"/><radialGradient id="radial-gradient-8" cx="18.53" cy="-180.15" r="112.06" gradientTransform="translate(-5.67 160.71) rotate(4.03)" xlink:href="#radial-gradient"/><radialGradient id="radial-gradient-9" cx="27.6" cy="-165.27" r="81" gradientTransform="translate(-5.67 160.71) rotate(4.03)" xlink:href="#radial-gradient"/><radialGradient id="radial-gradient-10" cx="27.6" cy="-165.27" r="81" gradientTransform="translate(-5.67 160.71) rotate(4.03)" xlink:href="#radial-gradient"/><radialGradient id="radial-gradient-11" cx="27.6" cy="-165.27" r="81" gradientTransform="translate(-5.67 160.71) rotate(4.03)" xlink:href="#radial-gradient"/><radialGradient id="radial-gradient-12" cx="27.6" cy="-165.27" r="81" gradientTransform="translate(-5.67 160.71) rotate(4.03)" xlink:href="#radial-gradient"/><radialGradient id="radial-gradient-13" cx="27.6" cy="-165.27" r="81" gradientTransform="translate(-5.67 160.71) rotate(4.03)" xlink:href="#radial-gradient"/><radialGradient id="radial-gradient-14" cx="27.6" cy="-165.27" r="81" gradientTransform="translate(-5.67 160.71) rotate(4.03)" xlink:href="#radial-gradient"/><radialGradient id="radial-gradient-15" cx="27.6" cy="-165.27" r="81" gradientTransform="translate(-5.67 160.71) rotate(4.03)" xlink:href="#radial-gradient"/><radialGradient id="radial-gradient-16" cx="27.6" cy="-165.26" r="81" gradientTransform="translate(-5.67 160.71) rotate(4.03)" xlink:href="#radial-gradient"/><radialGradient id="radial-gradient-17" cx="27.6" cy="-165.27" r="81" gradientTransform="translate(-5.67 160.71) rotate(4.03)" xlink:href="#radial-gradient"/><radialGradient id="radial-gradient-18" cx="27.6" cy="-165.27" r="81" gradientTransform="translate(-5.67 160.71) rotate(4.03)" xlink:href="#radial-gradient"/><radialGradient id="radial-gradient-19" cx="27.6" cy="-165.27" r="81" gradientTransform="translate(-5.67 160.71) rotate(4.03)" xlink:href="#radial-gradient"/><radialGradient id="radial-gradient-20" cx="27.6" cy="-165.27" r="81" gradientTransform="translate(-5.67 160.71) rotate(4.03)" xlink:href="#radial-gradient"/><radialGradient id="radial-gradient-21" cx="27.6" cy="-165.27" r="81" gradientTransform="translate(-5.67 160.71) rotate(4.03)" xlink:href="#radial-gradient"/><radialGradient id="radial-gradient-22" cx="27.6" cy="-165.27" r="81" gradientTransform="translate(-5.67 160.71) rotate(4.03)" xlink:href="#radial-gradient"/><radialGradient id="radial-gradient-23" cx="27.6" cy="-165.27" r="81" gradientTransform="translate(-5.67 160.71) rotate(4.03)" xlink:href="#radial-gradient"/><radialGradient id="radial-gradient-24" cx="27.6" cy="-165.27" r="81" gradientTransform="translate(-5.67 160.71) rotate(4.03)" xlink:href="#radial-gradient"/><radialGradient id="radial-gradient-25" cx="27.6" cy="-165.27" r="81" gradientTransform="translate(-5.67 160.71) rotate(4.03)" xlink:href="#radial-gradient"/><radialGradient id="radial-gradient-26" cx="27.6" cy="-165.27" r="81" gradientTransform="translate(-5.67 160.71) rotate(4.03)" xlink:href="#radial-gradient"/><radialGradient id="radial-gradient-27" cx="27.6" cy="-165.27" r="81.01" gradientTransform="translate(-5.67 160.71) rotate(4.03)" xlink:href="#radial-gradient"/><radialGradient id="radial-gradient-28" cx="27.6" cy="-165.27" r="81" gradientTransform="translate(-5.67 160.71) rotate(4.03)" xlink:href="#radial-gradient"/><radialGradient id="radial-gradient-29" cx="27.6" cy="-165.27" r="81" gradientTransform="translate(-5.67 160.71) rotate(4.03)" xlink:href="#radial-gradient"/><radialGradient id="radial-gradient-30" cx="27.6" cy="-165.27" r="81" gradientTransform="translate(-5.67 160.71) rotate(4.03)" xlink:href="#radial-gradient"/><radialGradient id="radial-gradient-31" cx="27.6" cy="-165.27" r="81" gradientTransform="translate(-5.67 160.71) rotate(4.03)" xlink:href="#radial-gradient"/><radialGradient id="radial-gradient-32" cx="27.6" cy="-165.27" r="81" gradientTransform="translate(-5.67 160.71) rotate(4.03)" xlink:href="#radial-gradient"/><radialGradient id="radial-gradient-33" cx="27.6" cy="-165.27" r="81" gradientTransform="translate(-5.67 160.71) rotate(4.03)" xlink:href="#radial-gradient"/><radialGradient id="radial-gradient-34" cx="27.6" cy="-165.27" r="81" gradientTransform="translate(-5.67 160.71) rotate(4.03)" xlink:href="#radial-gradient"/><radialGradient id="radial-gradient-35" cx="27.6" cy="-165.25" r="80.99" gradientTransform="translate(-5.67 160.71) rotate(4.03)" xlink:href="#radial-gradient"/><radialGradient id="radial-gradient-36" cx="27.6" cy="-165.27" r="81" gradientTransform="translate(-5.67 160.71) rotate(4.03)" xlink:href="#radial-gradient"/><radialGradient id="radial-gradient-37" cx="39.44" cy="-122.48" r="38.47" gradientTransform="translate(-5.67 160.71) rotate(4.03)" xlink:href="#radial-gradient"/><radialGradient id="radial-gradient-38" cx="33.8" cy="-144.37" r="68.23" gradientTransform="translate(-5.67 160.71) rotate(4.03)" xlink:href="#radial-gradient"/><radialGradient id="radial-gradient-39" cx="6.11" cy="-132.9" r="57.46" gradientTransform="matrix(0.98, 0.07, -0.07, 0.94, 23.11, 159.12)" xlink:href="#radial-gradient"/><radialGradient id="radial-gradient-40" cx="31.77" cy="-151.77" r="57.66" gradientTransform="translate(-5.67 160.71) rotate(4.03)" xlink:href="#radial-gradient"/><radialGradient id="radial-gradient-41" cx="20.01" cy="-159.95" r="54.73" gradientTransform="translate(-5.67 160.71) rotate(4.03)" xlink:href="#radial-gradient"/><radialGradient id="radial-gradient-42" cx="415.4" cy="-1282.21" r="22.18" gradientTransform="translate(726.34 1162.14) rotate(-50.33)" xlink:href="#radial-gradient"/><radialGradient id="radial-gradient-43" cx="116.74" cy="-816.67" r="12.24" gradientTransform="matrix(0.9, -0.44, 0.44, 0.9, 273.55, 795.47)" xlink:href="#radial-gradient"/></defs><title>time</title><g class="cls-1"><g id="OBJECTS"><g class="cls-2"><circle class="cls-3" cx="42.09" cy="40.52" r="40.51" transform="translate(-12.41 61.55) rotate(-65.01)"/><path class="cls-4" d="M42.73,30.93c.79-.85,1.31-1.32,1.21-1.5s-.81,0-1.91.63a11.58,11.58,0,0,0-3.76,3.73,13,13,0,0,0-2.05,7.45,11.53,11.53,0,0,0,1.08,4.49,9.32,9.32,0,0,0,3.31,3.81,11.72,11.72,0,0,0,9.53,1.27,17.27,17.27,0,0,0,7-4.12,20.09,20.09,0,0,0,3.6-4.47,14.5,14.5,0,0,0,1-2.09s.07-.2.18-.59a13.8,13.8,0,0,0,.36-1.76,11.25,11.25,0,0,0,0-2.86,7.42,7.42,0,0,0-.2-1,5.54,5.54,0,0,0-.49-1.23,5.11,5.11,0,0,0-2-2,8.84,8.84,0,0,0-2.12-.82,10,10,0,0,0-2.2-.34,11.94,11.94,0,0,0-4.55.68,12.66,12.66,0,0,0-4.12,2.4,15.17,15.17,0,0,0-3,3.62,18,18,0,0,0-1.07,2,17.79,17.79,0,0,0-.8,2.17,8.16,8.16,0,0,0-.25,1.27c0,.2,0,.52,0,.78a6.82,6.82,0,0,0,.08.79,3.9,3.9,0,0,0,1.62,2.52,5.18,5.18,0,0,0,1.32.64,6.71,6.71,0,0,0,1.23.25,6.44,6.44,0,0,0,5.63-2.49,5.63,5.63,0,0,0,.85-1.6,4.08,4.08,0,0,0,.23-1.68,2.25,2.25,0,0,0-.24-.85,2.2,2.2,0,0,0-.53-.68,2.14,2.14,0,0,0-1.31-.49,1.72,1.72,0,0,0-1.52.88c-.18.36-.13.58,0,.61s.23-.1.47-.24a1.24,1.24,0,0,1,1-.13.92.92,0,0,1,.45.36.62.62,0,0,1,.1.25.91.91,0,0,1,0,.33,2.93,2.93,0,0,1-.35.91,3.75,3.75,0,0,1-.71.9,4.22,4.22,0,0,1-2.3,1.11,3.53,3.53,0,0,1-1.3-.05,3.72,3.72,0,0,1-.59-.2,1.5,1.5,0,0,1-.37-.25,1,1,0,0,1-.32-.74,1.23,1.23,0,0,1,0-.2,2,2,0,0,1,.05-.22,4.54,4.54,0,0,1,.22-.69,14.59,14.59,0,0,1,.78-1.6,14.16,14.16,0,0,1,1-1.52,9.77,9.77,0,0,1,5.28-3.8,7.25,7.25,0,0,1,2.78-.21,5.83,5.83,0,0,1,1.18.28,3.79,3.79,0,0,1,.86.39s0,.07,0,.11v0l0,.27A5.9,5.9,0,0,1,56.9,37a6.37,6.37,0,0,1-.26,1c-.08.22-.13.34-.13.34A8.18,8.18,0,0,1,56,39.62a14.57,14.57,0,0,1-2.43,3.44,12.85,12.85,0,0,1-4.78,3.36,7.67,7.67,0,0,1-6.1-.24A6.83,6.83,0,0,1,39.32,41a11.32,11.32,0,0,1,.85-6.15A13.81,13.81,0,0,1,42.73,30.93Z"/><path class="cls-5" d="M17.58,68.54a9,9,0,0,0,6.05.15A10.82,10.82,0,0,0,28.11,66a11.41,11.41,0,0,0,2.43-3.66,14,14,0,0,0,.94-3.1,17.61,17.61,0,0,0,.27-2l0-.71,0-.7c0-.45-.06-1.12-.17-2a24.92,24.92,0,0,0-1.84-6.55,22,22,0,0,0-5.63-7.79,15.84,15.84,0,0,0-4.8-3,10.61,10.61,0,0,0-3.06-.63,11.51,11.51,0,0,0-3,.29,22.4,22.4,0,0,0-9.4,5,25.8,25.8,0,0,0-2.16,2.15c.09,1.21.23,2.4.41,3.58a24.81,24.81,0,0,1,3.7-3.31A21.92,21.92,0,0,1,9.68,41.4,17.74,17.74,0,0,1,14,40.08a7.82,7.82,0,0,1,2,0,6.56,6.56,0,0,1,1.78.52A11.51,11.51,0,0,1,21,42.92a17.47,17.47,0,0,1,4,6.32,19.53,19.53,0,0,1,1.17,5.22c.06.64.06,1.13.06,1.46l0,.51v.5a13.08,13.08,0,0,1-.11,1.39,9.48,9.48,0,0,1-.49,2,6.49,6.49,0,0,1-1.22,2.12,5.82,5.82,0,0,1-2.32,1.61,4.33,4.33,0,0,1-2.87.18,4.94,4.94,0,0,1-2.52-2.15,16.37,16.37,0,0,1-1-1.92c-.32-.7-.64-1.47-.91-2.18a10.74,10.74,0,0,1-.82-4.15,4.77,4.77,0,0,1,1.3-3.23,3,3,0,0,1,2.8-.79,3.82,3.82,0,0,1,2.15,2.07,5.2,5.2,0,0,1,.51,2.82,4.44,4.44,0,0,1-.83,2.1c-.78,1.07-1.61,1.37-1.54,1.58s.26.14.68,0a3.73,3.73,0,0,0,1.67-.86,5.19,5.19,0,0,0,1.63-2.52,6.69,6.69,0,0,0-.1-3.95A7.06,7.06,0,0,0,21.1,49,5.51,5.51,0,0,0,19,47.34,5.26,5.26,0,0,0,16,47a6.34,6.34,0,0,0-2.77,1.2,7.84,7.84,0,0,0-2.86,5.29A14,14,0,0,0,11,59.2c.26.88.53,1.69.85,2.54A18.17,18.17,0,0,0,13,64.3,9.32,9.32,0,0,0,17.58,68.54Z"/><path class="cls-6" d="M71.15,58.37a8.66,8.66,0,0,0-1.2-4.3,7,7,0,0,0-2.33-2.33,6.89,6.89,0,0,0-1-.52,7.9,7.9,0,0,0-1-.31,10.2,10.2,0,0,0-2.76-.19,18.3,18.3,0,0,0-3.58.64A36.62,36.62,0,0,0,55,52.71a31.91,31.91,0,0,0-9.38,5.62,26,26,0,0,0-7.22,10.3,17.54,17.54,0,0,0-1.23,6.48A9.15,9.15,0,0,0,38,78.54a8.54,8.54,0,0,0,1.55,2.4,38.79,38.79,0,0,0,4.94,0,7.86,7.86,0,0,1-2.29-1.73,5.62,5.62,0,0,1-1.4-4.13,14.19,14.19,0,0,1,1.34-5,22,22,0,0,1,6.52-8.23,27.38,27.38,0,0,1,8.2-4.35A23.85,23.85,0,0,1,63,56.17a4.4,4.4,0,0,1,1.25.13,1.55,1.55,0,0,1,.31.11,1.67,1.67,0,0,1,.24.1,1.26,1.26,0,0,1,.52.46c.45.57.9,2.3,0,4.53a14.47,14.47,0,0,1-2,3.56,18,18,0,0,1-3.28,3.39A17.13,17.13,0,0,1,55.74,71c-.4.16-.81.31-1.22.43s-.84.23-1.26.33-.85.14-1.28.22l-.65.06-.23,0a3.62,3.62,0,0,1-.47,0,.49.49,0,0,1-.42-.23,1.19,1.19,0,0,1,.1-1l0-.11c0-.06.08-.18.13-.27s.2-.38.31-.56c.21-.37.45-.73.69-1.08a13.68,13.68,0,0,1,3.58-3.44c.34-.22.68-.42,1-.61s.73-.37,1-.48a2.47,2.47,0,0,1,1.46-.19l.07,0s0,0,0,0,0,0,0,0l.1.11,0,0h0a.43.43,0,0,1,0,.07,1,1,0,0,1,.08.58,4,4,0,0,1-.54,1.58,5.16,5.16,0,0,1-1,1.27,6.2,6.2,0,0,1-2.44,1.34c-1.54.43-2.54.15-2.6.37s.18.26.64.45a5,5,0,0,0,2.15.29,6.79,6.79,0,0,0,3.25-1.13A6.38,6.38,0,0,0,61,65.28a3.41,3.41,0,0,0,0-1.67,2.67,2.67,0,0,0-.2-.46L60.7,63l0-.06,0,0-.06-.08-.09-.12a.91.91,0,0,0-.16-.19,2.39,2.39,0,0,0-.23-.22,1.8,1.8,0,0,0-.43-.29,3.61,3.61,0,0,0-1.79-.44,6.29,6.29,0,0,0-1.59.23,13.11,13.11,0,0,0-1.39.51A14.27,14.27,0,0,0,53.6,63a16.09,16.09,0,0,0-2.51,1.67,16.54,16.54,0,0,0-2.23,2.2,15.51,15.51,0,0,0-1,1.29c-.16.22-.29.46-.44.68l-.22.37c-.09.18-.2.37-.29.54a5,5,0,0,0-.52,4.34A3,3,0,0,0,48,75.56a6.92,6.92,0,0,0,2.3.42,6.46,6.46,0,0,0,1.24,0l.83,0c.55-.06,1.12-.08,1.66-.18s1.1-.18,1.63-.32A14.29,14.29,0,0,0,57.2,75a21.35,21.35,0,0,0,5.67-2.89,23,23,0,0,0,4.37-4.07,19.53,19.53,0,0,0,2.9-4.68A11.94,11.94,0,0,0,71.15,58.37Z"/><path class="cls-7" d="M81.38,50.3a6.8,6.8,0,0,1-3.37-1,10.83,10.83,0,0,1-3-2.74,25.06,25.06,0,0,1-4-8.46,30.31,30.31,0,0,1-.94-4.7,19,19,0,0,1,0-4.46,17.8,17.8,0,0,1,2.38-7.3,13.93,13.93,0,0,1,1.78-2.37,10.49,10.49,0,0,1,.85-.82,3.45,3.45,0,0,1,.63-.46l0,0a40.92,40.92,0,0,0-3.32-4.32,10.1,10.1,0,0,0-1,.84c-.43.4-.78.82-1.2,1.28A20,20,0,0,0,68,19.15a22.31,22.31,0,0,0-2.51,9.47,23.4,23.4,0,0,0,.39,5.45,33,33,0,0,0,1.44,5.26,27,27,0,0,0,5.38,9.28,13.06,13.06,0,0,0,4.16,3.08,9,9,0,0,0,4,.82c.22-.73.42-1.47.61-2.21Z"/><path class="cls-8" d="M67.22,8.74c-1-.75-1.94-1.46-3-2.13l0,.08a20.11,20.11,0,0,1-2.09,4.42,25.22,25.22,0,0,1-3,3.84,40.62,40.62,0,0,1-7.42,5.95,44.24,44.24,0,0,1-7.61,4,73,73,0,0,1-7,2.36c-2.12.63-4,1.16-5.53,1.64-3.08.94-4.77,1.68-4.72,1.85s1.85-.18,5-.77c1.57-.3,3.48-.65,5.67-1.11A64.72,64.72,0,0,0,44.82,27a36.5,36.5,0,0,0,4.09-1.62c1.39-.65,2.74-1.37,4.15-2.17a41.74,41.74,0,0,0,8.24-6A28.11,28.11,0,0,0,64.91,13,23.38,23.38,0,0,0,67.22,8.74Z"/><path class="cls-9" d="M73,27.89a7.46,7.46,0,0,0-.77,2.25,4.48,4.48,0,0,0-.09.64c0,.11,0,.22,0,.33v.26a7.37,7.37,0,0,0,0,1.05,11.41,11.41,0,0,0,1.13,4.13,15.9,15.9,0,0,0,1,1.89c.19.3.39.59.6.88l.17.24.25.32a6.2,6.2,0,0,0,.55.6,4,4,0,0,0,2.9,1.18,4.6,4.6,0,0,0,3-1.3,6.12,6.12,0,0,0,.85-1,40.44,40.44,0,0,0-1.81-10.81,20.24,20.24,0,0,1,0,2.58,19.46,19.46,0,0,1-.59,3.52c-.16.58-.35,1.16-.55,1.72a7.25,7.25,0,0,1-.3.71,1.77,1.77,0,0,1-.15.28.85.85,0,0,1-.51.35.69.69,0,0,1-.62-.18l-.13-.11-.06-.06-.14-.16-.56-.7a12.87,12.87,0,0,1-1-1.43A8.71,8.71,0,0,1,75,32.1c0-.25-.07-.5-.09-.74l0-.29v-.22a3.69,3.69,0,0,1,.12-.92,2.59,2.59,0,0,1,.38-.87,1.1,1.1,0,0,1,.76-.49,1.57,1.57,0,0,1,1.46.61,4,4,0,0,1,.51,1,7.74,7.74,0,0,1,.28,1,2,2,0,0,1-.26,1.6,1.48,1.48,0,0,1-.81.57c-.21.06-.39.05-.42.13s0,.22.39.32a1.71,1.71,0,0,0,1.47-.36,2.91,2.91,0,0,0,1-2.35,7.2,7.2,0,0,0-1-3.64,3.46,3.46,0,0,0-2.72-1.66,2.69,2.69,0,0,0-1.76.53A4.51,4.51,0,0,0,73,27.89Z"/><path class="cls-10" d="M9,18.92a8.9,8.9,0,0,0,2.67,3.49,15.78,15.78,0,0,0,3.65,2.17A30.18,30.18,0,0,0,19.38,26c1.42.38,2.84.7,4.38,1a32.61,32.61,0,0,0,4.91.55,28.81,28.81,0,0,0,10.56-1.72,45.59,45.59,0,0,0,9.87-5.06c1.56-1,3-2.11,4.56-3.28A10.42,10.42,0,0,0,56,15c.09-.14.16-.29.25-.45A5.05,5.05,0,0,0,56.5,14a4.66,4.66,0,0,0,0-3.42,5,5,0,0,0-1.36-1.84,7.16,7.16,0,0,0-1.58-1,13.56,13.56,0,0,0-3.07-.94,20,20,0,0,0-6-.16,29.33,29.33,0,0,0-10.59,3.49,28.44,28.44,0,0,0-4.38,3,13.41,13.41,0,0,0-2,1.9,5.63,5.63,0,0,0-1.29,2.8A4.16,4.16,0,0,0,27.09,21a3.8,3.8,0,0,0,1.28,1,4,4,0,0,0,.75.29,5.89,5.89,0,0,0,.67.16,11.15,11.15,0,0,0,2.21.15,20.26,20.26,0,0,1-3.11,0,38.49,38.49,0,0,1-8.1-1.59,23.71,23.71,0,0,1-3.33-1.24,10.25,10.25,0,0,1-2.4-1.48A3.58,3.58,0,0,1,14,16.92a2.72,2.72,0,0,1-.11-1.33,7.27,7.27,0,0,1,.37-1.53c.15-.49.33-.89.46-1.22.3-.65.49-1,.49-1s.17-.34.53-1a19.76,19.76,0,0,1,1.91-2.61s0,0,.05-.07A40.91,40.91,0,0,0,8.6,17.72,6.94,6.94,0,0,0,9,18.92Zm21.3,1.18a2.45,2.45,0,0,1-.41-.12l-.29-.13a1.39,1.39,0,0,1-.46-.41,1.54,1.54,0,0,1-.2-1.21c.16-.94,1.14-1.92,2.42-2.85a26.66,26.66,0,0,1,13.54-5.23,16.31,16.31,0,0,1,4.85.3,10,10,0,0,1,2.13.72,3.15,3.15,0,0,1,.7.49.85.85,0,0,1,.24.35.74.74,0,0,1,0,.39.64.64,0,0,1-.06.18l0,.09-.09.14a6.65,6.65,0,0,1-1.47,1.4c-1.41,1-2.89,2-4.36,2.93a46.37,46.37,0,0,1-5.72,3c.25-.14.51-.29.75-.45a6.65,6.65,0,0,0,1.37-1.22,5,5,0,0,0,.52-.75,3.38,3.38,0,0,0,.19-.39l.07-.17.05-.12,0-.11a1.62,1.62,0,0,0,0-1.19,1.59,1.59,0,0,0-.82-.76,3.9,3.9,0,0,0-1.47-.27,5.58,5.58,0,0,0-2.27.54,9.75,9.75,0,0,0-1.41.83c-.71.51-1,.85-1,.92s.48-.09,1.26-.42a10.91,10.91,0,0,1,1.44-.53,4.7,4.7,0,0,1,1.9-.22,2.79,2.79,0,0,1,1,.28c.13.07.17.16.15.15s0,0-.08.2a2.86,2.86,0,0,1-.3.52,2.83,2.83,0,0,1-.4.48,5.1,5.1,0,0,1-1.11.83,12.61,12.61,0,0,1-3.1,1.14,28.8,28.8,0,0,1-3.72.76A11.25,11.25,0,0,1,30.28,20.1Z"/><path class="cls-11" d="M28.3,39.06c.55.68.89,1.16.89,1.16s.37.45.88,1.16a26.61,26.61,0,0,1,1.7,2.71c.55,1,1,2.11,1.37,2.93a5.64,5.64,0,0,0,.61,1.36,4,4,0,0,0-.23-1.49,21.66,21.66,0,0,0-1.08-3.12,25,25,0,0,0-1.57-2.93c-.23-.39-.47-.69-.61-.91L30,39.58s-.38-.47-1-1.14a23.67,23.67,0,0,0-2.41-2.29,20.3,20.3,0,0,0-2.73-1.87,4.18,4.18,0,0,0-1.37-.62c0,.07.44.42,1.15,1a32.2,32.2,0,0,1,2.46,2.09A27.06,27.06,0,0,1,28.3,39.06Z"/><path class="cls-12" d="M21.53,47.45a9.47,9.47,0,0,1,1.18,1.49c.53.81.88,1.74,1,1.71a3.48,3.48,0,0,0-.36-2,8.8,8.8,0,0,0-1-1.83,8.77,8.77,0,0,0-1.65-1.32c-.9-.55-1.91-.81-2-.67s.82.62,1.53,1.27A10.35,10.35,0,0,1,21.53,47.45Z"/><path class="cls-13" d="M17,58.75c-.51-1.33-.1-2.93-.27-2.94s-.24.33-.39.92a4.62,4.62,0,0,0,0,2.24,3.88,3.88,0,0,0,1.24,2,3.92,3.92,0,0,0,.9.61,3.65,3.65,0,0,0,1.06.28,3.82,3.82,0,0,0,2.31-.46,3.87,3.87,0,0,0,1.57-1.64c.27-.55.27-1,.21-1s-.21.34-.56.77a3.74,3.74,0,0,1-1.55,1.18,3,3,0,0,1-1.82.18,3.14,3.14,0,0,1-.79-.28,3.49,3.49,0,0,1-.73-.4A3.37,3.37,0,0,1,17,58.75Z"/><path class="cls-14" d="M26.9,3.18c-.59.41-1.08.76-1.41,1L25,4.61l-.49.45c-.32.27-.75.7-1.25,1.22a16.68,16.68,0,0,0-3,4.35,6.47,6.47,0,0,0-.56,2.84,4.69,4.69,0,0,0,.81,2.39A3.35,3.35,0,0,0,21.79,17c.39.17.64.19.64.16s-.21-.13-.54-.34a3.73,3.73,0,0,1-1.1-1.2,4.38,4.38,0,0,1-.57-2.18,6.12,6.12,0,0,1,.65-2.52,16.34,16.34,0,0,1,3.05-4c.5-.48.92-.88,1.23-1.13l.49-.41L26.13,5c.3-.26.76-.61,1.32-1a34.76,34.76,0,0,1,4.21-2.6,39.8,39.8,0,0,0-3.88,1.24Z"/><path class="cls-15" d="M46.75,12.53s.19,0,.27-.28a.7.7,0,0,0-.06-.46.82.82,0,0,0-.44-.42,3.41,3.41,0,0,0-1.35-.14c-.47,0-1,.06-1.47.13A17.52,17.52,0,0,0,41,12c-.72.24-1.19.42-1.19.42s-.46.21-1.12.55a23.92,23.92,0,0,0-2.38,1.38,7.51,7.51,0,0,0-2,1.93c-.43.64-.53,1.16-.47,1.18s.3-.41.79-.93A8.41,8.41,0,0,1,36.71,15c.83-.46,1.73-.85,2.4-1.14s1.12-.45,1.12-.45a20.14,20.14,0,0,1,3.61-1.3c.46-.12.94-.21,1.38-.28a3.4,3.4,0,0,1,1.16-.06.54.54,0,0,1,.43.48C46.82,12.4,46.73,12.5,46.75,12.53Z"/><path class="cls-16" d="M28.52,9.35c.94-.82,1.95-1.55,1.95-1.55s.92-.83,1.92-1.58,2.07-1.43,2-1.56A6.34,6.34,0,0,0,32,5.6,22.65,22.65,0,0,0,29.81,7,21.62,21.62,0,0,0,28,8.83,6.17,6.17,0,0,0,26.57,11C26.68,11.06,27.57,10.16,28.52,9.35Z"/><path class="cls-17" d="M34.92,32.86c-.12-.08-.78.77-1.23,1.75a10.92,10.92,0,0,0-.69,2,10.84,10.84,0,0,0,0,2.17,4,4,0,0,0,.59,2.06,10.17,10.17,0,0,0,.14-2.07,14.55,14.55,0,0,1,.31-2,14.41,14.41,0,0,1,.36-2C34.63,33.88,35.05,32.93,34.92,32.86Z"/><path class="cls-18" d="M67.18,71.48l-1.25,1.31-.68,1c.9-.63,1.77-1.3,2.62-2,.44-.72.8-1.42.7-1.5S67.81,70.82,67.18,71.48Z"/><path class="cls-19" d="M62.15,5.79a5.21,5.21,0,0,1-.25,2s.18-.14.35-.48a3.31,3.31,0,0,0,.31-1.55c0-.07,0-.15,0-.22L62,5.25A3.7,3.7,0,0,1,62.15,5.79Z"/><path class="cls-20" d="M40.43,3.74a12.84,12.84,0,0,0,2-.72A30.09,30.09,0,0,1,46.8,1.75a28.61,28.61,0,0,1,4.52-.55h.49c-1-.24-2-.46-3-.63-.7.13-1.43.28-2.16.47a24.26,24.26,0,0,0-4.38,1.62A7,7,0,0,0,40.43,3.74Z"/><path class="cls-21" d="M11.92,28.42c0,.29,3.63.78,3.63.78s3.67,0,3.69-.27-3.62-.77-3.62-.77S11.94,28.13,11.92,28.42Z"/><path class="cls-22" d="M67.85,12.69a19.1,19.1,0,0,0-2.25,2.9c-.53.84-.84,1.44-.84,1.44s-.29.61-.64,1.54a24.8,24.8,0,0,0-1,3.5,16.93,16.93,0,0,0-.48,5.24c.15,0,.46-2.58,1.2-5.06A27.48,27.48,0,0,1,65,18.93c.39-.87.69-1.44.69-1.44s.26-.58.73-1.41a19.91,19.91,0,0,1,2-2.9,18.7,18.7,0,0,1,1.77-1.86L69.79,11A16,16,0,0,0,67.85,12.69Z"/><path class="cls-23" d="M48,29c0,.07.43-.12,1-.38a17.22,17.22,0,0,1,2.17-.78,14,14,0,0,1,2.24-.41c.62-.06,1-.07,1-.07s.41,0,1-.05a13.56,13.56,0,0,1,2.28.13A16.34,16.34,0,0,1,60,28c.61.19,1,.33,1,.26s-.31-.32-.89-.63a10.59,10.59,0,0,0-2.26-.86,13,13,0,0,0-2.4-.37c-.67,0-1.11,0-1.11,0s-.45,0-1.1.16a13.52,13.52,0,0,0-2.35.66,11.34,11.34,0,0,0-2.13,1.12C48.22,28.64,47.91,29,48,29Z"/><path class="cls-24" d="M60.63,46.74a21.31,21.31,0,0,0,1.62-2c.41-.58.65-1,.65-1a11.69,11.69,0,0,0,.5-1.08,11.86,11.86,0,0,0,.72-2.5,8.5,8.5,0,0,0,0-2.6,2.23,2.23,0,0,0-.34-1.12c-.08,0,0,.47-.06,1.15A11,11,0,0,1,63.4,40a12,12,0,0,1-.88,2.26c-.3.6-.53,1-.53,1s-.2.4-.54,1a22.7,22.7,0,0,1-1.39,2,24.24,24.24,0,0,0-2.18,3A13,13,0,0,0,60.63,46.74Z"/><path class="cls-25" d="M55.16,78.78a21.51,21.51,0,0,1-4.52.75,7.83,7.83,0,0,1-1.45-.1,3.76,3.76,0,0,1-.53-.11s-.19,0-.52-.14a5.82,5.82,0,0,1-1.3-.58,6.75,6.75,0,0,1-2.78-3.31,7.46,7.46,0,0,1-.19-4.43c.31-1.21.78-1.94.7-2a4.44,4.44,0,0,0-1.09,1.87,7.57,7.57,0,0,0-.11,4.79,7.36,7.36,0,0,0,3,3.88,7.23,7.23,0,0,0,1.49.74l.6.19s.21,0,.58.1a40.38,40.38,0,0,0,6.87-1.83Z"/><path class="cls-26" d="M71,51.18a9.19,9.19,0,0,1,1.6,3.58,11.84,11.84,0,0,1,.19,1.29l0,.5a11.17,11.17,0,0,1,0,1.81,15.74,15.74,0,0,1-.76,4c-.9,2.82-2.47,5.43-2.33,5.51a18.59,18.59,0,0,0,3-5.27,16,16,0,0,0,1-4.12,11.27,11.27,0,0,0,.05-2s0-.2-.05-.54a10.66,10.66,0,0,0-.28-1.4,9.42,9.42,0,0,0-2-3.82,8.2,8.2,0,0,0-3.51-2.41,3.58,3.58,0,0,0-1.9-.24c0,.08.75.16,1.76.62A8.33,8.33,0,0,1,71,51.18Z"/><path class="cls-27" d="M34.37,80.14a11.3,11.3,0,0,1-.67-2.27c-.22-1.18-.13-2.41-.27-2.44A4.58,4.58,0,0,0,33,77.94a9.57,9.57,0,0,0,.3,2.12l1.15.23Z"/><path class="cls-28" d="M73.5,25c.12.07.76-.72,1.47-1.42a19.61,19.61,0,0,1,1.48-1.32s.53-.56,1.18-1.12l-.38-.7a13,13,0,0,0-1.51,1.05,13.75,13.75,0,0,0-1.34,1.62C73.8,23.92,73.37,24.88,73.5,25Z"/><path class="cls-29" d="M44.89,53.19a4.84,4.84,0,0,0,2.38-.42,15.13,15.13,0,0,0-2.33-.31,15.4,15.4,0,0,1-2.21-.52,15.91,15.91,0,0,1-2.19-.62,15.22,15.22,0,0,0-2.19-.84c-.09.11.81.92,1.88,1.51a11.65,11.65,0,0,0,2.24,1A12.12,12.12,0,0,0,44.89,53.19Z"/><path class="cls-30" d="M74.85,62.61a18.4,18.4,0,0,1-.65,2c-.16.42-.33.83-.5,1.21.69-.86,1.35-1.75,2-2.66,0-.1.07-.2.1-.28.21-.58.31-1,.31-1a11.6,11.6,0,0,0,.19-3.26,5.58,5.58,0,0,0-1-3.07c-.12,0,.34,1.56.26,3.09a12.38,12.38,0,0,1-.46,3S75,62.06,74.85,62.61Z"/><path class="cls-31" d="M82,45.42a6.25,6.25,0,0,1-1-.07,7,7,0,0,1-1-.12,8.64,8.64,0,0,1-2.13-.68,21.71,21.71,0,0,1-2.78-1.86,5.66,5.66,0,0,0,2.43,2.5,8.4,8.4,0,0,0,3.38,1.2,7.72,7.72,0,0,0,1.13,0h.16c0-.32.1-.63.14-.95Z"/><path class="cls-32" d="M21.68,75.38a14.48,14.48,0,0,0,5.11-1.74A20.39,20.39,0,0,0,29.21,72a19,19,0,0,0,1.87-1.71A15.85,15.85,0,0,0,32.28,69l.42-.54.39-.56c.24-.36.57-.88.93-1.52a31.46,31.46,0,0,0,2.21-4.92,47.25,47.25,0,0,0,1.45-5.15,10.7,10.7,0,0,0,.39-2.4c-.16-.05-1.08,3.73-2.53,7.29a31.9,31.9,0,0,1-2.35,4.69c-.37.61-.7,1.09-.95,1.43l-.38.53-.39.52a16.63,16.63,0,0,1-1.09,1.32,19.86,19.86,0,0,1-1.72,1.69A20.25,20.25,0,0,1,26.42,73a15.1,15.1,0,0,1-4.81,2L21,75.1l.5.3Z"/><path class="cls-33" d="M35.12,66.44a32.34,32.34,0,0,0-1.33,3.14,10.51,10.51,0,0,0-.85,3.3,22.67,22.67,0,0,0,1.52-3c.74-1.5,1.58-2.94,1.58-2.94s.73-1.5,1.56-3a20.3,20.3,0,0,0,1.63-3A10.87,10.87,0,0,0,37,63.58,33.48,33.48,0,0,0,35.12,66.44Z"/><path class="cls-34" d="M6.79,58.23a3,3,0,0,0-.34,1.3c0,.07,0,.15,0,.21.17.32.33.63.51.94C6.8,59.33,6.89,58.24,6.79,58.23Z"/><path class="cls-35" d="M6,35.37c.46-.22.87-.35,1.14-.47l.43-.18.44-.17c.28-.09.67-.28,1.16-.42a24.25,24.25,0,0,1,3.63-.91,27.06,27.06,0,0,1,3.76-.3,7.5,7.5,0,0,0,1.74-.05,5.42,5.42,0,0,0-1.72-.35,20.51,20.51,0,0,0-3.87,0,23.2,23.2,0,0,0-3.83.72c-.51.13-.93.3-1.22.39l-.47.15-.44.2c-.28.14-.7.3-1.17.56a23.26,23.26,0,0,0-3.29,2.08l-.6.5c0,.19,0,.38-.05.58s0,.21,0,.32c.36-.27.72-.54,1.1-.8A25.7,25.7,0,0,1,6,35.37Z"/><path class="cls-36" d="M9.9,47a9.35,9.35,0,0,1,1.7-1.54,29.16,29.16,0,0,1,3-1.61,6.14,6.14,0,0,0-3.41,1,9.46,9.46,0,0,0-2,1.49,8.08,8.08,0,0,0-.78.85,8.6,8.6,0,0,0-.59,1A9.31,9.31,0,0,0,7,50.49,6.15,6.15,0,0,0,7,54a28.62,28.62,0,0,1,.7-3.34,10.15,10.15,0,0,1,1-2.06,7.5,7.5,0,0,1,.6-.83A6.81,6.81,0,0,1,9.9,47Z"/><path class="cls-37" d="M15.36,70.92s-.06-.07-.17-.12l.15.13Z"/><path class="cls-38" d="M5,27.79a28.85,28.85,0,0,1,3.1-.37,20.66,20.66,0,0,0,3.17-.21,9.21,9.21,0,0,0-3.18-.53,22.24,22.24,0,0,0-3.23.07s-.37.07-.91.2c-.13.34-.25.68-.36,1C4.38,27.84,5,27.79,5,27.79Z"/><path class="cls-39" d="M20.43,31.88a1.11,1.11,0,0,1,.16-2.22,1.11,1.11,0,0,1-.16,2.22Zm4.15,1.35A1.11,1.11,0,0,0,24.73,31a1.11,1.11,0,0,0-.15,2.21Zm9.26,22.19A1.11,1.11,0,0,0,34,53.21a1.11,1.11,0,0,0-.16,2.21Zm-.7,4.89a1.11,1.11,0,0,0,.16-2.21,1.11,1.11,0,0,0-.16,2.21Zm-1.41,5.08a1.11,1.11,0,0,0,.15-2.21,1.11,1.11,0,0,0-.15,2.21ZM40.58,6.58a1.11,1.11,0,0,0,.15-2.22,1.11,1.11,0,0,0-.15,2.22ZM47.64,5a1.11,1.11,0,0,0,.15-2.22A1.11,1.11,0,0,0,47.64,5ZM54,6.23A1.11,1.11,0,0,0,54.17,4,1.11,1.11,0,0,0,54,6.23Zm4.43,4A1.11,1.11,0,0,0,58.6,8a1.11,1.11,0,0,0-.15,2.21Zm7.08,33.1a1.11,1.11,0,0,0,.16-2.21,1.11,1.11,0,0,0-.16,2.21Zm2.39,4.52a1.11,1.11,0,0,0,.16-2.21,1.11,1.11,0,0,0-.16,2.21ZM62.85,61.35A1.11,1.11,0,0,0,63,59.13a1.11,1.11,0,0,0-.16,2.22Zm-5.13-.72a1.11,1.11,0,0,0,.16-2.21,1.11,1.11,0,0,0-.16,2.21ZM34.62,76.19A1.11,1.11,0,0,0,34.77,74a1.11,1.11,0,0,0-.15,2.21Zm.69,3.58a1.11,1.11,0,0,0,.15-2.21,1.11,1.11,0,0,0-.15,2.21ZM4.52,50.65a1.11,1.11,0,0,0,.15-2.21,1.11,1.11,0,0,0-.15,2.21Zm3-4.5a1.11,1.11,0,0,0,.16-2.21,1.11,1.11,0,0,0-.16,2.21ZM12,43.52a1.11,1.11,0,0,0,.16-2.21A1.11,1.11,0,0,0,12,43.52Zm5.26,10.61a1.11,1.11,0,0,0,.15-2.21,1.11,1.11,0,0,0-.15,2.21ZM57.74,25.32a1.11,1.11,0,0,0,.15-2.21,1.11,1.11,0,0,0-.15,2.21Zm2.79-2.86a1.11,1.11,0,0,0,.15-2.21,1.11,1.11,0,0,0-.15,2.21Zm-53,2.39a1.11,1.11,0,0,0,.16-2.22,1.11,1.11,0,0,0-.16,2.22Zm4.1,1.93a1.11,1.11,0,0,0,.16-2.21,1.11,1.11,0,0,0-.16,2.21ZM75,54.6a1.11,1.11,0,0,0,.16-2.21A1.11,1.11,0,0,0,75,54.6Zm3.25,1.71a1.11,1.11,0,0,0,.16-2.21,1.11,1.11,0,0,0-.16,2.21Z"/><path class="cls-40" d="M68.68,10A35.6,35.6,0,1,1,2.11,34c-.19,1.21-.35,2.44-.43,3.69A40.51,40.51,0,1,0,68.68,10Z"/><g class="cls-2"><path class="cls-41" d="M79.93,29.75a36.57,36.57,0,0,1,.81,10.65c-1.48,21-20.44,36.78-42.35,35.23C21.46,74.44,7.73,63.27,3,48.57,6.68,64.78,21.13,77.48,39.23,78.76,61.15,80.3,80.11,64.53,81.59,43.52A37,37,0,0,0,79.93,29.75Z"/></g><path class="cls-42" d="M7.09,41.34A37.54,37.54,0,0,1,75.31,22.47a37.54,37.54,0,1,0-63.9,39.15A37.38,37.38,0,0,1,7.09,41.34Z"/><path class="cls-43" d="M61.79,22.58a14.13,14.13,0,0,1-3,1.26C54.55,25,50,24.9,46,26.53c-4.53,1.84-7.92,5.68-10.89,9.55s-5.78,8-9.75,10.87-9.46,4.2-13.77,1.88C.09,42.65,8.43,24.5,14.46,17.35A36.34,36.34,0,0,1,44.6,4.59C49.69,5,54.21,6.5,58.91,8.33a13.08,13.08,0,0,1,6.92,6.09C67.62,18.07,65,20.81,61.79,22.58Z"/><path class="cls-44" d="M25.2,17.66c1.82,1.51,1,5.45-1.76,8.82s-6.52,4.86-8.33,3.36-1-5.45,1.76-8.82S23.39,16.16,25.2,17.66Z"/><path class="cls-45" d="M34.46,11.19c.56,1.18-.73,3-2.9,4s-4.39,1-5-.22.74-3,2.9-4S33.89,10,34.46,11.19Z"/></g></g></g></svg>