<svg xmlns="http://www.w3.org/2000/svg" xmlns:xlink="http://www.w3.org/1999/xlink" viewBox="0 0 80.21 78.68"><defs><style>.cls-1{isolation:isolate;}.cls-2{fill:url(#radial-gradient);}.cls-3{fill:url(#radial-gradient-2);}.cls-4{fill:url(#radial-gradient-3);}.cls-5{fill:url(#radial-gradient-4);}.cls-6{fill:url(#radial-gradient-5);}.cls-7{fill:url(#radial-gradient-6);}.cls-8{fill:url(#radial-gradient-7);}.cls-9{fill:url(#radial-gradient-8);}.cls-10,.cls-11,.cls-12,.cls-13,.cls-14,.cls-15,.cls-16,.cls-17,.cls-18,.cls-19,.cls-20,.cls-21,.cls-22,.cls-23,.cls-24,.cls-25,.cls-26,.cls-27,.cls-28,.cls-29,.cls-30,.cls-31,.cls-32,.cls-33,.cls-34,.cls-35,.cls-36,.cls-37,.cls-38,.cls-39,.cls-41{mix-blend-mode:multiply;}.cls-10{fill:url(#radial-gradient-9);}.cls-11{fill:url(#radial-gradient-10);}.cls-12{fill:url(#radial-gradient-11);}.cls-13{fill:url(#radial-gradient-12);}.cls-14{fill:url(#radial-gradient-13);}.cls-15{fill:url(#radial-gradient-14);}.cls-16{fill:url(#radial-gradient-15);}.cls-17{fill:url(#radial-gradient-16);}.cls-18{fill:url(#radial-gradient-17);}.cls-19{fill:url(#radial-gradient-18);}.cls-20{fill:url(#radial-gradient-19);}.cls-21{fill:url(#radial-gradient-20);}.cls-22{fill:url(#radial-gradient-21);}.cls-23{fill:url(#radial-gradient-22);}.cls-24{fill:url(#radial-gradient-23);}.cls-25{fill:url(#radial-gradient-24);}.cls-26{fill:url(#radial-gradient-25);}.cls-27{fill:url(#radial-gradient-26);}.cls-28{fill:url(#radial-gradient-27);}.cls-29{fill:url(#radial-gradient-28);}.cls-30{fill:url(#radial-gradient-29);}.cls-31{fill:url(#radial-gradient-30);}.cls-32{fill:url(#radial-gradient-31);}.cls-33{fill:url(#radial-gradient-32);}.cls-34{fill:url(#radial-gradient-33);}.cls-35{fill:url(#radial-gradient-34);}.cls-36{fill:url(#radial-gradient-35);}.cls-37{fill:url(#radial-gradient-36);}.cls-38{fill:url(#radial-gradient-37);}.cls-39{fill:url(#radial-gradient-38);}.cls-40,.cls-42,.cls-43,.cls-44,.cls-45{mix-blend-mode:screen;}.cls-41{fill:url(#radial-gradient-39);}.cls-42{fill:url(#radial-gradient-40);}.cls-43{fill:url(#radial-gradient-41);}.cls-44{fill:url(#radial-gradient-42);}.cls-45{fill:url(#radial-gradient-43);}</style><radialGradient id="radial-gradient" cx="65.59" cy="-152.77" r="71.1" gradientTransform="matrix(0.92, 0.4, -0.4, 0.92, -74.09, 126.34)" gradientUnits="userSpaceOnUse"><stop offset="0.08" stop-color="#28dbf1"/><stop offset="1" stop-color="#1bc1b5"/></radialGradient><radialGradient id="radial-gradient-2" cx="50.77" cy="-180.81" r="108.81" gradientTransform="translate(-38.61 159.62) rotate(4.03)" gradientUnits="userSpaceOnUse"><stop offset="0" stop-color="#eee38e"/><stop offset="0.94" stop-color="#dfec5e"/></radialGradient><radialGradient id="radial-gradient-3" cx="50.77" cy="-180.81" r="108.81" xlink:href="#radial-gradient-2"/><radialGradient id="radial-gradient-4" cx="50.76" cy="-180.81" r="108.81" xlink:href="#radial-gradient-2"/><radialGradient id="radial-gradient-5" cx="50.77" cy="-180.81" r="108.81" xlink:href="#radial-gradient-2"/><radialGradient id="radial-gradient-6" cx="50.77" cy="-180.81" r="108.81" xlink:href="#radial-gradient-2"/><radialGradient id="radial-gradient-7" cx="50.77" cy="-180.81" r="108.81" xlink:href="#radial-gradient-2"/><radialGradient id="radial-gradient-8" cx="50.77" cy="-180.81" r="108.81" xlink:href="#radial-gradient-2"/><radialGradient id="radial-gradient-9" cx="59.57" cy="-166.36" r="78.65" gradientTransform="translate(-38.61 159.62) rotate(4.03)" xlink:href="#radial-gradient"/><radialGradient id="radial-gradient-10" cx="59.57" cy="-166.36" r="78.65" gradientTransform="translate(-38.61 159.62) rotate(4.03)" xlink:href="#radial-gradient"/><radialGradient id="radial-gradient-11" cx="59.57" cy="-166.36" r="78.65" gradientTransform="translate(-38.61 159.62) rotate(4.03)" xlink:href="#radial-gradient"/><radialGradient id="radial-gradient-12" cx="59.57" cy="-166.36" r="78.65" gradientTransform="translate(-38.61 159.62) rotate(4.03)" xlink:href="#radial-gradient"/><radialGradient id="radial-gradient-13" cx="59.57" cy="-166.36" r="78.65" gradientTransform="translate(-38.61 159.62) rotate(4.03)" xlink:href="#radial-gradient"/><radialGradient id="radial-gradient-14" cx="59.57" cy="-166.36" r="78.65" gradientTransform="translate(-38.61 159.62) rotate(4.03)" xlink:href="#radial-gradient"/><radialGradient id="radial-gradient-15" cx="59.57" cy="-166.36" r="78.65" gradientTransform="translate(-38.61 159.62) rotate(4.03)" xlink:href="#radial-gradient"/><radialGradient id="radial-gradient-16" cx="59.57" cy="-166.36" r="78.65" gradientTransform="translate(-38.61 159.62) rotate(4.03)" xlink:href="#radial-gradient"/><radialGradient id="radial-gradient-17" cx="59.57" cy="-166.36" r="78.65" gradientTransform="translate(-38.61 159.62) rotate(4.03)" xlink:href="#radial-gradient"/><radialGradient id="radial-gradient-18" cx="59.57" cy="-166.36" r="78.65" gradientTransform="translate(-38.61 159.62) rotate(4.03)" xlink:href="#radial-gradient"/><radialGradient id="radial-gradient-19" cx="59.57" cy="-166.36" r="78.65" gradientTransform="translate(-38.61 159.62) rotate(4.03)" xlink:href="#radial-gradient"/><radialGradient id="radial-gradient-20" cx="59.57" cy="-166.36" r="78.65" gradientTransform="translate(-38.61 159.62) rotate(4.03)" xlink:href="#radial-gradient"/><radialGradient id="radial-gradient-21" cx="59.57" cy="-166.36" r="78.65" gradientTransform="translate(-38.61 159.62) rotate(4.03)" xlink:href="#radial-gradient"/><radialGradient id="radial-gradient-22" cx="59.57" cy="-166.36" r="78.65" gradientTransform="translate(-38.61 159.62) rotate(4.03)" xlink:href="#radial-gradient"/><radialGradient id="radial-gradient-23" cx="59.57" cy="-166.36" r="78.65" gradientTransform="translate(-38.61 159.62) rotate(4.03)" xlink:href="#radial-gradient"/><radialGradient id="radial-gradient-24" cx="59.57" cy="-166.36" r="78.65" gradientTransform="translate(-38.61 159.62) rotate(4.03)" xlink:href="#radial-gradient"/><radialGradient id="radial-gradient-25" cx="59.57" cy="-166.36" r="78.65" gradientTransform="translate(-38.61 159.62) rotate(4.03)" xlink:href="#radial-gradient"/><radialGradient id="radial-gradient-26" cx="59.57" cy="-166.36" r="78.65" gradientTransform="translate(-38.61 159.62) rotate(4.03)" xlink:href="#radial-gradient"/><radialGradient id="radial-gradient-27" cx="59.57" cy="-166.37" r="78.66" gradientTransform="translate(-38.61 159.62) rotate(4.03)" xlink:href="#radial-gradient"/><radialGradient id="radial-gradient-28" cx="59.57" cy="-166.36" r="78.65" gradientTransform="translate(-38.61 159.62) rotate(4.03)" xlink:href="#radial-gradient"/><radialGradient id="radial-gradient-29" cx="59.57" cy="-166.36" r="78.65" gradientTransform="translate(-38.61 159.62) rotate(4.03)" xlink:href="#radial-gradient"/><radialGradient id="radial-gradient-30" cx="59.57" cy="-166.36" r="78.65" gradientTransform="translate(-38.61 159.62) rotate(4.03)" xlink:href="#radial-gradient"/><radialGradient id="radial-gradient-31" cx="59.57" cy="-166.36" r="78.65" gradientTransform="translate(-38.61 159.62) rotate(4.03)" xlink:href="#radial-gradient"/><radialGradient id="radial-gradient-32" cx="59.57" cy="-166.36" r="78.65" gradientTransform="translate(-38.61 159.62) rotate(4.03)" xlink:href="#radial-gradient"/><radialGradient id="radial-gradient-33" cx="59.57" cy="-166.36" r="78.65" gradientTransform="translate(-38.61 159.62) rotate(4.03)" xlink:href="#radial-gradient"/><radialGradient id="radial-gradient-34" cx="59.57" cy="-166.36" r="78.65" gradientTransform="translate(-38.61 159.62) rotate(4.03)" xlink:href="#radial-gradient"/><radialGradient id="radial-gradient-35" cx="59.57" cy="-166.36" r="78.65" gradientTransform="translate(-38.61 159.62) rotate(4.03)" xlink:href="#radial-gradient"/><radialGradient id="radial-gradient-36" cx="59.57" cy="-166.36" r="78.65" gradientTransform="translate(-38.61 159.62) rotate(4.03)" xlink:href="#radial-gradient"/><radialGradient id="radial-gradient-37" cx="71.06" cy="-124.81" r="37.35" gradientTransform="translate(-38.61 159.62) rotate(4.03)" xlink:href="#radial-gradient"/><radialGradient id="radial-gradient-38" cx="65.59" cy="-146.08" r="66.25" gradientTransform="translate(-38.61 159.62) rotate(4.03)" xlink:href="#radial-gradient"/><radialGradient id="radial-gradient-39" cx="38.51" cy="-105.76" r="55.79" gradientTransform="matrix(0.98, 0.07, -0.07, 0.94, -7.92, 130.4)" xlink:href="#radial-gradient"/><radialGradient id="radial-gradient-40" cx="63.62" cy="-153.25" r="55.99" gradientTransform="translate(-38.61 159.62) rotate(4.03)" xlink:href="#radial-gradient"/><radialGradient id="radial-gradient-41" cx="52.2" cy="-161.2" r="53.14" gradientTransform="translate(-38.61 159.62) rotate(4.03)" gradientUnits="userSpaceOnUse"><stop offset="0.08" stop-color="#ff4587"/><stop offset="0.53" stop-color="#0090de"/><stop offset="1" stop-color="#9027e3"/></radialGradient><radialGradient id="radial-gradient-42" cx="54.31" cy="-1451.45" r="21.54" gradientTransform="translate(1087 991.57) rotate(-50.33)" xlink:href="#radial-gradient-2"/><radialGradient id="radial-gradient-43" cx="-88.32" cy="-863.56" r="11.88" gradientTransform="matrix(0.9, -0.44, 0.44, 0.9, 477.88, 748.03)" xlink:href="#radial-gradient-2"/></defs><title>time</title><g class="cls-1"><g id="OBJECTS"><circle class="cls-2" cx="40.87" cy="39.34" r="39.34" transform="translate(-10.76 15.83) rotate(-19.43)"/><path class="cls-3" d="M41.49,30c.76-.83,1.28-1.28,1.18-1.46s-.79,0-1.86.62a11.11,11.11,0,0,0-3.65,3.62,12.73,12.73,0,0,0-2,7.24,11,11,0,0,0,1,4.36,9.15,9.15,0,0,0,3.22,3.7,11.35,11.35,0,0,0,9.24,1.23,16.62,16.62,0,0,0,6.81-4A19.15,19.15,0,0,0,59,41a14,14,0,0,0,1-2s.07-.2.17-.58a10.42,10.42,0,0,0,.35-1.7,10.64,10.64,0,0,0,0-2.78,6.65,6.65,0,0,0-.19-1,5.53,5.53,0,0,0-.47-1.2A5,5,0,0,0,57.9,29.8a8.22,8.22,0,0,0-2.06-.8,10,10,0,0,0-2.13-.33,11.82,11.82,0,0,0-4.42.66,12.39,12.39,0,0,0-4,2.34,14.46,14.46,0,0,0-2.94,3.51,15.58,15.58,0,0,0-1,2,16.82,16.82,0,0,0-.78,2.11,8.65,8.65,0,0,0-.24,1.23,4.53,4.53,0,0,0,0,.76,5,5,0,0,0,.08.77,3.77,3.77,0,0,0,1.57,2.44,4.45,4.45,0,0,0,1.28.62,6.48,6.48,0,0,0,1.19.25,6.14,6.14,0,0,0,2.25-.23,6.24,6.24,0,0,0,3.22-2.2,5.51,5.51,0,0,0,.83-1.54,4.24,4.24,0,0,0,.22-1.63,2.19,2.19,0,0,0-.23-.84,2,2,0,0,0-.52-.65,2,2,0,0,0-1.27-.47,1.65,1.65,0,0,0-1.48.85c-.17.34-.12.56,0,.58s.22-.09.46-.22a1.15,1.15,0,0,1,.94-.13.88.88,0,0,1,.44.35.57.57,0,0,1,.1.25,1.07,1.07,0,0,1,0,.31,2.81,2.81,0,0,1-.34.88,3.57,3.57,0,0,1-.69.88A4.1,4.1,0,0,1,46,42.6a3.14,3.14,0,0,1-1.26,0,3.47,3.47,0,0,1-.57-.19,1.64,1.64,0,0,1-.36-.25,1,1,0,0,1-.31-.72,1.11,1.11,0,0,1,0-.19,2,2,0,0,1,0-.22,4.59,4.59,0,0,1,.21-.67,15.71,15.71,0,0,1,.76-1.55,16.29,16.29,0,0,1,1-1.48,9.51,9.51,0,0,1,5.13-3.69,7,7,0,0,1,2.7-.19,5.09,5.09,0,0,1,1.15.26,3.85,3.85,0,0,1,.83.39.19.19,0,0,1,0,.1.06.06,0,0,1,0,0l0,.26a5.65,5.65,0,0,1-.11,1.42,6.7,6.7,0,0,1-.25.94c-.08.22-.13.33-.13.33a8.83,8.83,0,0,1-.53,1.32A14.41,14.41,0,0,1,52,41.81a12.33,12.33,0,0,1-4.65,3.26,7.38,7.38,0,0,1-5.91-.23,6.62,6.62,0,0,1-3.24-5.06,10.89,10.89,0,0,1,.83-6A13.69,13.69,0,0,1,41.49,30Z"/><path class="cls-4" d="M17.07,66.55a8.74,8.74,0,0,0,5.87.15,10.47,10.47,0,0,0,4.35-2.63,11.57,11.57,0,0,0,2.37-3.55,14.31,14.31,0,0,0,.91-3,19.05,19.05,0,0,0,.26-1.95l0-.69v-.68c0-.44-.06-1.09-.17-1.89a23.86,23.86,0,0,0-1.79-6.36,21.24,21.24,0,0,0-5.46-7.56,15.38,15.38,0,0,0-4.66-2.88,10,10,0,0,0-3-.61,10.88,10.88,0,0,0-3,.28A21.57,21.57,0,0,0,3.73,40a23,23,0,0,0-2.1,2.09c.08,1.17.22,2.32.4,3.47a23.83,23.83,0,0,1,3.59-3.21A21.06,21.06,0,0,1,9.4,40.2a17.11,17.11,0,0,1,4.17-1.28,7.43,7.43,0,0,1,1.93-.05,6.12,6.12,0,0,1,1.72.5,11.45,11.45,0,0,1,3.18,2.3,16.93,16.93,0,0,1,3.89,6.15,19.22,19.22,0,0,1,1.13,5.06c.06.62,0,1.09.06,1.42l0,.49v.49a12,12,0,0,1-.11,1.34,8.82,8.82,0,0,1-.47,2,6.47,6.47,0,0,1-1.18,2.06,5.87,5.87,0,0,1-2.26,1.57,4.27,4.27,0,0,1-2.79.16,4.76,4.76,0,0,1-2.44-2.08,13.59,13.59,0,0,1-1-1.86c-.31-.68-.62-1.43-.88-2.12a10.32,10.32,0,0,1-.8-4,4.55,4.55,0,0,1,1.26-3.13,2.89,2.89,0,0,1,2.71-.78,3.72,3.72,0,0,1,2.09,2,5.07,5.07,0,0,1,.5,2.73,4.4,4.4,0,0,1-.8,2c-.76,1-1.57,1.34-1.5,1.54s.25.13.66.05a3.87,3.87,0,0,0,1.62-.83,5,5,0,0,0,1.59-2.46,6.46,6.46,0,0,0-.11-3.83,6.74,6.74,0,0,0-1.05-2A5.31,5.31,0,0,0,18.43,46a5.12,5.12,0,0,0-2.87-.34,6.26,6.26,0,0,0-2.69,1.16,7.66,7.66,0,0,0-2.77,5.14,13.55,13.55,0,0,0,.59,5.55c.24.86.51,1.64.82,2.47a17,17,0,0,0,1.13,2.48A9,9,0,0,0,17.07,66.55Z"/><path class="cls-5" d="M69.09,56.68a8.53,8.53,0,0,0-1.17-4.18,6.75,6.75,0,0,0-2.26-2.26,6.1,6.1,0,0,0-1-.5,5.64,5.64,0,0,0-1-.3A9.62,9.62,0,0,0,61,49.25a18,18,0,0,0-3.48.62,36.41,36.41,0,0,0-4,1.31,30.65,30.65,0,0,0-9.12,5.46,25.22,25.22,0,0,0-7,10,17,17,0,0,0-1.2,6.29,9.07,9.07,0,0,0,.72,3.34,8.49,8.49,0,0,0,1.5,2.32,40.49,40.49,0,0,0,4.8,0,7.78,7.78,0,0,1-2.23-1.69,5.46,5.46,0,0,1-1.35-4,13.56,13.56,0,0,1,1.3-4.85,21.4,21.4,0,0,1,6.33-8,26.85,26.85,0,0,1,8-4.23,23.34,23.34,0,0,1,6-1.31,4.22,4.22,0,0,1,1.21.13,1.92,1.92,0,0,1,.29.1,1.67,1.67,0,0,1,.24.1,1.2,1.2,0,0,1,.51.45c.43.56.87,2.23,0,4.4a13.6,13.6,0,0,1-1.93,3.45,17.37,17.37,0,0,1-3.19,3.3A16.4,16.4,0,0,1,54.12,69c-.39.15-.78.3-1.18.41s-.81.23-1.22.33-.83.14-1.25.21l-.63.06-.23,0a3.24,3.24,0,0,1-.45,0,.47.47,0,0,1-.4-.22,1.14,1.14,0,0,1,.09-.93l0-.1c0-.07.08-.18.13-.27s.19-.37.3-.54c.21-.36.43-.71.67-1a13,13,0,0,1,1.61-1.85,12.6,12.6,0,0,1,1.87-1.49c.32-.21.66-.41,1-.59a10.21,10.21,0,0,1,1-.46,2.33,2.33,0,0,1,1.42-.19l.07,0s0,0,0,0,0,0,0,0l.1.11,0-.05h0l.05.06a1,1,0,0,1,.07.57,3.82,3.82,0,0,1-.52,1.53,5.13,5.13,0,0,1-1,1.24,6,6,0,0,1-2.37,1.3c-1.5.42-2.46.14-2.52.35s.17.26.62.44a4.65,4.65,0,0,0,2.08.28,6.6,6.6,0,0,0,3.16-1.1,6.17,6.17,0,0,0,2.63-3.71,3.33,3.33,0,0,0-.05-1.62,2.25,2.25,0,0,0-.19-.45l-.06-.11,0-.06,0,0-.06-.08-.08-.12a1,1,0,0,0-.16-.18l-.22-.22a2.36,2.36,0,0,0-.42-.28,3.48,3.48,0,0,0-1.74-.42,6,6,0,0,0-1.54.22,12.39,12.39,0,0,0-1.35.49c-.43.18-.86.39-1.28.61a15.18,15.18,0,0,0-2.43,1.63,15.65,15.65,0,0,0-2.17,2.14c-.33.39-.64.81-.94,1.24-.15.22-.28.45-.43.67s-.13.21-.21.36-.2.35-.28.52a4.89,4.89,0,0,0-.51,4.22,3,3,0,0,0,1.5,1.44,6.77,6.77,0,0,0,2.24.41,6.77,6.77,0,0,0,1.19,0l.82,0c.53-.06,1.08-.09,1.6-.18s1.07-.17,1.58-.31,1-.28,1.54-.44a20.48,20.48,0,0,0,5.51-2.82,22,22,0,0,0,4.24-4,18.37,18.37,0,0,0,2.81-4.54A11.71,11.71,0,0,0,69.09,56.68Z"/><path class="cls-6" d="M79,48.84a6.64,6.64,0,0,1-3.27-1,10.5,10.5,0,0,1-2.91-2.66A24.16,24.16,0,0,1,69,37a29.8,29.8,0,0,1-.91-4.57,18.48,18.48,0,0,1,0-4.33A17.29,17.29,0,0,1,70.33,21a14,14,0,0,1,1.72-2.3c.3-.29.59-.6.83-.8a5.36,5.36,0,0,1,.61-.45l.06,0a39.89,39.89,0,0,0-3.23-4.19,9.36,9.36,0,0,0-1,.81c-.41.38-.75.79-1.15,1.24A18.35,18.35,0,0,0,66,18.6a21.66,21.66,0,0,0-2.44,9.19,22.54,22.54,0,0,0,.38,5.29,32.19,32.19,0,0,0,1.4,5.11,26.31,26.31,0,0,0,5.22,9,12.68,12.68,0,0,0,4,3,8.78,8.78,0,0,0,3.85.79c.22-.7.42-1.42.6-2.14Z"/><path class="cls-7" d="M65.27,8.49c-.92-.73-1.88-1.42-2.87-2.07l0,.08a19.37,19.37,0,0,1-2,4.29,24.8,24.8,0,0,1-3,3.72,39.36,39.36,0,0,1-7.2,5.78,43.57,43.57,0,0,1-7.4,3.91A71.45,71.45,0,0,1,36,26.49c-2.07.61-3.89,1.12-5.38,1.59-3,.91-4.63,1.63-4.57,1.8s1.79-.18,4.84-.75c1.52-.29,3.37-.63,5.5-1.08a64.07,64.07,0,0,0,7.12-1.88,36.38,36.38,0,0,0,4-1.58c1.35-.63,2.67-1.32,4-2.1a40.85,40.85,0,0,0,8-5.84A27.1,27.1,0,0,0,63,12.59,22.24,22.24,0,0,0,65.27,8.49Z"/><path class="cls-8" d="M70.9,27.08a7.34,7.34,0,0,0-.75,2.19c0,.2-.06.41-.09.62s0,.21,0,.32l0,.25a8.68,8.68,0,0,0,0,1,11.15,11.15,0,0,0,1.09,4,17.13,17.13,0,0,0,1,1.83c.19.29.39.58.59.86l.16.23.25.31a5.78,5.78,0,0,0,.53.58,3.8,3.8,0,0,0,2.82,1.15,4.38,4.38,0,0,0,2.87-1.26,5.75,5.75,0,0,0,.82-1,38.85,38.85,0,0,0-1.75-10.49,20.93,20.93,0,0,1,0,2.5,19.26,19.26,0,0,1-.58,3.42c-.15.56-.33,1.12-.53,1.66A5.3,5.3,0,0,1,77,36a1.36,1.36,0,0,1-.15.27.79.79,0,0,1-.49.34.71.71,0,0,1-.6-.17l-.12-.12-.07-.06-.13-.15c-.19-.22-.37-.45-.55-.68A12,12,0,0,1,74,34a8.49,8.49,0,0,1-1.1-2.86,5.51,5.51,0,0,1-.08-.71l0-.28V30a3.32,3.32,0,0,1,.11-.88,2.59,2.59,0,0,1,.37-.85,1.11,1.11,0,0,1,.74-.48,1.55,1.55,0,0,1,1.42.6,3.9,3.9,0,0,1,.49.95,6.1,6.1,0,0,1,.27,1,2,2,0,0,1-.24,1.56,1.48,1.48,0,0,1-.79.55c-.21.06-.38.05-.41.13s0,.21.38.31a1.63,1.63,0,0,0,1.42-.35,2.78,2.78,0,0,0,.93-2.29,6.82,6.82,0,0,0-1-3.52,3.37,3.37,0,0,0-2.65-1.62,2.69,2.69,0,0,0-1.7.51A4.38,4.38,0,0,0,70.9,27.08Z"/><path class="cls-9" d="M8.72,18.37a8.65,8.65,0,0,0,2.59,3.39,14.89,14.89,0,0,0,3.55,2.1,28,28,0,0,0,4,1.38c1.37.37,2.75.68,4.25,1a33.58,33.58,0,0,0,4.77.54A28.07,28.07,0,0,0,38.1,25.06a44.71,44.71,0,0,0,9.58-4.91c1.51-1,3-2,4.42-3.19a9.65,9.65,0,0,0,2.28-2.41,4.41,4.41,0,0,0,.25-.43c.08-.16.16-.34.24-.52a5.22,5.22,0,0,0,.28-1.1,4.55,4.55,0,0,0-.29-2.22,5,5,0,0,0-1.32-1.79,6.85,6.85,0,0,0-1.54-1,13,13,0,0,0-3-.92,19.14,19.14,0,0,0-5.79-.15,28.59,28.59,0,0,0-14.54,6.3,13.09,13.09,0,0,0-1.9,1.84,5.66,5.66,0,0,0-1.26,2.72,4.1,4.1,0,0,0,.77,3.09,3.67,3.67,0,0,0,1.24,1,5.16,5.16,0,0,0,.74.29l.64.15a11.41,11.41,0,0,0,2.15.14,19,19,0,0,1-3,0,37,37,0,0,1-7.88-1.54A23.4,23.4,0,0,1,17,19.25a10.29,10.29,0,0,1-2.34-1.44,3.58,3.58,0,0,1-1-1.38,2.81,2.81,0,0,1-.11-1.29,7.53,7.53,0,0,1,.36-1.49c.15-.47.33-.86.46-1.18.29-.64.47-1,.47-1s.16-.34.52-.95A19.65,19.65,0,0,1,17.11,8L17.17,8a39.6,39.6,0,0,0-8.82,9.26A6.76,6.76,0,0,0,8.72,18.37ZM29.4,19.52c-.14,0-.27-.07-.4-.12a1.34,1.34,0,0,1-.27-.13,1.22,1.22,0,0,1-.45-.39,1.47,1.47,0,0,1-.2-1.18c.15-.91,1.11-1.86,2.35-2.76a24.54,24.54,0,0,1,3.94-2.44,25.43,25.43,0,0,1,9.2-2.64,15.77,15.77,0,0,1,4.72.29,8.88,8.88,0,0,1,2.06.7,3.06,3.06,0,0,1,.69.47.79.79,0,0,1,.23.34.7.7,0,0,1,0,.38.64.64,0,0,1-.06.18.56.56,0,0,0,0,.08l-.09.14a6.28,6.28,0,0,1-1.43,1.35c-1.36,1-2.8,2-4.23,2.85a43.78,43.78,0,0,1-5.56,2.95c.26-.14.5-.28.74-.44A6.3,6.3,0,0,0,41.94,18a4.27,4.27,0,0,0,.5-.73,3.3,3.3,0,0,0,.19-.37l.07-.16,0-.13,0-.11a1.57,1.57,0,0,0,0-1.15,1.5,1.5,0,0,0-.79-.73,3.74,3.74,0,0,0-1.43-.27,5.35,5.35,0,0,0-2.2.53,9.24,9.24,0,0,0-1.37.8c-.69.5-1,.83-1,.9s.47-.09,1.23-.42a14.77,14.77,0,0,1,1.39-.51,4.65,4.65,0,0,1,1.85-.21,2.84,2.84,0,0,1,.95.27c.12.07.16.15.15.15s0,0-.08.19a3.41,3.41,0,0,1-.29.51,2.65,2.65,0,0,1-.39.46,4.84,4.84,0,0,1-1.08.81,12.87,12.87,0,0,1-3,1.11,27.3,27.3,0,0,1-3.6.73A11.16,11.16,0,0,1,29.4,19.52Z"/><path class="cls-10" d="M27.48,37.93c.54.66.87,1.12.87,1.12s.35.44.85,1.13a26.15,26.15,0,0,1,1.65,2.63c.53,1,1,2,1.33,2.84A5.3,5.3,0,0,0,32.77,47a4.07,4.07,0,0,0-.22-1.44,20.2,20.2,0,0,0-1.06-3A22.14,22.14,0,0,0,30,39.66c-.22-.38-.45-.68-.59-.89l-.23-.34s-.37-.46-1-1.11a24.54,24.54,0,0,0-2.34-2.22,21.15,21.15,0,0,0-2.65-1.82,3.76,3.76,0,0,0-1.33-.59c0,.06.43.4,1.11.92a30.37,30.37,0,0,1,2.39,2A25.71,25.71,0,0,1,27.48,37.93Z"/><path class="cls-11" d="M20.91,46.07a10.73,10.73,0,0,1,1.15,1.45c.51.78.84,1.69,1,1.66s.05-1-.35-2a8,8,0,0,0-1-1.78,8.07,8.07,0,0,0-1.6-1.28c-.87-.54-1.86-.79-1.9-.66s.79.6,1.48,1.23A10.2,10.2,0,0,1,20.91,46.07Z"/><path class="cls-12" d="M16.49,57.05c-.49-1.3-.1-2.84-.26-2.86s-.24.33-.38.89a4.39,4.39,0,0,0,0,2.18A3.87,3.87,0,0,0,17,59.2a3.82,3.82,0,0,0,.88.58,3.76,3.76,0,0,0,1,.28,3.69,3.69,0,0,0,2.24-.45A3.81,3.81,0,0,0,22.68,58c.27-.54.27-1,.21-1s-.21.34-.55.75A3.64,3.64,0,0,1,20.84,59a3,3,0,0,1-1.77.18,2.79,2.79,0,0,1-.76-.28,3,3,0,0,1-.72-.39A3.26,3.26,0,0,1,16.49,57.05Z"/><path class="cls-13" d="M26.12,3.09c-.58.4-1.05.73-1.37,1l-.51.39-.47.44c-.31.27-.72.68-1.21,1.19a16.17,16.17,0,0,0-2.95,4.23,6.31,6.31,0,0,0-.54,2.75,4.55,4.55,0,0,0,.79,2.32,3.33,3.33,0,0,0,1.3,1.13c.38.16.62.18.62.15s-.2-.12-.52-.33a3.49,3.49,0,0,1-1.07-1.16,4.3,4.3,0,0,1-.56-2.12,5.8,5.8,0,0,1,.64-2.45,16,16,0,0,1,3-3.87c.48-.47.89-.85,1.2-1.1l.46-.4.48-.39c.29-.26.74-.6,1.28-1a34.34,34.34,0,0,1,4.09-2.53A37.42,37.42,0,0,0,27,2.54C26.67,2.73,26.38,2.91,26.12,3.09Z"/><path class="cls-14" d="M45.4,12.16s.18,0,.25-.26a.66.66,0,0,0,0-.45.82.82,0,0,0-.43-.41,3.37,3.37,0,0,0-1.31-.14,14.33,14.33,0,0,0-1.43.13,15.64,15.64,0,0,0-2.61.63c-.7.22-1.15.4-1.15.4s-.45.2-1.09.54a20.87,20.87,0,0,0-2.32,1.34,7.2,7.2,0,0,0-2,1.87c-.41.62-.51,1.12-.45,1.14s.29-.4.76-.9a8,8,0,0,1,2-1.5c.81-.45,1.69-.83,2.33-1.11S39.06,13,39.06,13a19.9,19.9,0,0,1,3.51-1.26c.45-.12.91-.2,1.34-.27A3.19,3.19,0,0,1,45,11.41a.52.52,0,0,1,.42.46C45.47,12,45.37,12.13,45.4,12.16Z"/><path class="cls-15" d="M27.69,9.08c.92-.8,1.89-1.51,1.89-1.51s.9-.8,1.87-1.53,2-1.39,1.94-1.51a6,6,0,0,0-2.32.91A20.09,20.09,0,0,0,29,6.79a20.46,20.46,0,0,0-1.77,1.78,6.05,6.05,0,0,0-1.38,2.09A11.94,11.94,0,0,0,27.69,9.08Z"/><path class="cls-16" d="M33.91,31.91c-.11-.08-.76.74-1.19,1.7a10.73,10.73,0,0,0-.68,2,11.05,11.05,0,0,0,0,2.1,3.9,3.9,0,0,0,.57,2,9.46,9.46,0,0,0,.14-2,15,15,0,0,1,.3-1.92,14.74,14.74,0,0,1,.35-1.92A9.85,9.85,0,0,0,33.91,31.91Z"/><path class="cls-17" d="M65.23,69.41C64.62,70,64,70.68,64,70.68l-.66.93c.87-.61,1.72-1.26,2.54-1.94.43-.7.78-1.38.68-1.45S65.84,68.77,65.23,69.41Z"/><path class="cls-18" d="M60.35,5.62a4.64,4.64,0,0,1-.25,1.94s.18-.13.34-.46a3.05,3.05,0,0,0,.3-1.51,1.49,1.49,0,0,0,0-.21l-.48-.29A3.58,3.58,0,0,1,60.35,5.62Z"/><path class="cls-19" d="M39.26,3.63a12.07,12.07,0,0,0,1.92-.7A29.05,29.05,0,0,1,45.44,1.7a26.81,26.81,0,0,1,4.39-.53h.48c-1-.24-1.94-.45-2.93-.61-.69.12-1.4.26-2.1.45A23.52,23.52,0,0,0,41,2.57,7.32,7.32,0,0,0,39.26,3.63Z"/><path class="cls-20" d="M11.58,27.59c0,.28,3.51.76,3.51.76s3.57,0,3.59-.26-3.51-.75-3.51-.75S11.6,27.32,11.58,27.59Z"/><path class="cls-21" d="M65.88,12.32a19.22,19.22,0,0,0-2.18,2.81c-.52.83-.81,1.41-.81,1.41s-.29.58-.63,1.49a23.78,23.78,0,0,0-1,3.4,16.87,16.87,0,0,0-.47,5.09c.15,0,.45-2.51,1.17-4.91a26.08,26.08,0,0,1,1.16-3.23c.38-.85.67-1.39.67-1.39s.26-.57.71-1.38a19.63,19.63,0,0,1,1.92-2.81A18.74,18.74,0,0,1,68.13,11l-.36-.35A16,16,0,0,0,65.88,12.32Z"/><path class="cls-22" d="M46.56,28.16c0,.06.42-.12,1-.37a15.2,15.2,0,0,1,2.1-.76,15.77,15.77,0,0,1,2.18-.4c.6-.05,1-.06,1-.06s.4,0,1-.06a15.07,15.07,0,0,1,2.21.13,17,17,0,0,1,2.18.5c.59.18,1,.32,1,.25s-.3-.31-.87-.61a10.68,10.68,0,0,0-2.19-.84,13.16,13.16,0,0,0-2.33-.36c-.64,0-1.08,0-1.08,0s-.43,0-1.07.15a13.27,13.27,0,0,0-2.27.64,11,11,0,0,0-2.07,1.09C46.82,27.81,46.52,28.11,46.56,28.16Z"/><path class="cls-23" d="M58.87,45.38a20.85,20.85,0,0,0,1.58-1.93c.39-.56.63-1,.63-1s.22-.41.48-1.05a11.2,11.2,0,0,0,.7-2.43,8.3,8.3,0,0,0,.05-2.52c-.1-.68-.27-1.1-.33-1.09s0,.46-.06,1.12a10.36,10.36,0,0,1-.36,2.34,12.66,12.66,0,0,1-.85,2.2c-.29.57-.52.94-.52.94s-.19.38-.52.94a22.06,22.06,0,0,1-1.35,2,24.12,24.12,0,0,0-2.12,2.86A12.43,12.43,0,0,0,58.87,45.38Z"/><path class="cls-24" d="M53.56,76.5a21.51,21.51,0,0,1-4.39.72,8.42,8.42,0,0,1-1.4-.09,3.37,3.37,0,0,1-.52-.11l-.5-.13a6.11,6.11,0,0,1-1.26-.57,6.44,6.44,0,0,1-2.7-3.21,7.31,7.31,0,0,1-.2-4.31c.31-1.17.77-1.88.69-1.92a4.13,4.13,0,0,0-1.06,1.81,7.35,7.35,0,0,0-.11,4.65A7.17,7.17,0,0,0,45,77.11a7.06,7.06,0,0,0,1.44.72L47,78a4.7,4.7,0,0,0,.56.09,38.05,38.05,0,0,0,6.67-1.77Z"/><path class="cls-25" d="M69,49.7a8.71,8.71,0,0,1,1.55,3.47,9.24,9.24,0,0,1,.19,1.26l0,.48a10.4,10.4,0,0,1,0,1.75A15.7,15.7,0,0,1,70,60.5c-.87,2.74-2.4,5.27-2.26,5.35a17.62,17.62,0,0,0,2.94-5.11,16,16,0,0,0,1-4,12,12,0,0,0,0-1.9l0-.52A11.42,11.42,0,0,0,71.41,53a9.15,9.15,0,0,0-1.91-3.71,7.91,7.91,0,0,0-3.4-2.34,3.66,3.66,0,0,0-1.85-.24c0,.09.73.16,1.71.61A8,8,0,0,1,69,49.7Z"/><path class="cls-26" d="M33.37,77.81a11.24,11.24,0,0,1-.65-2.2c-.21-1.15-.12-2.34-.26-2.37A4.37,4.37,0,0,0,32,75.68a9.75,9.75,0,0,0,.29,2.06l1.12.22Z"/><path class="cls-27" d="M71.36,24.23c.13.07.75-.7,1.44-1.38a18.67,18.67,0,0,1,1.43-1.29s.52-.53,1.15-1.09L75,19.79a13.85,13.85,0,0,0-1.46,1,12.89,12.89,0,0,0-1.3,1.58A4.16,4.16,0,0,0,71.36,24.23Z"/><path class="cls-28" d="M43.59,51.65a4.64,4.64,0,0,0,2.31-.41,13.52,13.52,0,0,0-2.26-.3,16.2,16.2,0,0,1-2.15-.5,17.29,17.29,0,0,1-2.13-.6A14.72,14.72,0,0,0,37.24,49c-.09.11.78.9,1.82,1.48a12.59,12.59,0,0,0,2.17.93A12.06,12.06,0,0,0,43.59,51.65Z"/><path class="cls-29" d="M72.68,60.79a16.69,16.69,0,0,1-.63,2c-.16.41-.32.81-.48,1.18.67-.83,1.3-1.69,1.9-2.58,0-.1.07-.19.1-.28.21-.56.31-.94.31-.94A11.25,11.25,0,0,0,74.06,57a5.4,5.4,0,0,0-1-3c-.12.05.33,1.51.25,3a12,12,0,0,1-.45,2.91S72.82,60.26,72.68,60.79Z"/><path class="cls-30" d="M79.6,44.11a7.71,7.71,0,0,1-1-.07,9.06,9.06,0,0,1-1-.12,8.65,8.65,0,0,1-2.07-.67,21.25,21.25,0,0,1-2.7-1.8,5.48,5.48,0,0,0,2.36,2.43,8.46,8.46,0,0,0,2.2.95,8.33,8.33,0,0,0,1.08.22,7.32,7.32,0,0,0,1.1,0l.15,0c0-.3.1-.61.14-.92Z"/><path class="cls-31" d="M21.05,73.19a14,14,0,0,0,5-1.69,19.08,19.08,0,0,0,2.34-1.57,18,18,0,0,0,1.82-1.66A14.93,14.93,0,0,0,31.34,67l.42-.52.37-.55c.23-.35.55-.85.9-1.48a29.55,29.55,0,0,0,2.15-4.77,47.33,47.33,0,0,0,1.41-5A11,11,0,0,0,37,52.31c-.16,0-1.06,3.63-2.46,7.08A31.65,31.65,0,0,1,32.23,64c-.36.59-.69,1.06-.92,1.39s-.37.51-.37.51l-.38.51a16.18,16.18,0,0,1-1.06,1.28,18.7,18.7,0,0,1-1.67,1.64,18,18,0,0,1-2.18,1.6A14.63,14.63,0,0,1,21,72.8l-.61.12c.16.1.32.2.49.29Z"/><path class="cls-32" d="M34.1,64.51s-.73,1.49-1.29,3a10.66,10.66,0,0,0-.83,3.2,20.39,20.39,0,0,0,1.49-2.92C34.18,66.38,35,65,35,65s.71-1.46,1.52-2.87a21.14,21.14,0,0,0,1.59-2.87,10.65,10.65,0,0,0-2.2,2.48C34.93,63.07,34.1,64.51,34.1,64.51Z"/><path class="cls-33" d="M6.59,56.54a2.85,2.85,0,0,0-.32,1.27c0,.06,0,.14,0,.2.16.3.32.61.49.91C6.6,57.61,6.69,56.56,6.59,56.54Z"/><path class="cls-34" d="M5.87,34.35c.44-.22.84-.35,1.1-.47l.42-.16.43-.17c.27-.09.64-.27,1.12-.41a23.57,23.57,0,0,1,3.53-.88A24,24,0,0,1,16.12,32a7.79,7.79,0,0,0,1.69,0,5.22,5.22,0,0,0-1.67-.35,20.27,20.27,0,0,0-3.76,0,22.07,22.07,0,0,0-3.72.7c-.5.12-.9.29-1.19.37L7,32.77l-.43.2c-.27.13-.68.29-1.13.54a21.38,21.38,0,0,0-3.19,2L1.68,36c0,.19,0,.38-.05.57s0,.2,0,.31c.35-.27.71-.53,1.07-.78A24.67,24.67,0,0,1,5.87,34.35Z"/><path class="cls-35" d="M9.61,45.62a10.32,10.32,0,0,1,1.65-1.49,26.61,26.61,0,0,1,2.93-1.56,6,6,0,0,0-3.31,1A9.24,9.24,0,0,0,8.94,45a8.86,8.86,0,0,0-.75.82,8.83,8.83,0,0,0-.58,1A9.62,9.62,0,0,0,6.76,49a6,6,0,0,0,0,3.44,25.24,25.24,0,0,1,.68-3.24,9.82,9.82,0,0,1,1-2A8.58,8.58,0,0,1,9,46.41,9.59,9.59,0,0,1,9.61,45.62Z"/><path class="cls-36" d="M14.92,68.86s-.06-.06-.17-.12l.14.14S14.92,68.87,14.92,68.86Z"/><path class="cls-37" d="M4.83,27a28.47,28.47,0,0,1,3-.36,20.14,20.14,0,0,0,3.08-.2,9,9,0,0,0-3.08-.52A21.88,21.88,0,0,0,4.69,26s-.36.06-.89.19c-.12.33-.23.66-.34,1C4.25,27,4.83,27,4.83,27Z"/><path class="cls-38" d="M19.84,31A1.08,1.08,0,0,1,20,28.8,1.08,1.08,0,0,1,19.84,31Zm4,1.31A1.07,1.07,0,0,0,24,30.12a1.07,1.07,0,0,0-.15,2.14Zm9,21.55A1.08,1.08,0,0,0,33,51.66a1.08,1.08,0,0,0-.15,2.15Zm-.68,4.76a1.08,1.08,0,0,0,.15-2.15,1.08,1.08,0,0,0-.15,2.15ZM30.81,63.5A1.08,1.08,0,0,0,31,61.35a1.08,1.08,0,0,0-.15,2.15ZM39.4,6.39a1.08,1.08,0,0,0,.15-2.15,1.08,1.08,0,0,0-.15,2.15Zm6.85-1.58a1.08,1.08,0,0,0,.15-2.15,1.08,1.08,0,0,0-.15,2.15Zm6.2,1.24A1.08,1.08,0,0,0,52.6,3.9a1.08,1.08,0,0,0-.15,2.15Zm4.3,3.84a1.08,1.08,0,0,0,.15-2.15,1.08,1.08,0,0,0-.15,2.15ZM63.63,42a1.08,1.08,0,0,0,.16-2.15A1.08,1.08,0,0,0,63.63,42ZM66,46.43a1.08,1.08,0,0,0,.15-2.15A1.08,1.08,0,0,0,66,46.43ZM61,59.57a1.08,1.08,0,0,0,.15-2.15A1.08,1.08,0,0,0,61,59.57Zm-5-.7a1.07,1.07,0,0,0,.15-2.14,1.07,1.07,0,0,0-.15,2.14ZM33.61,74a1.08,1.08,0,0,0,.15-2.15A1.08,1.08,0,0,0,33.61,74Zm.67,3.48a1.08,1.08,0,0,0,.15-2.15,1.08,1.08,0,0,0-.15,2.15ZM4.39,49.18A1.08,1.08,0,0,0,4.54,47a1.08,1.08,0,0,0-.15,2.15Zm2.93-4.37a1.07,1.07,0,0,0,.15-2.14,1.07,1.07,0,0,0-.15,2.14Zm4.3-2.55a1.08,1.08,0,0,0,.15-2.15,1.08,1.08,0,0,0-.15,2.15Zm5.1,10.3a1.08,1.08,0,0,0,.15-2.15,1.08,1.08,0,0,0-.15,2.15Zm39.34-28a1.08,1.08,0,0,0,.15-2.15,1.08,1.08,0,0,0-.15,2.15Zm2.71-2.78a1.08,1.08,0,0,0,.15-2.15,1.08,1.08,0,0,0-.15,2.15ZM7.29,24.13A1.08,1.08,0,0,0,7.44,22a1.08,1.08,0,0,0-.15,2.15Zm4,1.88a1.08,1.08,0,0,0,.16-2.15A1.08,1.08,0,0,0,11.27,26ZM72.86,53A1.08,1.08,0,0,0,73,50.87,1.08,1.08,0,0,0,72.86,53ZM76,54.68a1.08,1.08,0,0,0,.15-2.15A1.08,1.08,0,0,0,76,54.68Z"/><path class="cls-39" d="M66.68,9.66A34.56,34.56,0,1,1,2.05,33c-.19,1.18-.34,2.37-.42,3.59A39.34,39.34,0,1,0,66.68,9.66Z"/><g class="cls-40"><path class="cls-41" d="M77.61,28.89a35.52,35.52,0,0,1,.79,10.34C77,59.62,58.55,74.94,37.27,73.44,20.84,72.28,7.51,61.43,3,47.16,6.49,62.91,20.51,75.24,38.09,76.47,59.37,78,77.79,62.65,79.22,42.26A35.45,35.45,0,0,0,77.61,28.89Z"/></g><path class="cls-42" d="M6.89,40.14A36.45,36.45,0,0,1,73.12,21.82a36.45,36.45,0,1,0-62,38A36.28,36.28,0,0,1,6.89,40.14Z"/><path class="cls-43" d="M60,21.93a14.63,14.63,0,0,1-3,1.22c-4.06,1.14-8.45,1-12.36,2.61C40.28,27.55,37,31.27,34.1,35s-5.61,7.78-9.46,10.55-9.2,4.07-13.38,1.83C.08,41.41,8.18,23.79,14,16.85A35.28,35.28,0,0,1,43.31,4.46c4.94.35,9.33,1.86,13.9,3.63A12.67,12.67,0,0,1,63.92,14C65.66,17.54,63.11,20.21,60,21.93Z"/><path class="cls-44" d="M24.47,17.15c1.77,1.46,1,5.29-1.71,8.56S16.43,30.43,14.67,29s-1-5.29,1.71-8.56S22.71,15.69,24.47,17.15Z"/><path class="cls-45" d="M33.46,10.87c.55,1.14-.71,2.89-2.82,3.9s-4.26.93-4.81-.21.71-2.88,2.82-3.9S32.91,9.73,33.46,10.87Z"/></g></g></svg>