<svg xmlns="http://www.w3.org/2000/svg" xmlns:xlink="http://www.w3.org/1999/xlink" viewBox="0 0 83.92 83.98"><defs><style>.cls-1{isolation:isolate;}.cls-2{fill:url(#radial-gradient);}.cls-3{fill:url(#radial-gradient-2);}.cls-10,.cls-11,.cls-12,.cls-13,.cls-14,.cls-15,.cls-16,.cls-17,.cls-18,.cls-19,.cls-20,.cls-21,.cls-4,.cls-5,.cls-6,.cls-7{opacity:0.25;}.cls-10,.cls-11,.cls-12,.cls-13,.cls-14,.cls-15,.cls-16,.cls-17,.cls-18,.cls-19,.cls-20,.cls-21,.cls-4{mix-blend-mode:multiply;}.cls-4{fill:url(#radial-gradient-3);}.cls-5,.cls-6,.cls-7,.cls-8,.cls-9{mix-blend-mode:screen;}.cls-5{fill:url(#radial-gradient-4);}.cls-6{fill:url(#radial-gradient-5);}.cls-7{fill:url(#radial-gradient-6);}.cls-8,.cls-9{opacity:0.89;}.cls-8{fill:url(#radial-gradient-7);}.cls-9{fill:url(#radial-gradient-8);}.cls-10{fill:url(#radial-gradient-9);}.cls-11{fill:url(#radial-gradient-10);}.cls-12{fill:url(#radial-gradient-11);}.cls-13{fill:url(#radial-gradient-12);}.cls-14{fill:url(#radial-gradient-13);}.cls-15{fill:url(#radial-gradient-14);}.cls-16{fill:url(#radial-gradient-15);}.cls-17{fill:url(#radial-gradient-16);}.cls-18{fill:url(#radial-gradient-17);}.cls-19{fill:url(#radial-gradient-18);}.cls-20{fill:url(#radial-gradient-19);}.cls-21{fill:url(#radial-gradient-20);}</style><radialGradient id="radial-gradient" cx="-149.69" cy="-69.95" r="99.65" gradientTransform="matrix(0.64, 0.77, -0.77, 0.64, 105.29, 179.27)" gradientUnits="userSpaceOnUse"><stop offset="0" stop-color="#8ee1ee"/><stop offset="0.62" stop-color="#5e8dec"/><stop offset="0.63" stop-color="#5f89e8"/><stop offset="0.74" stop-color="#6b64c7"/><stop offset="0.84" stop-color="#714eb3"/><stop offset="0.9" stop-color="#7446ac"/></radialGradient><radialGradient id="radial-gradient-2" cx="-127.61" cy="-64.14" r="76.12" gradientTransform="translate(134.08 161.92) rotate(37.66)" xlink:href="#radial-gradient"/><radialGradient id="radial-gradient-3" cx="-18.05" cy="156.47" r="67.71" gradientTransform="translate(81.74 -130.84) rotate(1.04)" xlink:href="#radial-gradient"/><radialGradient id="radial-gradient-4" cx="-138.26" cy="-69.57" r="74.94" gradientTransform="translate(191.88 61.66) rotate(-7.34)" xlink:href="#radial-gradient"/><radialGradient id="radial-gradient-5" cx="-149.46" cy="-67.5" r="93.04" gradientTransform="translate(191.88 61.66) rotate(-7.34)" xlink:href="#radial-gradient"/><radialGradient id="radial-gradient-6" cx="-149.51" cy="-68.3" r="94.37" gradientTransform="translate(191.88 61.66) rotate(-7.34)" xlink:href="#radial-gradient"/><radialGradient id="radial-gradient-7" cx="-140.75" cy="1037.86" r="22.97" gradientTransform="translate(1111.91 146.1) rotate(90)" xlink:href="#radial-gradient"/><radialGradient id="radial-gradient-8" cx="874.03" cy="1458.54" r="12.67" gradientTransform="translate(1022.13 -1394.67) rotate(64.72)" xlink:href="#radial-gradient"/><radialGradient id="radial-gradient-9" cx="-166.94" cy="-15.89" r="3.8" gradientTransform="translate(191.88 61.66) rotate(-7.34)" xlink:href="#radial-gradient"/><radialGradient id="radial-gradient-10" cx="-164.07" cy="-11.24" r="1.77" gradientTransform="translate(191.88 61.66) rotate(-7.34)" xlink:href="#radial-gradient"/><radialGradient id="radial-gradient-11" cx="-154.67" cy="-14.61" r="6.25" gradientTransform="translate(191.88 61.66) rotate(-7.34)" xlink:href="#radial-gradient"/><radialGradient id="radial-gradient-12" cx="-150.02" cy="-6.63" r="2.31" gradientTransform="translate(191.88 61.66) rotate(-7.34)" xlink:href="#radial-gradient"/><radialGradient id="radial-gradient-13" cx="-179.26" cy="-37.24" r="5.43" gradientTransform="translate(191.88 61.66) rotate(-7.34)" xlink:href="#radial-gradient"/><radialGradient id="radial-gradient-14" cx="-176.93" cy="-30.94" r="2.72" gradientTransform="translate(191.88 61.66) rotate(-7.34)" xlink:href="#radial-gradient"/><radialGradient id="radial-gradient-15" cx="-171.14" cy="-55.53" r="5.3" gradientTransform="translate(191.88 61.66) rotate(-7.34)" xlink:href="#radial-gradient"/><radialGradient id="radial-gradient-16" cx="-169.38" cy="-47.94" r="2.99" gradientTransform="translate(191.88 61.66) rotate(-7.34)" xlink:href="#radial-gradient"/><radialGradient id="radial-gradient-17" cx="-165.99" cy="-50.07" r="2.17" gradientTransform="translate(191.88 61.66) rotate(-7.34)" xlink:href="#radial-gradient"/><radialGradient id="radial-gradient-18" cx="-127.23" cy="-17.51" r="4.62" gradientTransform="translate(191.88 61.66) rotate(-7.34)" xlink:href="#radial-gradient"/><radialGradient id="radial-gradient-19" cx="-122.82" cy="-19.48" r="2.44" gradientTransform="translate(191.88 61.66) rotate(-7.34)" xlink:href="#radial-gradient"/><radialGradient id="radial-gradient-20" cx="-123.55" cy="-13.31" r="1.9" gradientTransform="translate(191.88 61.66) rotate(-7.34)" xlink:href="#radial-gradient"/></defs><title>time</title><g class="cls-1"><g id="OBJECTS"><circle class="cls-2" cx="41.96" cy="41.96" r="41.95" transform="translate(-15.92 55.05) rotate(-57.75)"/><circle class="cls-3" cx="41.97" cy="42.02" r="41.95" transform="translate(-17.42 41.98) rotate(-45)"/><path class="cls-4" d="M56,51.26A42,42,0,0,1,14.84,10,42,42,0,1,0,83.92,42.78c0-.5,0-1,0-1.48A41.84,41.84,0,0,1,56,51.26Z"/><path class="cls-5" d="M80.85,36.94a42.39,42.39,0,0,1-2,19.5A12.87,12.87,0,0,1,75,62.66a9.72,9.72,0,0,1-9,1.15,16.58,16.58,0,0,1-7.4-5.73c-3.32-4.28-5.19-9.47-7.69-14.28s-6-9.51-11-11.48c-4.54-1.76-9.9-1.12-14.08-3.63s-6.09-7.77-5.26-12.5a16.23,16.23,0,0,1,5.25-9.11c3-2.73,7.25-3.45,11.19-4A39.15,39.15,0,0,1,77.39,25.27,39.91,39.91,0,0,1,80.85,36.94Z"/><path class="cls-6" d="M52,68.47c-4.41-1.29-9-3-12.22-6.41a17.92,17.92,0,0,1-3.41-5.55c-.71-1.62-1.34-4-2.86-5-1.85-1.28-5.16-.74-7.3-.91a25.33,25.33,0,0,1-6-1.1A23,23,0,0,1,8.76,40.41a24.37,24.37,0,0,1-4-10.22A39.16,39.16,0,0,0,69.88,69.84,40.1,40.1,0,0,1,52,68.47Z"/><path class="cls-7" d="M35.05,74.29c-3.88-2.71-5-7-2.69-11.13,2.19-3.88,6.29-5.68,9.75-8.18,4.31-3.13,4.12-7.54,6.62-11.84C51.47,38.44,55.9,38,60.45,36c6-2.72,1.48-7.23,4.16-11.4C66.92,21,71,22.8,73,25.57c2.64,3.69,4.77,8.44,6.64,12.52a54.29,54.29,0,0,1,2,5.11,40.85,40.85,0,0,0-.31-6.32A39.73,39.73,0,0,0,36.88,2.56c-1,.12-2,.3-2.94.5A24.65,24.65,0,0,1,48.36,6.44c8.52,5,15.26,18.73,5.12,25.57-2,1.36-4.32,2.31-6.34,3.69A27.62,27.62,0,0,0,41,41.87C37.31,46.61,35.8,53,30.35,56.14c-8.75,5-19.07-.22-23.86-8.08A37.37,37.37,0,0,1,2.4,38.3,39.74,39.74,0,0,0,47,81.36a40.1,40.1,0,0,0,8.4-2C48.21,79.75,40.94,78.41,35.05,74.29Z"/><ellipse class="cls-8" cx="61.75" cy="15.72" rx="4.42" ry="8.19" transform="translate(9.86 52.71) rotate(-49.76)"/><path class="cls-9" d="M74.61,30.66c-1.22.58-3.07-.79-4.14-3s-.94-4.56.28-5.13,3.07.79,4.13,3S75.82,30.08,74.61,30.66Z"/><path class="cls-10" d="M25.6,68.35a2.09,2.09,0,1,1-2.34-1.81A2.1,2.1,0,0,1,25.6,68.35Z"/><path class="cls-11" d="M28.34,72a1,1,0,1,1-1.09-.84A1,1,0,0,1,28.34,72Z"/><path class="cls-12" d="M38.79,68.77a3.44,3.44,0,1,1-3.86-3A3.44,3.44,0,0,1,38.79,68.77Z"/><path class="cls-13" d="M43.05,74.93a1.27,1.27,0,1,1-1.42-1.1A1.27,1.27,0,0,1,43.05,74.93Z"/><path class="cls-14" d="M11.22,49.23a3,3,0,1,1-3.35-2.58A3,3,0,0,1,11.22,49.23Z"/><path class="cls-15" d="M13.39,54.38a1.5,1.5,0,1,1-1.68-1.29A1.5,1.5,0,0,1,13.39,54.38Z"/><path class="cls-16" d="M16.89,30a2.92,2.92,0,1,1-3.27-2.52A2.91,2.91,0,0,1,16.89,30Z"/><path class="cls-17" d="M18.8,36.63A1.65,1.65,0,1,1,17,35.21,1.65,1.65,0,0,1,18.8,36.63Z"/><path class="cls-18" d="M21.61,33.86a1.19,1.19,0,1,1-2.37.3,1.19,1.19,0,1,1,2.37-.3Z"/><path class="cls-19" d="M65.07,61.91a2.55,2.55,0,1,1-2.85-2.2A2.55,2.55,0,0,1,65.07,61.91Z"/><path class="cls-20" d="M68.43,58.76a1.34,1.34,0,0,1-1.16,1.51,1.35,1.35,0,0,1-.35-2.67A1.34,1.34,0,0,1,68.43,58.76Z"/><path class="cls-21" d="M68.31,64.81a1,1,0,1,1-2.08.27,1,1,0,0,1,2.08-.27Z"/></g></g></svg>