<svg xmlns="http://www.w3.org/2000/svg" xmlns:xlink="http://www.w3.org/1999/xlink" viewBox="0 0 81.58 81.58"><defs><style>.cls-1{isolation:isolate;}.cls-2{fill:url(#radial-gradient);}.cls-3{opacity:0.5;fill:url(#radial-gradient-2);}.cls-4{opacity:0.78;mix-blend-mode:multiply;fill:url(#radial-gradient-3);}.cls-10,.cls-11,.cls-12,.cls-13,.cls-14,.cls-15,.cls-16,.cls-17,.cls-18,.cls-19,.cls-20,.cls-21,.cls-22,.cls-5,.cls-6,.cls-7,.cls-8,.cls-9{mix-blend-mode:screen;}.cls-6{fill:url(#radial-gradient-4);}.cls-7{fill:url(#radial-gradient-5);}.cls-8{fill:url(#radial-gradient-6);}.cls-9{fill:url(#radial-gradient-7);}.cls-10{fill:url(#radial-gradient-8);}.cls-11{fill:url(#radial-gradient-9);}.cls-12{fill:url(#radial-gradient-10);}.cls-13{fill:url(#radial-gradient-11);}.cls-14{fill:url(#radial-gradient-12);}.cls-15{fill:url(#radial-gradient-13);}.cls-16{fill:url(#radial-gradient-14);}.cls-17{fill:url(#radial-gradient-15);}.cls-18{fill:url(#radial-gradient-16);}.cls-19{fill:url(#radial-gradient-17);}.cls-20{fill:url(#radial-gradient-18);}.cls-21{fill:url(#radial-gradient-19);}.cls-22{fill:url(#radial-gradient-20);}</style><radialGradient id="radial-gradient" cx="582.8" cy="667.88" r="86.82" gradientTransform="matrix(0.75, 0.66, -0.66, 0.75, 62.84, -888.31)" gradientUnits="userSpaceOnUse"><stop offset="0.08" stop-color="#ffe245"/><stop offset="1" stop-color="#61e327"/></radialGradient><radialGradient id="radial-gradient-2" cx="582.86" cy="671.31" r="84.39" gradientTransform="translate(-3.52 -887.52) rotate(37.47)" xlink:href="#radial-gradient"/><radialGradient id="radial-gradient-3" cx="588.93" cy="683.59" r="70.18" gradientTransform="translate(-3.52 -887.52) rotate(37.47)" xlink:href="#radial-gradient"/><radialGradient id="radial-gradient-4" cx="591.69" cy="659.72" r="103.89" gradientTransform="translate(-3.52 -887.52) rotate(37.47)" xlink:href="#radial-gradient"/><radialGradient id="radial-gradient-5" cx="591.69" cy="659.72" r="103.89" gradientTransform="translate(-3.52 -887.52) rotate(37.47)" xlink:href="#radial-gradient"/><radialGradient id="radial-gradient-6" cx="591.69" cy="659.72" r="103.89" gradientTransform="translate(-3.52 -887.52) rotate(37.47)" xlink:href="#radial-gradient"/><radialGradient id="radial-gradient-7" cx="591.69" cy="659.72" r="103.89" gradientTransform="translate(-3.52 -887.52) rotate(37.47)" xlink:href="#radial-gradient"/><radialGradient id="radial-gradient-8" cx="591.69" cy="659.72" r="103.89" gradientTransform="translate(-3.52 -887.52) rotate(37.47)" xlink:href="#radial-gradient"/><radialGradient id="radial-gradient-9" cx="591.69" cy="659.72" r="103.89" gradientTransform="translate(-3.52 -887.52) rotate(37.47)" xlink:href="#radial-gradient"/><radialGradient id="radial-gradient-10" cx="591.69" cy="659.72" r="103.89" gradientTransform="translate(-3.52 -887.52) rotate(37.47)" xlink:href="#radial-gradient"/><radialGradient id="radial-gradient-11" cx="591.69" cy="659.72" r="103.89" gradientTransform="translate(-3.52 -887.52) rotate(37.47)" xlink:href="#radial-gradient"/><radialGradient id="radial-gradient-12" cx="591.69" cy="659.72" r="103.89" gradientTransform="translate(-3.52 -887.52) rotate(37.47)" xlink:href="#radial-gradient"/><radialGradient id="radial-gradient-13" cx="591.69" cy="659.72" r="103.89" gradientTransform="translate(-3.52 -887.52) rotate(37.47)" xlink:href="#radial-gradient"/><radialGradient id="radial-gradient-14" cx="591.69" cy="659.72" r="103.89" gradientTransform="translate(-3.52 -887.52) rotate(37.47)" xlink:href="#radial-gradient"/><radialGradient id="radial-gradient-15" cx="591.69" cy="659.72" r="103.89" gradientTransform="translate(-3.52 -887.52) rotate(37.47)" xlink:href="#radial-gradient"/><radialGradient id="radial-gradient-16" cx="591.69" cy="659.72" r="103.89" gradientTransform="translate(-3.52 -887.52) rotate(37.47)" xlink:href="#radial-gradient"/><radialGradient id="radial-gradient-17" cx="580.38" cy="668.08" r="74.46" gradientTransform="translate(-3.52 -887.52) rotate(37.47)" xlink:href="#radial-gradient"/><radialGradient id="radial-gradient-18" cx="-173.96" cy="-415.38" r="22.33" gradientTransform="matrix(0.97, -0.26, 0.26, 0.97, 294.52, 357.55)" xlink:href="#radial-gradient"/><radialGradient id="radial-gradient-19" cx="62.14" cy="189.12" r="12.32" gradientTransform="matrix(0.99, 0.16, -0.16, 0.99, 11.69, -196.45)" xlink:href="#radial-gradient"/><radialGradient id="radial-gradient-20" cx="580.55" cy="672.83" r="55.1" gradientTransform="translate(-3.52 -887.52) rotate(37.47)" xlink:href="#radial-gradient"/></defs><title>time</title><g class="cls-1"><g id="OBJECTS"><circle class="cls-2" cx="40.79" cy="40.79" r="40.79" transform="translate(-2.81 3.01) rotate(-4.09)"/><path class="cls-3" d="M76.45,21A34.82,34.82,0,1,1,6.93,18.06,40.78,40.78,0,1,0,76.45,21Z"/><path class="cls-4" d="M79.41,38.46a37.49,37.49,0,0,1-7.67,20.27A38.24,38.24,0,0,1,18.1,65.52a38.55,38.55,0,0,1-15-27.29,38.52,38.52,0,0,0,68.69,26.5A37.58,37.58,0,0,0,79.41,38.46Z"/><g class="cls-5"><path class="cls-6" d="M76.49,28.39a17,17,0,0,1-1.57.85l-.61.3-.62.28c-.39.18-1,.42-1.66.67a30,30,0,0,1-5.3,1.37,49.68,49.68,0,0,1-5.48.55,18.58,18.58,0,0,0-2.52.17,12.33,12.33,0,0,0,2.53.2,39,39,0,0,0,5.57-.27,28.72,28.72,0,0,0,5.48-1.21c.73-.23,1.33-.47,1.74-.64l.66-.28.63-.32A18.35,18.35,0,0,0,77,29.11a21,21,0,0,0,2.12-1.56l.22-.21c-.09-.26-.18-.51-.28-.77l-.44.38A22,22,0,0,1,76.49,28.39Z"/><path class="cls-7" d="M13.12,23.51s.76.9,2,2.16A53.21,53.21,0,0,0,19.84,30c1.81,1.48,3.7,2.85,5.15,3.82a16.75,16.75,0,0,0,2.49,1.52,23.54,23.54,0,0,0-2.28-1.82c-1.38-1.06-3.19-2.5-4.93-4a59.37,59.37,0,0,1-4.55-4.43c-1.16-1.28-1.88-2.18-1.88-2.18s-.76-.87-1.79-2.25a38.68,38.68,0,0,1-3.24-5.17c-.13.17-.27.32-.39.49l-.07.09a36.26,36.26,0,0,0,3,5.09C12.37,22.6,13.12,23.51,13.12,23.51Z"/><path class="cls-8" d="M29,2.37a9.86,9.86,0,0,0-2.36,3.18,9,9,0,0,0-.75,4,12.55,12.55,0,0,0,.82,3.89,12.41,12.41,0,0,0,2,3.49,17.48,17.48,0,0,0,2.73,2.71,32.11,32.11,0,0,0,6.11,3.8A65.29,65.29,0,0,0,43.53,26a49.75,49.75,0,0,0,5.68,1.75,34.42,34.42,0,0,0,9,1c1.12,0,2-.12,2.59-.19.3,0,.53-.07.68-.1l.23,0,.74-.14c.48-.13,1.15-.25,2.08-.54a15.11,15.11,0,0,0,3.23-1.47,8.7,8.7,0,0,0,3.43-3.72,6.69,6.69,0,0,0,.6-3.1,7.62,7.62,0,0,0-.87-3.13,13.14,13.14,0,0,0-4.21-4.49A30.94,30.94,0,0,0,55.28,7.31a31.44,31.44,0,0,0-6.34-.52A29.93,29.93,0,0,0,45.79,7c-.52.08-1,.13-1.56.24a9.34,9.34,0,0,0-1.64.45A6.19,6.19,0,0,0,41,8.58a4.11,4.11,0,0,0-1.29,1.63,3.92,3.92,0,0,0-.24,2.07A4.91,4.91,0,0,0,40.07,14a9.27,9.27,0,0,0,2,2.32,14.26,14.26,0,0,0,2.28,1.6,14.79,14.79,0,0,0,8.83,1.88A11.29,11.29,0,0,0,56.4,19a2.16,2.16,0,0,0,1.41-1.57,1.83,1.83,0,0,0-.23-1.33,3.71,3.71,0,0,0-.8-.94,8.16,8.16,0,0,0-1.62-1,7.92,7.92,0,0,0-2.28-.69c-1.08-.12-1.28,0-1.28,0s.2.08,1.21.31a8.63,8.63,0,0,1,2.11.81,7.92,7.92,0,0,1,1.38,1,3.15,3.15,0,0,1,.58.71,1.23,1.23,0,0,1,.16,1,1.8,1.8,0,0,1-1.25.85c-.15,0-.31.07-.48.09l-.65.09a14.6,14.6,0,0,1-1.55.1,14.26,14.26,0,0,1-3.67-.47,14.12,14.12,0,0,1-4-1.77,14.37,14.37,0,0,1-1.86-1.48,7.25,7.25,0,0,1-1.43-1.82A1.74,1.74,0,0,1,42,11.23a2.36,2.36,0,0,1,1.48-1A8.29,8.29,0,0,1,44.69,10c.43-.06.93-.09,1.39-.14,1-.07,1.9-.1,2.86-.08a29.63,29.63,0,0,1,5.7.71,27.81,27.81,0,0,1,10,4.41,9.54,9.54,0,0,1,2.93,3.24A3.19,3.19,0,0,1,67.64,21a4.84,4.84,0,0,1-2,1.91,10.58,10.58,0,0,1-2.34,1c-.67.19-1.31.3-1.69.39l-.62.1-.2,0a5.26,5.26,0,0,1-.57.1c-.5.07-1.24.17-2.19.22a31.21,31.21,0,0,1-8-.68,49.22,49.22,0,0,1-5.3-1.46c-1.89-.63-3.85-1.36-5.8-2.23a29.82,29.82,0,0,1-5.59-3.2,11.43,11.43,0,0,1-3.94-4.72,7.69,7.69,0,0,1-.38-5.81,9.31,9.31,0,0,1,4.07-4.27c.44-.28.91-.5,1.36-.75s.94-.45,1.42-.66C36.6.62,37.29.35,38,.11h0C36.66.2,35.34.36,34,.57h0c-.65.1-1.3.23-2,.37h0c-.65.14-1.3.3-1.94.47A12.91,12.91,0,0,0,29,2.37Z"/><path class="cls-9" d="M39.1,81.27s-2.41-.67-6-1.91-8.21-3.13-12.75-5.28c-2.27-1.07-4.52-2.19-6.57-3.34q-.95-.54-1.83-1.08c.56.55,1.13,1.09,1.72,1.62,2,1.17,4.19,2.31,6.39,3.39a132.58,132.58,0,0,0,12.75,5.5c1.25.45,2.35.83,3.27,1.14,1.33.15,2.66.24,4,.26Z"/><path class="cls-10" d="M1.47,51.64l.19.1.21.14c.49.36,1.11.75,1.83,1.19s1.53,1,2.44,1.46c1.79,1,4,2.13,6.32,3.23s4.95,2.12,7.56,3.06A130.66,130.66,0,0,0,34.68,65c2,.47,3.72.8,4.91,1l1.87.36,1.88.33c1.2.19,2.91.47,5,.74a82.61,82.61,0,0,0,15.25.74,65.6,65.6,0,0,0,8.3-1l.49-.61a68.15,68.15,0,0,1-8.83,1,84,84,0,0,1-15.09-.93c-2-.29-3.75-.58-4.93-.79l-1.87-.35-1.87-.34c-1.18-.22-2.88-.54-4.9-1a136.63,136.63,0,0,1-14.63-4c-2.6-.9-5.18-1.89-7.55-2.91s-4.55-2.08-6.37-3.08l-1-.54c.83.42,1.66.83,2.5,1.23a109.41,109.41,0,0,0,10.51,4.15c3.43,1.1,6.67,2,9.49,2.66l2,.46,1.84.36c1.15.24,2.15.43,3,.55l2.61.42,2.64.26c.84.09,1.85.16,3,.23s2.49.16,3.93.19c2.88.13,6.24.1,9.83,0s7.4-.43,11.2-.84c2.56-.3,5.09-.65,7.56-1,.2-.32.38-.65.57-1l.27-.47c.24-.43.48-.86.7-1.29-3,.34-6.18.63-9.36.81-3.75.22-7.49.33-11,.32s-6.77-.14-9.56-.37c-1.4-.09-2.68-.2-3.81-.33s-2.11-.21-2.92-.32l-2.53-.33L35.27,59c-.81-.09-1.78-.24-2.9-.42l-1.78-.29-2-.37c-2.75-.5-5.91-1.28-9.28-2.21S12.46,53.56,9,52.18C6.14,51,3.35,49.71.72,48.36q.29,1.53.69,3h0l.06.21h0v0Z"/><path class="cls-11" d="M7,63.6q1.24.88,2.61,1.77a68.17,68.17,0,0,0,6.94,3.78,78.69,78.69,0,0,0,7.35,2.94c2.4.78,4.67,1.45,6.64,1.9,1,.25,1.89.45,2.7.61s1.5.31,2.09.4l1.82.32L39,75.5c.58.06,1.3.11,2.12.17s1.74.11,2.74.14c2,.1,4.36.1,6.87.06s5.17-.23,7.83-.46c1.54-.14,3.08-.31,4.59-.49h0c.64-.43,1.27-.87,1.89-1.33l.09-.06c.61-.46,1.22-.94,1.82-1.44-2.7.17-5.63.31-8.55.36-2.61,0-5.22,0-7.65-.07S46,72.15,44.1,72c-1-.08-1.85-.18-2.63-.28s-1.47-.17-2-.26l-1.76-.25-1.75-.22c-.56-.06-1.24-.16-2-.29s-1.65-.25-2.6-.44c-1.9-.33-4.1-.85-6.44-1.45s-4.78-1.43-7.2-2.34-4.77-2-6.93-3.09S6.63,61.09,5,60l-.28-.18h0c.34.64.7,1.27,1.07,1.9l0,0C6.18,62.38,6.57,63,7,63.6Z"/><path class="cls-12" d="M78.94,55.21c.23-.6.45-1.21.64-1.83a103.81,103.81,0,0,1-15.81-1.33,105.7,105.7,0,0,1-16.6-4.13c-2.2-.77-4-1.4-5.27-2l-2-.81L39.4,45c-.35-.12-.84-.32-1.46-.59l-2.26-1-1.39-.58-1.51-.72A95.88,95.88,0,0,1,18,33.55c-1.31-.86-2.53-1.83-3.75-2.77l-1.81-1.39c-.59-.47-1.15-.95-1.71-1.42a40,40,0,0,1-5.49-5.68l-.47-.64c-.29.54-.56,1.09-.83,1.64a36.42,36.42,0,0,0,5.19,6.39c.54.54,1.09,1.07,1.65,1.61l1.76,1.55c1.19,1,2.39,2.13,3.68,3.09a91.64,91.64,0,0,0,14.84,9.66c.53.28,1,.57,1.53.81l1.42.67c.89.43,1.67.79,2.31,1.09a16.24,16.24,0,0,0,1.5.67l.53.22,2.09.76c1.32.52,3.26,1.1,5.57,1.8A101,101,0,0,0,63.39,55a86.09,86.09,0,0,0,15.55.21Z"/><path class="cls-13" d="M12.24,12A18.3,18.3,0,0,0,15,20.77,45.76,45.76,0,0,0,21.28,29a52.76,52.76,0,0,0,7.91,6.73,55.43,55.43,0,0,0,7.89,4.51,53,53,0,0,0,6,2.38c.74.25,1.32.44,1.72.55l.62.17s.85.23,2.38.55a58.86,58.86,0,0,0,6.35,1A68.75,68.75,0,0,0,73.41,44,59.14,59.14,0,0,0,81.55,42c0-.86,0-1.72,0-2.57h0A61.16,61.16,0,0,1,73,41.1a68.66,68.66,0,0,1-18.35,0,58.61,58.61,0,0,1-5.91-1.14c-1.41-.35-2.2-.59-2.2-.59l-.57-.15c-.38-.08-.93-.24-1.62-.44a51.78,51.78,0,0,1-5.65-2,53.39,53.39,0,0,1-7.55-3.88,51.66,51.66,0,0,1-7.73-5.93c-4.77-4.57-9-10.16-9.5-15a12.48,12.48,0,0,1-.07-1.71h0c-.53.47-1,1-1.55,1.46C12.25,11.78,12.24,11.89,12.24,12Z"/><path class="cls-14" d="M5.08,44.82C7.2,46,8.66,46.68,8.66,46.68s1.47.69,3.71,1.6,5.28,2,8.36,2.95S26.94,53,29.3,53.47c1.18.27,2.16.46,2.85.59a4.94,4.94,0,0,0,1.1.15,4.9,4.9,0,0,0-1-.33l-2.81-.76c-2.33-.62-5.42-1.51-8.46-2.52s-6-2.16-8.23-3.11-3.64-1.66-3.64-1.66-1.45-.65-3.58-1.76C3.9,43.25,2,42.15,0,40.9c0,.29,0,.58,0,.87C1.84,43,3.61,44,5.08,44.82Z"/><path class="cls-15" d="M21.21,44.85c2,1.12,3.69,2,4.88,2.61L28,48.4l1.91.88c1.22.55,3,1.31,5.12,2.13A98.79,98.79,0,0,0,51.18,56a135.59,135.59,0,0,0,16.64,2.15c2.29.15,4.19.23,5.53.27l1.54,0a3.33,3.33,0,0,0,.55,0,2.18,2.18,0,0,0-.54-.07l-1.55-.12c-1.32-.1-3.22-.24-5.5-.45a143.68,143.68,0,0,1-16.54-2.43,100.14,100.14,0,0,1-16-4.74c-2.11-.83-3.85-1.6-5.05-2.16l-1.89-.89-1.88-.91c-1.19-.59-2.88-1.46-4.88-2.55-4-2.19-9.22-5.33-14.28-8.7C5.21,34,3.13,32.46,1.21,30.94c-.05.19-.09.39-.14.59,1.86,1.51,3.85,3,5.9,4.41C12,39.4,17.21,42.6,21.21,44.85Z"/><path class="cls-16" d="M18.2,12.17c.11.43.21.88.36,1.31L19,14.75c.16.41.28.84.46,1.24s.37.79.55,1.17.34.77.53,1.14l.61,1a17.59,17.59,0,0,0,1.17,1.86c.4.55.75,1.07,1.09,1.51l.93,1.09.59.7a2.25,2.25,0,0,0,.22.24l.9.87c.29.27.62.62,1,1l1.42,1.19A39,39,0,0,0,37,32.84a41.33,41.33,0,0,0,9.47,2.81l1.82.27,1.41.11a6.42,6.42,0,0,0,1.23,0,6.67,6.67,0,0,0-1.21-.22l-1.4-.2-1.79-.35a43.88,43.88,0,0,1-9.26-3,39.23,39.23,0,0,1-8.25-5.14l-1.37-1.18c-.4-.36-.71-.7-1-1l-.86-.86a2.69,2.69,0,0,1-.22-.23c-.13-.16-.33-.38-.59-.67l-.91-1.05c-.34-.42-.69-.92-1.08-1.45a15.7,15.7,0,0,1-1.18-1.78c-.19-.32-.4-.65-.6-1s-.36-.72-.55-1.09-.37-.75-.55-1.13-.31-.8-.48-1.2l-.46-1.23c-.15-.42-.26-.84-.38-1.26a14.67,14.67,0,0,1-.45-5.11,1.92,1.92,0,0,0,0-.22l-.56.38A15.07,15.07,0,0,0,18.2,12.17Z"/><path class="cls-17" d="M76.71,49s-1.06.08-2.65.15-3.71.11-5.84.08S64,49,62.38,48.92a17.77,17.77,0,0,0-2.66-.14,14.5,14.5,0,0,0,2.63.5c1.58.24,3.71.45,5.85.59s4.28.15,5.88.12,2.68-.08,2.68-.08,1.07-.08,2.67-.24l1.2-.14c.06-.28.12-.56.17-.84l-1.45.12C77.76,48.93,76.71,49,76.71,49Z"/><path class="cls-18" d="M80.68,34.7c-.26.09-.62.25-1.07.38a26.79,26.79,0,0,1-3.34.89,30.45,30.45,0,0,1-3.45.44,7.21,7.21,0,0,0-1.59.16,5.54,5.54,0,0,0,1.6.21,22.51,22.51,0,0,0,3.54-.16,23.8,23.8,0,0,0,3.5-.72c.47-.11.85-.26,1.12-.34l.24-.08c0-.31-.1-.62-.15-.93Z"/></g><path class="cls-19" d="M8.57,19.64a40.78,40.78,0,0,1,73,21.29A40.78,40.78,0,1,0,.16,44.31,40.57,40.57,0,0,1,8.57,19.64Z"/><path class="cls-20" d="M39.27,8.39c.61,2.3-2.33,5.08-6.58,6.22s-8.18.21-8.8-2.09,2.33-5.07,6.57-6.21S38.65,6.1,39.27,8.39Z"/><path class="cls-21" d="M50.63,8.46c-.21,1.29-2.33,2-4.72,1.62S41.75,8.31,42,7,44.3,5,46.69,5.4,50.85,7.17,50.63,8.46Z"/><path class="cls-22" d="M67.35,36.6A14.6,14.6,0,0,1,64.09,36c-4.17-1.33-7.9-3.94-12.19-4.8-4.82-1-9.79.38-14.44,2s-9.31,3.52-14.22,3.72S13,35.14,10.62,30.81C4.38,19.22,21.46,8.6,30.49,5.94a36.58,36.58,0,0,1,32.4,6c4.08,3.12,7,6.94,10,11.08a13.2,13.2,0,0,1,2.43,9C74.75,36,71,36.89,67.35,36.6Z"/></g></g></svg>