<svg xmlns="http://www.w3.org/2000/svg" viewBox="0 0 500 500"><defs><style>.cls-1{isolation:isolate;}.cls-2{opacity:0.5;}.cls-3{fill:#fff;}.cls-4{opacity:0.49;}.cls-5{fill:#d8ceed;}.cls-6{opacity:0.3;}.cls-7{mix-blend-mode:soft-light;}</style></defs><title>u-bg</title><g class="cls-1"><g id="Capa_1" data-name="Capa 1"><g class="cls-2"><path class="cls-3" d="M41.53,151.72a2.35,2.35,0,1,1,2.35-2.35A2.35,2.35,0,0,1,41.53,151.72Z"/><path class="cls-3" d="M28.52,122.44a1.32,1.32,0,1,1,1.32-1.31A1.31,1.31,0,0,1,28.52,122.44Z"/><path class="cls-3" d="M16.38,95.91A3.94,3.94,0,1,1,20.33,92,3.94,3.94,0,0,1,16.38,95.91Z"/><path class="cls-3" d="M63.44,80.14a2.44,2.44,0,1,1,2.44-2.44A2.44,2.44,0,0,1,63.44,80.14Z"/><path class="cls-3" d="M54.87,247.72a2.26,2.26,0,1,1,2.25-2.25A2.25,2.25,0,0,1,54.87,247.72Z"/><path class="cls-3" d="M58.62,255.48a1.5,1.5,0,1,1,1.5-1.5A1.5,1.5,0,0,1,58.62,255.48Z"/><path class="cls-3" d="M84.28,261.24a2.88,2.88,0,1,1,2.88-2.88A2.88,2.88,0,0,1,84.28,261.24Z"/><path class="cls-3" d="M83,224.25A1.28,1.28,0,1,1,84.28,223,1.28,1.28,0,0,1,83,224.25Z"/><path class="cls-3" d="M35.09,350.34a3,3,0,1,1,3-3A3,3,0,0,1,35.09,350.34Z"/><path class="cls-3" d="M81.78,367.86a3.38,3.38,0,1,1,3.38-3.37A3.37,3.37,0,0,1,81.78,367.86Z"/><path class="cls-3" d="M113.56,298.78a2.13,2.13,0,1,1,2.13-2.13A2.12,2.12,0,0,1,113.56,298.78Z"/><path class="cls-3" d="M120.2,290.77a2.5,2.5,0,1,1,2.5-2.5A2.51,2.51,0,0,1,120.2,290.77Z"/><circle class="cls-3" cx="127.08" cy="333.95" r="4.38" transform="translate(-227.17 380.63) rotate(-76.67)"/><circle class="cls-3" cx="113.56" cy="334.2" r="2.13"/><path class="cls-3" d="M143.73,220.94a2.26,2.26,0,1,1,2.25-2.26A2.26,2.26,0,0,1,143.73,220.94Z"/><path class="cls-3" d="M129.9,179.26a2.82,2.82,0,1,1,2.81-2.81A2.81,2.81,0,0,1,129.9,179.26Z"/><circle class="cls-3" cx="133.46" cy="187.4" r="2"/><path class="cls-3" d="M29.42,376.48a2.67,2.67,0,1,1,2.67-2.67A2.68,2.68,0,0,1,29.42,376.48Z"/><path class="cls-3" d="M46.62,393.22a1.88,1.88,0,1,1,1.87-1.87A1.88,1.88,0,0,1,46.62,393.22Z"/><path class="cls-3" d="M85.55,397a3.78,3.78,0,1,1,3.77-3.78A3.77,3.77,0,0,1,85.55,397Z"/><circle class="cls-3" cx="30.67" cy="433.39" r="1.42"/><path class="cls-3" d="M148.27,326.15a2.3,2.3,0,1,1,2.29-2.29A2.3,2.3,0,0,1,148.27,326.15Z"/><path class="cls-3" d="M137.39,148.77a1.93,1.93,0,1,1,1.93-1.93A1.92,1.92,0,0,1,137.39,148.77Z"/><path class="cls-3" d="M102.56,88a1.76,1.76,0,1,1,1.76-1.76A1.76,1.76,0,0,1,102.56,88Z"/><g class="cls-4"><path class="cls-5" d="M438.94,49a1.22,1.22,0,1,1,1.21-1.21A1.22,1.22,0,0,1,438.94,49Z"/><circle class="cls-5" cx="456.16" cy="22.7" r="0.84"/><circle class="cls-5" cx="458.31" cy="38.89" r="1.31"/><circle class="cls-5" cx="223.19" cy="418.73" r="1.56"/><path class="cls-5" d="M220.85,411.16a1.23,1.23,0,1,1-1.22,1.23A1.23,1.23,0,0,1,220.85,411.16Z"/><path class="cls-5" d="M226.53,410.05a1.78,1.78,0,1,1-1.78,1.78A1.78,1.78,0,0,1,226.53,410.05Z"/><path class="cls-5" d="M225.64,434.09a.89.89,0,1,1-.89.89A.89.89,0,0,1,225.64,434.09Z"/><path class="cls-5" d="M237.49,421.07a.95.95,0,1,1-.94.94A.95.95,0,0,1,237.49,421.07Z"/><path class="cls-5" d="M224,387.12a.78.78,0,1,1-.78.78A.78.78,0,0,1,224,387.12Z"/><circle class="cls-5" cx="233.32" cy="386.79" r="1.11"/><path class="cls-5" d="M227,394.24a1.34,1.34,0,1,1-1.33,1.34A1.34,1.34,0,0,1,227,394.24Z"/><path class="cls-5" d="M262,373.43a1.62,1.62,0,1,1-1.62,1.62A1.62,1.62,0,0,1,262,373.43Z"/><circle class="cls-5" cx="256.88" cy="372.01" r="1.42"/><path class="cls-5" d="M261.17,367.26a.81.81,0,1,1-.81.8A.81.81,0,0,1,261.17,367.26Z"/><path class="cls-5" d="M340,156a1.61,1.61,0,1,1-1.61,1.61A1.61,1.61,0,0,1,340,156Z"/><path class="cls-5" d="M333.28,148.09a1.29,1.29,0,1,1-1.29,1.29A1.28,1.28,0,0,1,333.28,148.09Z"/><path class="cls-5" d="M343.19,146.27a1.56,1.56,0,1,1-1.56,1.55A1.55,1.55,0,0,1,343.19,146.27Z"/><path class="cls-5" d="M334.56,136.52a1.29,1.29,0,1,1,0,2.57,1.29,1.29,0,0,1,0-2.57Z"/><path class="cls-5" d="M353,170.8a1.72,1.72,0,1,1-1.71,1.72A1.71,1.71,0,0,1,353,170.8Z"/><circle class="cls-5" cx="364.45" cy="116.92" r="2.89"/><circle class="cls-5" cx="205.79" cy="70.32" r="1.07"/><path class="cls-5" d="M192,61.75a1.39,1.39,0,1,1-1.39,1.39A1.4,1.4,0,0,1,192,61.75Z"/><path class="cls-5" d="M203.44,59.17a1.29,1.29,0,1,1-1.29,1.29A1.28,1.28,0,0,1,203.44,59.17Z"/><path class="cls-5" d="M194.49,52a1.13,1.13,0,1,1-1.12,1.12A1.13,1.13,0,0,1,194.49,52Z"/><path class="cls-5" d="M19.7,69.49a.66.66,0,0,1,.65.66.65.65,0,0,1-.65.65.66.66,0,0,1-.66-.65A.67.67,0,0,1,19.7,69.49Z"/><circle class="cls-5" cx="17.15" cy="67.31" r="0.44"/><path class="cls-5" d="M19.7,64.26a.66.66,0,1,1-.66.66A.66.66,0,0,1,19.7,64.26Z"/><path class="cls-5" d="M15.34,57.43A1.38,1.38,0,1,1,14,58.81,1.38,1.38,0,0,1,15.34,57.43Z"/><path class="cls-5" d="M14.65,53.58a.69.69,0,1,1-.69.69A.69.69,0,0,1,14.65,53.58Z"/><path class="cls-5" d="M19,53.8a1.38,1.38,0,1,1-1.38,1.38A1.38,1.38,0,0,1,19,53.8Z"/><path class="cls-5" d="M14.65,46.6a.69.69,0,1,1-.69.69A.69.69,0,0,1,14.65,46.6Z"/><path class="cls-5" d="M18.46,80.25a.15.15,0,0,1,.15.14.15.15,0,0,1-.15.15.15.15,0,0,1-.14-.15A.14.14,0,0,1,18.46,80.25Z"/><path class="cls-5" d="M24.17,75.82a.61.61,0,0,1,.61.61.61.61,0,0,1-.61.62.62.62,0,0,1-.62-.62A.61.61,0,0,1,24.17,75.82Z"/><path class="cls-5" d="M11.76,134.58a.8.8,0,1,1-.8.8A.8.8,0,0,1,11.76,134.58Z"/><path class="cls-5" d="M19,173.89a.69.69,0,1,1-.69.69A.69.69,0,0,1,19,173.89Z"/><path class="cls-5" d="M90.27,32a1.77,1.77,0,1,1-1.76,1.76A1.76,1.76,0,0,1,90.27,32Z"/><circle class="cls-5" cx="84.71" cy="28.71" r="1.15"/><circle class="cls-5" cx="91.15" cy="25.44" r="0.88"/><circle class="cls-5" cx="82.51" cy="17.5" r="1.06"/><path class="cls-5" d="M70.86,16.44A1.06,1.06,0,1,1,69.8,17.5,1.06,1.06,0,0,1,70.86,16.44Z"/><path class="cls-5" d="M142.78,402a1.7,1.7,0,1,1-1.7,1.69A1.69,1.69,0,0,1,142.78,402Z"/><circle class="cls-5" cx="150.62" cy="401.81" r="1.91"/><path class="cls-5" d="M147.87,417a.85.85,0,1,1-.85.85A.85.85,0,0,1,147.87,417Z"/><path class="cls-5" d="M157.82,412.39a2.32,2.32,0,1,1-2.32,2.32A2.32,2.32,0,0,1,157.82,412.39Z"/><path class="cls-5" d="M165,399.9a1.91,1.91,0,1,1-1.91,1.91A1.91,1.91,0,0,1,165,399.9Z"/><path class="cls-5" d="M159,386.36a1.16,1.16,0,1,1-1.17,1.16A1.16,1.16,0,0,1,159,386.36Z"/><path class="cls-5" d="M136.63,447.4a2.34,2.34,0,1,1-2.33,2.33A2.33,2.33,0,0,1,136.63,447.4Z"/><path class="cls-5" d="M127.72,437.22a1.49,1.49,0,1,1,0,3,1.49,1.49,0,0,1,0-3Z"/><path class="cls-5" d="M421.9,335.54a1,1,0,1,1-1,1A1,1,0,0,1,421.9,335.54Z"/><path class="cls-5" d="M415.6,330.35a1.78,1.78,0,1,1-1.79,1.78A1.78,1.78,0,0,1,415.6,330.35Z"/><circle class="cls-5" cx="425.39" cy="324.71" r="0.89"/><path class="cls-5" d="M419.16,317.29a1.78,1.78,0,1,1-1.78,1.78A1.78,1.78,0,0,1,419.16,317.29Z"/><path class="cls-5" d="M410.25,301a1.78,1.78,0,1,1-1.78,1.78A1.77,1.77,0,0,1,410.25,301Z"/><circle class="cls-5" cx="429.39" cy="297.85" r="3.12"/><path class="cls-5" d="M422.38,282.79a.48.48,0,1,1-.48.48A.48.48,0,0,1,422.38,282.79Z"/><path class="cls-5" d="M394,336.5a1.82,1.82,0,1,1-1.82,1.82A1.83,1.83,0,0,1,394,336.5Z"/><circle class="cls-5" cx="402.39" cy="323.67" r="1.93"/></g><g class="cls-6"><path class="cls-5" d="M470,103.42a.46.46,0,0,1,.45-.46.47.47,0,0,1,.46.46.46.46,0,0,1-.46.45A.45.45,0,0,1,470,103.42Z"/><circle class="cls-5" cx="468.53" cy="104.47" r="0.1"/><path class="cls-5" d="M469.76,105.55a.1.1,0,0,1,.2,0,.1.1,0,1,1-.2,0Z"/><path class="cls-5" d="M468,98.77a.11.11,0,0,1,.11-.1.11.11,0,0,1,.1.1.11.11,0,0,1-.1.11A.11.11,0,0,1,468,98.77Z"/><path class="cls-5" d="M471.26,100.4a.09.09,0,0,1,.09-.09.09.09,0,1,1,0,.18A.09.09,0,0,1,471.26,100.4Z"/><circle class="cls-5" cx="467.94" cy="101.55" r="0.1"/><path class="cls-5" d="M497.85,128.66a.72.72,0,1,1,.72.72A.72.72,0,0,1,497.85,128.66Z"/><path class="cls-5" d="M498.57,124.3a.36.36,0,1,1,.36.36A.36.36,0,0,1,498.57,124.3Z"/><path class="cls-5" d="M460.11,151.81a.69.69,0,1,1,.69.68A.69.69,0,0,1,460.11,151.81Z"/><path class="cls-5" d="M455.37,231.68a.63.63,0,1,1,.63.62A.63.63,0,0,1,455.37,231.68Z"/><circle class="cls-5" cx="464.25" cy="232.53" r="0.85"/><path class="cls-5" d="M449.64,237.05a.92.92,0,1,1,.92.91A.92.92,0,0,1,449.64,237.05Z"/><path class="cls-5" d="M491.17,268.81a.72.72,0,1,1,.72.72A.72.72,0,0,1,491.17,268.81Z"/><circle class="cls-5" cx="482.16" cy="274.93" r="0.49"/><circle class="cls-5" cx="477.02" cy="307.91" r="0.92" transform="translate(96.86 729.61) rotate(-80.81)"/><circle class="cls-5" cx="493.92" cy="311.97" r="0.79"/><circle class="cls-5" cx="482.72" cy="319.89" r="0.72"/><circle class="cls-5" cx="489.76" cy="300.35" r="0.49"/><path class="cls-5" d="M491,349.33a.49.49,0,1,1,.49.49A.49.49,0,0,1,491,349.33Z"/><circle class="cls-5" cx="467.36" cy="349.33" r="0.49"/><path class="cls-5" d="M369.08,451.5a1.22,1.22,0,1,1,1.22,1.22A1.22,1.22,0,0,1,369.08,451.5Z"/><circle class="cls-5" cx="395.38" cy="468.72" r="0.84"/><circle class="cls-5" cx="379.19" cy="470.87" r="1.31"/><circle class="cls-5" cx="439.09" cy="470.87" r="1.31"/><path class="cls-5" d="M488,433.62a1.51,1.51,0,1,1,1.5,1.5A1.51,1.51,0,0,1,488,433.62Z"/><path class="cls-5" d="M471.1,413.79a1.12,1.12,0,1,1,1.12,1.12A1.13,1.13,0,0,1,471.1,413.79Z"/><circle class="cls-5" cx="414.66" cy="418.75" r="1.4"/><path class="cls-5" d="M31,236.53a.78.78,0,1,1-.78-.78A.78.78,0,0,1,31,236.53Z"/><circle class="cls-5" cx="31.29" cy="245.89" r="1.11"/><path class="cls-5" d="M23.83,239.54a1.34,1.34,0,0,1-2.67,0,1.34,1.34,0,1,1,2.67,0Z"/><path class="cls-5" d="M44.65,274.54A1.62,1.62,0,1,1,43,272.93,1.62,1.62,0,0,1,44.65,274.54Z"/><circle class="cls-5" cx="46.06" cy="269.45" r="1.42"/><path class="cls-5" d="M50.82,273.73a.81.81,0,1,1-.8-.8A.8.8,0,0,1,50.82,273.73Z"/><path class="cls-5" d="M262.06,352.59a1.61,1.61,0,1,1-1.61-1.61A1.61,1.61,0,0,1,262.06,352.59Z"/><path class="cls-5" d="M270,345.84a1.29,1.29,0,1,1-2.57,0,1.29,1.29,0,0,1,2.57,0Z"/><path class="cls-5" d="M271.81,355.75a1.56,1.56,0,1,1-1.56-1.55A1.55,1.55,0,0,1,271.81,355.75Z"/><path class="cls-5" d="M281.56,347.13a1.29,1.29,0,1,1-1.29-1.29A1.28,1.28,0,0,1,281.56,347.13Z"/><path class="cls-5" d="M247.28,365.55a1.72,1.72,0,1,1-1.72-1.71A1.72,1.72,0,0,1,247.28,365.55Z"/><circle class="cls-5" cx="301.16" cy="377.02" r="2.89" transform="translate(-162.41 510.97) rotate(-67.5)"/><circle class="cls-5" cx="347.76" cy="218.36" r="1.07"/><path class="cls-5" d="M356.33,204.54a1.39,1.39,0,1,1-1.39-1.39A1.39,1.39,0,0,1,356.33,204.54Z"/><path class="cls-5" d="M358.9,216a1.29,1.29,0,1,1-1.28-1.28A1.28,1.28,0,0,1,358.9,216Z"/><path class="cls-5" d="M366.08,207.06a1.13,1.13,0,1,1-1.12-1.13A1.12,1.12,0,0,1,366.08,207.06Z"/><path class="cls-5" d="M348.59,32.26a.67.67,0,0,1-.66.66.66.66,0,0,1-.65-.66.65.65,0,0,1,.65-.65A.66.66,0,0,1,348.59,32.26Z"/><circle class="cls-5" cx="350.77" cy="29.72" r="0.44"/><path class="cls-5" d="M353.82,32.26a.67.67,0,0,1-.66.66.66.66,0,0,1-.65-.66.65.65,0,0,1,.65-.65A.66.66,0,0,1,353.82,32.26Z"/><path class="cls-5" d="M360.65,27.9a1.38,1.38,0,1,1-1.38-1.38A1.38,1.38,0,0,1,360.65,27.9Z"/><path class="cls-5" d="M364.5,27.21a.69.69,0,1,1-.69-.69A.69.69,0,0,1,364.5,27.21Z"/><path class="cls-5" d="M364.28,31.53a1.38,1.38,0,1,1-1.38-1.38A1.38,1.38,0,0,1,364.28,31.53Z"/><path class="cls-5" d="M371.48,27.21a.7.7,0,1,1-.69-.69A.69.69,0,0,1,371.48,27.21Z"/><path class="cls-5" d="M337.83,31a.14.14,0,0,1-.14.14.15.15,0,0,1-.15-.14.15.15,0,0,1,.15-.15A.15.15,0,0,1,337.83,31Z"/><path class="cls-5" d="M342.26,36.73a.61.61,0,0,1-.61.62.62.62,0,0,1,0-1.24A.61.61,0,0,1,342.26,36.73Z"/><path class="cls-5" d="M466.42,151.21a.71.71,0,1,1-.71-.7A.71.71,0,0,1,466.42,151.21Z"/><path class="cls-5" d="M466.42,145.93a.71.71,0,1,1-.71-.7A.7.7,0,0,1,466.42,145.93Z"/><circle class="cls-5" cx="469.8" cy="142.58" r="0.99"/><path class="cls-5" d="M471.58,146.82a.89.89,0,1,1-.89-.89A.88.88,0,0,1,471.58,146.82Z"/><path class="cls-5" d="M498.88,115.65a.66.66,0,1,1-1.32,0,.66.66,0,0,1,1.32,0Z"/><path class="cls-5" d="M477.57,115.65a.66.66,0,1,1-.66-.66A.66.66,0,0,1,477.57,115.65Z"/><path class="cls-5" d="M494,185.66a1.2,1.2,0,1,1-1.2-1.2A1.2,1.2,0,0,1,494,185.66Z"/><path class="cls-5" d="M499.05,194.05a.91.91,0,1,1-.91-.91A.91.91,0,0,1,499.05,194.05Z"/><circle class="cls-5" cx="242.81" cy="15.53" r="1.02"/><circle class="cls-5" cx="255.89" cy="17.85" r="1.31"/><path class="cls-5" d="M283.5,24.32a.8.8,0,1,1-.8-.8A.8.8,0,0,1,283.5,24.32Z"/><path class="cls-5" d="M293.09,16a.51.51,0,1,1-.51-.51A.51.51,0,0,1,293.09,16Z"/><path class="cls-5" d="M244.19,31.57a.69.69,0,1,1-.69-.69A.69.69,0,0,1,244.19,31.57Z"/><path class="cls-5" d="M420.52,155a1.33,1.33,0,1,1-1.32-1.32A1.32,1.32,0,0,1,420.52,155Z"/><circle class="cls-5" cx="421.67" cy="149.37" r="1.15"/><path class="cls-5" d="M425.46,155a1.33,1.33,0,1,1-1.32-1.32A1.32,1.32,0,0,1,425.46,155Z"/><path class="cls-5" d="M431.45,146.72a1.5,1.5,0,1,1-1.49-1.49A1.5,1.5,0,0,1,431.45,146.72Z"/><path class="cls-5" d="M420.52,134.2a.66.66,0,1,1-.66-.66A.66.66,0,0,1,420.52,134.2Z"/><path class="cls-5" d="M445.49,159a2.69,2.69,0,1,1-2.69-2.69A2.7,2.7,0,0,1,445.49,159Z"/><path class="cls-5" d="M417.87,200.42a1.24,1.24,0,1,1-1.23-1.24A1.23,1.23,0,0,1,417.87,200.42Z"/><path class="cls-5" d="M386.11,102.84a1.77,1.77,0,1,1-1.77-1.77A1.76,1.76,0,0,1,386.11,102.84Z"/><circle class="cls-5" cx="389.37" cy="97.28" r="1.15"/><circle class="cls-5" cx="392.64" cy="103.72" r="0.88"/><circle class="cls-5" cx="400.58" cy="95.07" r="1.06"/><path class="cls-5" d="M401.64,83.42a1.06,1.06,0,1,1-1.06-1A1.06,1.06,0,0,1,401.64,83.42Z"/><path class="cls-5" d="M407.11,88.63a1.33,1.33,0,1,1-1.33-1.32A1.32,1.32,0,0,1,407.11,88.63Z"/><circle class="cls-5" cx="14.36" cy="155.34" r="1.7"/><circle class="cls-5" cx="16.27" cy="163.19" r="1.91"/><path class="cls-5" d="M18.17,177.61a1.91,1.91,0,1,1-1.9-1.91A1.9,1.9,0,0,1,18.17,177.61Z"/><path class="cls-5" d="M31.72,171.55a1.16,1.16,0,1,1-1.16-1.16A1.16,1.16,0,0,1,31.72,171.55Z"/><path class="cls-5" d="M82.54,434.47a1,1,0,1,1-1-1A1,1,0,0,1,82.54,434.47Z"/><path class="cls-5" d="M87.73,428.16A1.78,1.78,0,1,1,86,426.38,1.78,1.78,0,0,1,87.73,428.16Z"/><path class="cls-5" d="M94.26,438a.89.89,0,1,1-.89-.89A.89.89,0,0,1,94.26,438Z"/><path class="cls-5" d="M100.79,431.72A1.78,1.78,0,1,1,99,429.94,1.78,1.78,0,0,1,100.79,431.72Z"/><path class="cls-5" d="M117.11,422.82a1.78,1.78,0,1,1-1.78-1.78A1.78,1.78,0,0,1,117.11,422.82Z"/><circle class="cls-5" cx="120.23" cy="441.96" r="3.12"/><path class="cls-5" d="M135.29,435a.48.48,0,1,1-1,0,.48.48,0,1,1,1,0Z"/><path class="cls-5" d="M81.58,406.53a1.82,1.82,0,1,1-1.82-1.82A1.82,1.82,0,0,1,81.58,406.53Z"/><circle class="cls-5" cx="94.41" cy="414.95" r="1.93"/></g><g class="cls-7"><path class="cls-5" d="M59.27,496.79A1.22,1.22,0,1,1,58.06,498,1.21,1.21,0,0,1,59.27,496.79Z"/><path class="cls-5" d="M429.94,32.57a1.22,1.22,0,1,1,1.21-1.22A1.22,1.22,0,0,1,429.94,32.57Z"/><path class="cls-5" d="M449.31,23.77a1.31,1.31,0,1,1,1.31-1.31A1.31,1.31,0,0,1,449.31,23.77Z"/><circle class="cls-5" cx="275.02" cy="127.05" r="1.56"/><path class="cls-5" d="M277.36,134.62a1.23,1.23,0,1,1,1.22-1.22A1.23,1.23,0,0,1,277.36,134.62Z"/><path class="cls-5" d="M271.68,135.73a1.78,1.78,0,1,1,1.78-1.78A1.78,1.78,0,0,1,271.68,135.73Z"/><path class="cls-5" d="M272.57,111.69a.89.89,0,1,1,.89-.89A.89.89,0,0,1,272.57,111.69Z"/><path class="cls-5" d="M260.72,124.72a1,1,0,1,1,.95-1A1,1,0,0,1,260.72,124.72Z"/><path class="cls-5" d="M274.24,158.66a.78.78,0,1,1,.78-.78A.78.78,0,0,1,274.24,158.66Z"/><circle class="cls-5" cx="264.89" cy="158.99" r="1.11"/><path class="cls-5" d="M271.24,151.54a1.34,1.34,0,1,1,1.33-1.34A1.34,1.34,0,0,1,271.24,151.54Z"/><path class="cls-5" d="M236.24,172.35a1.62,1.62,0,1,1,1.61-1.61A1.61,1.61,0,0,1,236.24,172.35Z"/><circle class="cls-5" cx="241.33" cy="173.77" r="1.42"/><path class="cls-5" d="M237,178.53a.81.81,0,1,1,.81-.81A.81.81,0,0,1,237,178.53Z"/><path class="cls-5" d="M158.18,389.76a1.61,1.61,0,1,1,1.61-1.6A1.6,1.6,0,0,1,158.18,389.76Z"/><path class="cls-5" d="M164.93,397.69a1.29,1.29,0,1,1,1.29-1.29A1.28,1.28,0,0,1,164.93,397.69Z"/><path class="cls-5" d="M155,399.51a1.56,1.56,0,1,1,1.56-1.55A1.55,1.55,0,0,1,155,399.51Z"/><path class="cls-5" d="M163.65,409.26a1.29,1.29,0,1,1,0-2.57,1.29,1.29,0,0,1,0,2.57Z"/><path class="cls-5" d="M145.22,375a1.72,1.72,0,1,1,1.72-1.72A1.72,1.72,0,0,1,145.22,375Z"/><circle class="cls-5" cx="133.76" cy="428.87" r="2.89"/><circle class="cls-5" cx="292.42" cy="475.47" r="1.07"/><path class="cls-5" d="M306.24,484a1.4,1.4,0,1,1,0-2.79,1.4,1.4,0,0,1,0,2.79Z"/><path class="cls-5" d="M294.77,486.61a1.29,1.29,0,1,1,1.29-1.29A1.28,1.28,0,0,1,294.77,486.61Z"/><path class="cls-5" d="M303.72,493.79a1.13,1.13,0,1,1,0-2.25,1.13,1.13,0,0,1,0,2.25Z"/><path class="cls-5" d="M478.51,476.29a.66.66,0,1,1,.66-.65A.65.65,0,0,1,478.51,476.29Z"/><circle class="cls-5" cx="481.06" cy="478.47" r="0.44"/><path class="cls-5" d="M478.51,481.52a.65.65,0,0,1-.65-.65.66.66,0,1,1,.65.65Z"/><path class="cls-5" d="M479.75,465.53a.15.15,0,0,1-.15-.14.15.15,0,0,1,.15-.15.15.15,0,0,1,.14.15A.14.14,0,0,1,479.75,465.53Z"/><path class="cls-5" d="M474,470a.62.62,0,1,1,.62-.62A.61.61,0,0,1,474,470Z"/><circle class="cls-5" cx="495.25" cy="370.51" r="1.02"/><circle class="cls-5" cx="492.92" cy="383.59" r="1.31"/><path class="cls-5" d="M486.45,411.2a.8.8,0,1,1,.8-.8A.8.8,0,0,1,486.45,411.2Z"/><path class="cls-5" d="M494.74,420.79a.51.51,0,1,1,.51-.5A.5.5,0,0,1,494.74,420.79Z"/><path class="cls-5" d="M479.2,371.89a.69.69,0,1,1,.69-.69A.69.69,0,0,1,479.2,371.89Z"/><path class="cls-5" d="M357.8,405.22a1.32,1.32,0,1,1,1.32-1.32A1.32,1.32,0,0,1,357.8,405.22Z"/><circle class="cls-5" cx="363.41" cy="406.37" r="1.15"/><path class="cls-5" d="M357.8,410.16a1.32,1.32,0,1,1,1.32-1.32A1.32,1.32,0,0,1,357.8,410.16Z"/><path class="cls-5" d="M366.05,416.16a1.5,1.5,0,1,1,1.5-1.5A1.5,1.5,0,0,1,366.05,416.16Z"/><path class="cls-5" d="M378.57,405.22a.66.66,0,0,1,0-1.32.66.66,0,1,1,0,1.32Z"/><path class="cls-5" d="M353.78,430.19a2.69,2.69,0,1,1,2.69-2.69A2.68,2.68,0,0,1,353.78,430.19Z"/><path class="cls-5" d="M315.2,295.34a.7.7,0,1,1,0-1A.7.7,0,0,1,315.2,295.34Z"/><path class="cls-5" d="M319,291.68a.7.7,0,1,1-1-1,.7.7,0,1,1,1,1Z"/><circle class="cls-5" cx="323.77" cy="291.8" r="0.99"/><path class="cls-5" d="M322,296a.89.89,0,1,1,0-1.26A.9.9,0,0,1,322,296Z"/><path class="cls-5" d="M363.33,294.1a.64.64,0,0,1-.93,0,.66.66,0,0,1,1-.91A.64.64,0,0,1,363.33,294.1Z"/><path class="cls-5" d="M369.41,300a.33.33,0,1,1,0-.47A.33.33,0,0,1,369.41,300Z"/><path class="cls-5" d="M348.56,278.74a.66.66,0,0,1-.93,0,.67.67,0,0,1,0-.94.66.66,0,0,1,.91,1Z"/><path class="cls-5" d="M354.37,317.73a1.2,1.2,0,0,1-1.7,0,1.2,1.2,0,1,1,1.7,0Z"/><path class="cls-5" d="M280.68,264.86a1.33,1.33,0,1,1,0-1.87A1.33,1.33,0,0,1,280.68,264.86Z"/><circle class="cls-5" cx="285.52" cy="261.8" r="1.15"/><path class="cls-5" d="M284.1,268.42a1.32,1.32,0,1,1,0-1.87A1.32,1.32,0,0,1,284.1,268.42Z"/><path class="cls-5" d="M294.21,267a1.5,1.5,0,1,1,0-2.11A1.5,1.5,0,0,1,294.21,267Z"/><path class="cls-5" d="M295.66,250.46a.66.66,0,1,1-.92-1,.64.64,0,0,1,.93,0A.65.65,0,0,1,295.66,250.46Z"/><path class="cls-5" d="M295.09,285.64a2.69,2.69,0,1,1,.07-3.8A2.7,2.7,0,0,1,295.09,285.64Z"/><circle class="cls-5" cx="310.05" cy="208.97" r="1.06"/><path class="cls-5" d="M319.22,209.21a1.33,1.33,0,1,1,0-1.87A1.32,1.32,0,0,1,319.22,209.21Z"/><circle class="cls-5" cx="355.43" cy="142.06" r="1.7"/><circle class="cls-5" cx="347.59" cy="143.97" r="1.91"/><path class="cls-5" d="M350.34,128.75a.85.85,0,1,1,.85-.85A.85.85,0,0,1,350.34,128.75Z"/><path class="cls-5" d="M340.39,133.4a2.33,2.33,0,1,1,2.32-2.33A2.33,2.33,0,0,1,340.39,133.4Z"/><path class="cls-5" d="M333.17,145.88a1.91,1.91,0,1,1,1.91-1.91A1.92,1.92,0,0,1,333.17,145.88Z"/><path class="cls-5" d="M339.23,159.43a1.17,1.17,0,1,1,1.16-1.17A1.17,1.17,0,0,1,339.23,159.43Z"/><path class="cls-5" d="M361.58,98.38a2.33,2.33,0,1,1,2.34-2.33A2.33,2.33,0,0,1,361.58,98.38Z"/><circle class="cls-5" cx="370.49" cy="107.07" r="1.48"/><path class="cls-5" d="M76.31,210.24a1,1,0,1,1,1-1A1,1,0,0,1,76.31,210.24Z"/><path class="cls-5" d="M82.62,215.44a1.78,1.78,0,1,1,1.78-1.78A1.78,1.78,0,0,1,82.62,215.44Z"/><path class="cls-5" d="M72.82,222a.89.89,0,1,1,.89-.89A.89.89,0,0,1,72.82,222Z"/><path class="cls-5" d="M79.06,228.49a1.78,1.78,0,1,1,1.78-1.78A1.78,1.78,0,0,1,79.06,228.49Z"/><path class="cls-5" d="M88,244.82A1.78,1.78,0,1,1,89.74,243,1.78,1.78,0,0,1,88,244.82Z"/><circle class="cls-5" cx="68.82" cy="247.93" r="3.12"/><path class="cls-5" d="M75.83,263a.47.47,0,0,1-.48-.48.48.48,0,0,1,.48-.48.49.49,0,0,1,.48.48A.48.48,0,0,1,75.83,263Z"/><path class="cls-5" d="M104.24,209.28a1.82,1.82,0,1,1,1.82-1.82A1.82,1.82,0,0,1,104.24,209.28Z"/><circle class="cls-5" cx="95.82" cy="222.11" r="1.93"/><path class="cls-5" d="M200.31,281.24a1,1,0,1,1,1-1A1,1,0,0,1,200.31,281.24Z"/><path class="cls-5" d="M206.62,286.44a1.78,1.78,0,1,1,1.78-1.78A1.78,1.78,0,0,1,206.62,286.44Z"/><path class="cls-5" d="M196.82,293a.89.89,0,1,1,.89-.89A.89.89,0,0,1,196.82,293Z"/><path class="cls-5" d="M203.06,299.49a1.78,1.78,0,1,1,1.78-1.78A1.78,1.78,0,0,1,203.06,299.49Z"/><path class="cls-5" d="M212,315.82a1.78,1.78,0,1,1,1.78-1.78A1.78,1.78,0,0,1,212,315.82Z"/><circle class="cls-5" cx="192.82" cy="318.93" r="3.12"/><path class="cls-5" d="M199.83,334a.47.47,0,0,1-.48-.48.48.48,0,0,1,.48-.48.49.49,0,0,1,.48.48A.48.48,0,0,1,199.83,334Z"/><path class="cls-5" d="M228.24,280.28a1.82,1.82,0,1,1,1.82-1.82A1.82,1.82,0,0,1,228.24,280.28Z"/><circle class="cls-5" cx="219.82" cy="293.11" r="1.93"/></g></g></g></g></svg>