<svg id="圖層_1" data-name="圖層 1" xmlns="http://www.w3.org/2000/svg" viewBox="0 0 400 400"><defs><style>.cls-1{fill:#fff;}.cls-2{fill:#ccc;}</style></defs><title>logo_icon</title><path class="cls-1" d="M200,0C89.54,0,0,89.54,0,200A199,199,0,0,0,29.92,305.25,200,200,0,0,0,400,200C400,89.54,310.46,0,200,0ZM344.1,306.19A179,179,0,1,1,379,200,179.61,179.61,0,0,1,344.1,306.19Z"/><path class="cls-1" d="M124.46,199.88a109.62,109.62,0,0,1,214.29-6.42,138.89,138.89,0,1,0-255.37,82A106.82,106.82,0,0,1,124.46,199.88Z"/><path class="cls-2" d="M125.21,242.87a109.23,109.23,0,0,1-.75-43,106.82,106.82,0,0,0-41.08,75.6,139.16,139.16,0,0,0,52.28,47.6A106,106,0,0,1,138.9,277,109.6,109.6,0,0,1,125.21,242.87Z"/><path class="cls-1" d="M188.78,172.62l-1.84,0c-24.54.87-44.56,21.14-44.28,45.69,0,.13,0,.26,0,.39a94.65,94.65,0,0,0,5.8,31.27A92.33,92.33,0,0,1,261.83,206.7,92.09,92.09,0,0,0,188.78,172.62Z"/><path class="cls-1" d="M138.9,277a106,106,0,0,0-3.24,46.13A139.08,139.08,0,0,0,258.55,326c-1,.24-1.95.46-2.93.68A109.64,109.64,0,0,1,138.9,277Z"/></svg>