<svg id="圖層_1" data-name="圖層 1" xmlns="http://www.w3.org/2000/svg" viewBox="0 0 32 32"><defs><style>.cls-1{fill:#fff;}.cls-2{fill:#333;}.cls-3{fill:#999;}</style></defs><title>網站圖標</title><circle class="cls-1" cx="16" cy="16" r="15"/><path class="cls-2" d="M16,0A16,16,0,0,0,2.39,24.42a16.17,16.17,0,0,0,4.74,4.9A16,16,0,1,0,16,0ZM26.47,23.71a13.08,13.08,0,0,1-5.1,4.13A13,13,0,0,1,8.3,26.47a13,13,0,1,1,18.17-2.76Z"/><path class="cls-2" d="M10.56,16A7.9,7.9,0,0,1,26,15.53a10.65,10.65,0,0,0-.22-1.66A10,10,0,1,0,7.59,21.44,7.7,7.7,0,0,1,10.56,16Z"/><path class="cls-3" d="M10.61,19.09a7.72,7.72,0,0,1,0-3.1,7.7,7.7,0,0,0-3,5.45,10.09,10.09,0,0,0,3.77,3.43,7.55,7.55,0,0,1,.24-3.32A7.7,7.7,0,0,1,10.61,19.09Z"/><path class="cls-2" d="M15.19,14h-.13a3.29,3.29,0,0,0-3.19,3.29v0a6.71,6.71,0,0,0,.42,2.25,6.68,6.68,0,0,1,8.17-3.12A6.65,6.65,0,0,0,15.19,14Z"/><path class="cls-2" d="M11.6,21.55a7.55,7.55,0,0,0-.24,3.32,10,10,0,0,0,6.77.91,10.27,10.27,0,0,0,2.09-.7l-.21.05A7.9,7.9,0,0,1,11.6,21.55Z"/></svg>