<svg xmlns="http://www.w3.org/2000/svg" xmlns:xlink="http://www.w3.org/1999/xlink" viewBox="0 0 750 500"><defs><style>.cls-1{fill:none;}.cls-2{isolation:isolate;}.cls-3{clip-path:url(#clip-path);}.cls-4{fill:#28003c;}.cls-5{fill:url(#Gradiente_sem_nome_77);}.cls-6{opacity:0.06;fill:url(#Gradiente_sem_nome_80);}.cls-7{fill:#85cee0;}.cls-10,.cls-7{opacity:0.1;}.cls-8{fill:#68324c;opacity:0.38;}.cls-17,.cls-8{mix-blend-mode:soft-light;}.cls-10,.cls-11,.cls-12,.cls-9{fill:#cc569d;}.cls-9{opacity:0.04;}.cls-11{opacity:0.18;}.cls-12{opacity:0.11;}.cls-13{opacity:0.27;fill:url(#Gradiente_sem_nome_79);}.cls-14{opacity:0.49;}.cls-15{fill:#d8ceed;}.cls-16{opacity:0.3;}</style><clipPath id="clip-path"><rect class="cls-1" width="750" height="500"/></clipPath><linearGradient id="Gradiente_sem_nome_77" x1="375" y1="500" x2="375" gradientUnits="userSpaceOnUse"><stop offset="0.04" stop-color="#78358f"/><stop offset="0.12" stop-color="#5e2c83"/><stop offset="0.23" stop-color="#472479"/><stop offset="0.33" stop-color="#361e71"/><stop offset="0.45" stop-color="#2c1a6c"/><stop offset="0.6" stop-color="#29196b"/></linearGradient><linearGradient id="Gradiente_sem_nome_80" x1="-164.58" y1="-5.65" x2="730.84" y2="-5.65" gradientTransform="translate(72.14 -70.6) rotate(13.24)" gradientUnits="userSpaceOnUse"><stop offset="0.03" stop-color="#1caba4"/><stop offset="0.52" stop-color="#78358f"/><stop offset="0.64" stop-color="#635094"/><stop offset="0.9" stop-color="#2d95a0"/><stop offset="1" stop-color="#15b3a5"/></linearGradient><linearGradient id="Gradiente_sem_nome_79" x1="-17.99" y1="366.25" x2="808.95" y2="366.25" gradientUnits="userSpaceOnUse"><stop offset="0.04" stop-color="#78358f"/><stop offset="0.23" stop-color="#662f87"/><stop offset="0.74" stop-color="#3a1f73"/><stop offset="1" stop-color="#29196b"/></linearGradient></defs><title>bg</title><g class="cls-2"><g id="BACKGROUND"><g class="cls-3"><rect class="cls-4" width="750" height="500"/><rect class="cls-5" width="750" height="500"/><path class="cls-6" d="M1.25-141.45c5.84-4.58,73.05-22.09,97.2-3.32s15.26,46.44,45.65,48.83,42.87-20.31,74.71-8.93,74.7-19,145.16,55.9,121.5,4.68,137.81-3.93S572.3-119.52,650.39-128c93.93-10.2,162.68,16.85,162.68,77.55S784.88,44.1,784.88,44.1s-50-35.56-93.62-22S634.14,97.91,569.18,95.72,479,54.26,428.33,51.87,322.92,128,223.52,149.65,82.6,89.57-13.94,80-116-7.16-105.7-30.91,1.25-141.45,1.25-141.45Z"/><path class="cls-7" d="M768.23,462.31s-21.55,10.78-33.4,6.83-44.53-25.5-44.53-31.6,28,17.59,46,13.64,38.78-29.8,39.5-19S768.23,462.31,768.23,462.31Z"/><path class="cls-7" d="M-101,505.93s24.94-44.73,44.73-45.46,49.74,6,60.13-15.4c16.61-34.22,63.28-21.79,69.66-29.33,11.44-13.52-34.59-22.67-58.64-16.06-40.63,11.17-57.95,23.39-78.48,19.72s-41.8-19.8-41.8-19.8Z"/><path class="cls-8" d="M688.21,175s-23.51-45.7-36.38-45.7S638.08,155,626.1,162.13s-43-8-51,12.87,43,36.38,62.11,53.68,26.71,56.76,44.37,58.56C703.29,289.46,725.92,244.65,688.21,175Z"/><path class="cls-9" d="M270.8,492.64s-40.66-9.63-54.57-47.07-67.4-7.49-81.31-30,54.57-58.84,83.45-48.14S231.21,437,270.8,454.13,297.54,496.92,270.8,492.64Z"/><path class="cls-10" d="M767.85,472.67s-17.53,10.63-31.34,8-41.84-32.25-55.25-23.9c-16.5,10.27,9.56,29.21,9.56,41.43S675.31,520,677.75,538.55h90.1Z"/><path class="cls-8" d="M794.38,139.1S766,168.62,724.54,157.83s-59-86.3-101.64-86.3-52.81.56-71.55-6.25-32.93-21-52.23-10.79S456.53,122.06,406.56,117s-45.42-60.76-83.47-59-54.51-3.41-76.65-19.31S214,2.53,159.56,5.66C95.21,9.35,47.21,105.36-112,104.19l2.35-115H794.38Z"/><path class="cls-8" d="M759.17,436.74s-7.61-51.56-64.24-42.26-75.23,25.35-103.12,16.9-44.8-65.93-80.3-72.69S454,329.39,433.75,304s-27.05-60.86-67.63-52.4-87.06,79.45-136.93,71.84-65.08-49-114.95-18.59S66.06,397.86-12.55,386V347.14s54.94,21.13,68.47-22,11.83-85.37,49-94.66,86.22,20.28,124.25-22,98.9-73.54,144.12-44,26.63,68.46,67.2,92.13,32.12,45.64,71.84,43.95,86.22-52.4,136.94-30.43,5.07,98,113.26,82.84Z"/><path class="cls-8" d="M343.75,542.36s-74.1-.74-108.18-37.79S202.22,432,163,442.33s-36.3,45.94-67.42,58.53-37.79-.74-63,13.34-63,17-92.62-1.48-59.27-11.86-65.94-5.19v34.83Z"/><path class="cls-11" d="M755.9,65.8s-18.46-30.27-48-33.23-54.64-22.15-51.69-51.68S784-33.88,784-30.93,755.9,65.8,755.9,65.8Z"/><path class="cls-12" d="M-100.5,66.43l6.7,21.44s41.54-8.3,50.92-37.52,32.08-20.77,59-17.42c21,2.6,88.45-6.57,96.5-38.13H-89.78Z"/><path class="cls-13" d="M-18,492.55C-8.44,450.66-5.65,368.61,97.46,311.61c51.62-28.54,61.48-33.88,97.87-69s144.81-68.33,214.58-35.14c37.41,17.8,99.13,32.63,151.84,32.63s89.55,20.6,118.41,57,29.66,93.59,53.5,104.88S798.91,464.7,809,509.88v28.86L-18,536.23Z"/></g></g><g id="Camada_2" data-name="Camada 2"><g class="cls-3"><g class="cls-14"><path class="cls-15" d="M57,394.14a.45.45,0,0,1-.45.46.46.46,0,1,1,0-.91A.45.45,0,0,1,57,394.14Z"/><circle class="cls-15" cx="58.38" cy="393.09" r="0.1"/><path class="cls-15" d="M57.15,392a.1.1,0,1,1-.1-.1A.11.11,0,0,1,57.15,392Z"/><circle class="cls-15" cx="58.76" cy="398.79" r="0.1"/><path class="cls-15" d="M55.65,397.16a.09.09,0,0,1-.09.09.09.09,0,1,1,0-.18A.09.09,0,0,1,55.65,397.16Z"/><circle class="cls-15" cx="58.97" cy="396.01" r="0.1"/><path class="cls-15" d="M29.06,368.91a.72.72,0,1,1-.72-.72A.72.72,0,0,1,29.06,368.91Z"/><path class="cls-15" d="M20.88,370.25a.63.63,0,1,1-.62-.62A.62.62,0,0,1,20.88,370.25Z"/><path class="cls-15" d="M28.34,373.26a.36.36,0,1,1-.36-.36A.36.36,0,0,1,28.34,373.26Z"/><path class="cls-15" d="M66.8,345.76a.69.69,0,1,1-.69-.69A.69.69,0,0,1,66.8,345.76Z"/><path class="cls-15" d="M71.54,265.89a.63.63,0,1,1-.63-.63A.63.63,0,0,1,71.54,265.89Z"/><circle class="cls-15" cx="62.66" cy="265.04" r="0.85"/><path class="cls-15" d="M77.27,260.52a.92.92,0,1,1-.92-.92A.92.92,0,0,1,77.27,260.52Z"/><path class="cls-15" d="M35.74,228.75a.72.72,0,1,1-1.44,0,.72.72,0,1,1,1.44,0Z"/><circle class="cls-15" cx="44.75" cy="222.63" r="0.49"/><path class="cls-15" d="M27,218.67a.72.72,0,1,1-.72-.72A.72.72,0,0,1,27,218.67Z"/><circle class="cls-15" cx="49.89" cy="189.65" r="0.92"/><circle class="cls-15" cx="32.99" cy="185.59" r="0.79"/><circle class="cls-15" cx="44.19" cy="177.67" r="0.72"/><circle class="cls-15" cx="37.15" cy="197.22" r="0.49"/><path class="cls-15" d="M22.47,192.28a.46.46,0,1,1-.92,0,.46.46,0,1,1,.92,0Z"/><path class="cls-15" d="M35.94,148.23a.49.49,0,1,1-.49-.49A.49.49,0,0,1,35.94,148.23Z"/><circle class="cls-15" cx="59.55" cy="148.23" r="0.49"/><path class="cls-15" d="M157.82,46.06a1.22,1.22,0,1,1-1.21-1.21A1.22,1.22,0,0,1,157.82,46.06Z"/><circle class="cls-15" cx="131.53" cy="28.84" r="0.84"/><circle class="cls-15" cx="147.72" cy="26.69" r="1.31"/><circle class="cls-15" cx="87.82" cy="26.69" r="1.31"/><path class="cls-15" d="M97.74,1.61A2.06,2.06,0,1,1,95.68-.45,2.06,2.06,0,0,1,97.74,1.61Z"/><path class="cls-15" d="M39,64a1.51,1.51,0,1,1-1.5-1.51A1.5,1.5,0,0,1,39,64Z"/><path class="cls-15" d="M55.81,83.78a1.12,1.12,0,1,1-1.12-1.13A1.12,1.12,0,0,1,55.81,83.78Z"/><circle class="cls-15" cx="112.25" cy="78.82" r="1.4"/><circle class="cls-15" cx="723.37" cy="68.64" r="0.45"/><circle class="cls-15" cx="721.49" cy="69.69" r="0.1"/><path class="cls-15" d="M722.72,70.78a.1.1,0,1,1,.2,0,.1.1,0,1,1-.2,0Z"/><path class="cls-15" d="M721,64a.11.11,0,0,1,.11-.11.11.11,0,0,1,.1.11.1.1,0,0,1-.1.1A.1.1,0,0,1,721,64Z"/><path class="cls-15" d="M724.22,65.63a.09.09,0,0,1,.09-.09.09.09,0,1,1,0,.18A.09.09,0,0,1,724.22,65.63Z"/><path class="cls-15" d="M720.79,66.78a.11.11,0,0,1,.11-.11.1.1,0,0,1,.1.11.1.1,0,0,1-.1.1A.11.11,0,0,1,720.79,66.78Z"/><path class="cls-15" d="M713.07,117a.69.69,0,1,1,.69.69A.69.69,0,0,1,713.07,117Z"/><path class="cls-15" d="M708.33,196.9a.63.63,0,0,1,1.25,0,.63.63,0,0,1-1.25,0Z"/><circle class="cls-15" cx="717.21" cy="197.75" r="0.85"/><path class="cls-15" d="M702.6,202.27a.92.92,0,1,1,.92.92A.92.92,0,0,1,702.6,202.27Z"/><circle class="cls-15" cx="744.85" cy="234.04" r="0.72"/><path class="cls-15" d="M734.63,240.16a.49.49,0,1,1,.49.49A.49.49,0,0,1,734.63,240.16Z"/><circle class="cls-15" cx="729.98" cy="273.13" r="0.92"/><circle class="cls-15" cx="746.88" cy="277.19" r="0.79"/><path class="cls-15" d="M735,285.12a.72.72,0,1,1,.72.72A.72.72,0,0,1,735,285.12Z"/><path class="cls-15" d="M742.23,265.57a.49.49,0,1,1,.49.49A.49.49,0,0,1,742.23,265.57Z"/><path class="cls-15" d="M743.93,314.56a.49.49,0,1,1,.49.49A.49.49,0,0,1,743.93,314.56Z"/><path class="cls-15" d="M719.83,314.56a.49.49,0,1,1,.49.49A.49.49,0,0,1,719.83,314.56Z"/><path class="cls-15" d="M622.05,416.73a1.22,1.22,0,1,1,1.21,1.21A1.21,1.21,0,0,1,622.05,416.73Z"/><circle class="cls-15" cx="648.34" cy="433.95" r="0.84"/><path class="cls-15" d="M630.84,436.1a1.31,1.31,0,1,1,1.31,1.31A1.31,1.31,0,0,1,630.84,436.1Z"/><path class="cls-15" d="M690.74,436.1a1.31,1.31,0,1,1,1.31,1.31A1.31,1.31,0,0,1,690.74,436.1Z"/><path class="cls-15" d="M682.13,461.18a2.06,2.06,0,1,1,2.06,2.06A2.06,2.06,0,0,1,682.13,461.18Z"/><circle class="cls-15" cx="731.45" cy="465.39" r="0.84"/><path class="cls-15" d="M740.92,398.84a1.51,1.51,0,1,1,1.5,1.51A1.5,1.5,0,0,1,740.92,398.84Z"/><path class="cls-15" d="M724.06,379a1.12,1.12,0,1,1,1.12,1.12A1.12,1.12,0,0,1,724.06,379Z"/><circle class="cls-15" cx="667.62" cy="383.97" r="1.4"/><path class="cls-15" d="M697.1,495.25a1.31,1.31,0,1,1,1.31,1.31A1.31,1.31,0,0,1,697.1,495.25Z"/><circle class="cls-15" cx="527.56" cy="261.81" r="1.56"/><path class="cls-15" d="M520,264.15a1.23,1.23,0,1,1,1.23,1.22A1.23,1.23,0,0,1,520,264.15Z"/><path class="cls-15" d="M518.88,258.47a1.78,1.78,0,1,1,1.78,1.78A1.78,1.78,0,0,1,518.88,258.47Z"/><path class="cls-15" d="M542.92,259.36a.89.89,0,1,1,.89.89A.89.89,0,0,1,542.92,259.36Z"/><path class="cls-15" d="M529.9,247.51a.95.95,0,1,1,.94.94A.95.95,0,0,1,529.9,247.51Z"/><path class="cls-15" d="M496,261a.78.78,0,1,1,.78.78A.78.78,0,0,1,496,261Z"/><circle class="cls-15" cx="495.62" cy="251.68" r="1.11"/><path class="cls-15" d="M503.08,258a1.34,1.34,0,1,1,1.33,1.33A1.33,1.33,0,0,1,503.08,258Z"/><path class="cls-15" d="M482.26,223a1.62,1.62,0,1,1,1.62,1.62A1.62,1.62,0,0,1,482.26,223Z"/><circle class="cls-15" cx="480.84" cy="228.12" r="1.42"/><path class="cls-15" d="M476.09,223.83a.81.81,0,1,1,.8.81A.81.81,0,0,1,476.09,223.83Z"/><path class="cls-15" d="M264.85,145a1.61,1.61,0,1,1,1.61,1.61A1.61,1.61,0,0,1,264.85,145Z"/><path class="cls-15" d="M256.92,151.72a1.29,1.29,0,1,1,1.29,1.29A1.28,1.28,0,0,1,256.92,151.72Z"/><path class="cls-15" d="M255.1,141.81a1.56,1.56,0,1,1,1.55,1.56A1.55,1.55,0,0,1,255.1,141.81Z"/><path class="cls-15" d="M245.35,150.44a1.29,1.29,0,1,1,2.57,0,1.29,1.29,0,0,1-2.57,0Z"/><path class="cls-15" d="M279.63,132a1.72,1.72,0,1,1,1.72,1.71A1.71,1.71,0,0,1,279.63,132Z"/><circle class="cls-15" cx="225.75" cy="120.55" r="2.89"/><circle class="cls-15" cx="179.15" cy="279.21" r="1.07"/><path class="cls-15" d="M170.58,293a1.39,1.39,0,1,1,1.39,1.39A1.4,1.4,0,0,1,170.58,293Z"/><path class="cls-15" d="M168,281.56a1.29,1.29,0,0,1,2.57,0,1.29,1.29,0,1,1-2.57,0Z"/><path class="cls-15" d="M160.83,290.51a1.13,1.13,0,1,1,1.12,1.12A1.13,1.13,0,0,1,160.83,290.51Z"/><path class="cls-15" d="M178.32,465.3a.66.66,0,0,1,.66-.65.65.65,0,0,1,.65.65.66.66,0,0,1-.65.66A.67.67,0,0,1,178.32,465.3Z"/><circle class="cls-15" cx="176.14" cy="467.85" r="0.44"/><path class="cls-15" d="M173.09,465.3a.66.66,0,1,1,.66.66A.66.66,0,0,1,173.09,465.3Z"/><path class="cls-15" d="M166.26,469.66a1.38,1.38,0,1,1,1.38,1.38A1.38,1.38,0,0,1,166.26,469.66Z"/><path class="cls-15" d="M162.41,470.35a.69.69,0,1,1,.69.69A.69.69,0,0,1,162.41,470.35Z"/><path class="cls-15" d="M162.63,466a1.38,1.38,0,1,1,1.38,1.38A1.38,1.38,0,0,1,162.63,466Z"/><path class="cls-15" d="M155.43,470.35a.69.69,0,1,1,.69.69A.69.69,0,0,1,155.43,470.35Z"/><path class="cls-15" d="M189.08,466.54a.15.15,0,0,1,.14-.15.15.15,0,0,1,.15.15.15.15,0,0,1-.15.14A.14.14,0,0,1,189.08,466.54Z"/><path class="cls-15" d="M184.65,460.83a.61.61,0,0,1,.61-.61.61.61,0,0,1,.62.61.62.62,0,0,1-.62.62A.61.61,0,0,1,184.65,460.83Z"/><path class="cls-15" d="M60.49,346.35a.71.71,0,1,1,.71.7A.7.7,0,0,1,60.49,346.35Z"/><path class="cls-15" d="M60.49,351.64a.71.71,0,1,1,.71.7A.71.71,0,0,1,60.49,351.64Z"/><circle class="cls-15" cx="57.11" cy="354.98" r="0.99"/><path class="cls-15" d="M55.33,350.75a.89.89,0,1,1,.89.89A.89.89,0,0,1,55.33,350.75Z"/><path class="cls-15" d="M28,381.91a.66.66,0,1,1,.66.66A.66.66,0,0,1,28,381.91Z"/><circle class="cls-15" cx="19.93" cy="382.24" r="0.33"/><path class="cls-15" d="M49.34,381.91a.66.66,0,0,1,1.32,0,.66.66,0,0,1-1.32,0Z"/><path class="cls-15" d="M17.21,359.07a1.2,1.2,0,1,1,1.19,1.2A1.19,1.19,0,0,1,17.21,359.07Z"/><circle class="cls-15" cx="21.83" cy="313.1" r="1.07"/><path class="cls-15" d="M18.4,316.71a.6.6,0,1,1,.6.6A.6.6,0,0,1,18.4,316.71Z"/><path class="cls-15" d="M32.9,311.9a1.2,1.2,0,1,1,1.2,1.2A1.2,1.2,0,0,1,32.9,311.9Z"/><path class="cls-15" d="M27.86,303.52a.91.91,0,1,1,.91.91A.91.91,0,0,1,27.86,303.52Z"/><circle class="cls-15" cx="20.92" cy="307.81" r="0.91"/><path class="cls-15" d="M19.6,254.5a.58.58,0,1,1,.58.58A.58.58,0,0,1,19.6,254.5Z"/><path class="cls-15" d="M696.38,193.94a1,1,0,1,1,1,1A1,1,0,0,1,696.38,193.94Z"/><path class="cls-15" d="M694.59,200a1.38,1.38,0,1,1,1.37,1.37A1.37,1.37,0,0,1,694.59,200Z"/><circle class="cls-15" cx="704.68" cy="73.25" r="0.58"/><circle class="cls-15" cx="701.33" cy="75.8" r="0.89"/><path class="cls-15" d="M698.45,71.67a1,1,0,1,1,1,1A1,1,0,0,1,698.45,71.67Z"/><path class="cls-15" d="M692,75.8a.9.9,0,1,1,.89.89A.89.89,0,0,1,692,75.8Z"/><circle class="cls-15" cx="716.85" cy="78.61" r="1.3"/><circle class="cls-15" cx="689.48" cy="65.73" r="0.94"/><path class="cls-15" d="M280.91,491.12a.65.65,0,1,1,1.3,0,.65.65,0,0,1-1.3,0Z"/><path class="cls-15" d="M276.11,493.81a.58.58,0,1,1,.58.58A.58.58,0,0,1,276.11,493.81Z"/><path class="cls-15" d="M274.15,489.48a1,1,0,1,1,1,1A1,1,0,0,1,274.15,489.48Z"/><path class="cls-15" d="M264.77,493.08a1.31,1.31,0,1,1,1.31,1.31A1.31,1.31,0,0,1,264.77,493.08Z"/><path class="cls-15" d="M298.2,492.21a1.6,1.6,0,1,1,1.6,1.6A1.6,1.6,0,0,1,298.2,492.21Z"/><circle class="cls-15" cx="284.1" cy="482.03" r="1.02"/><circle class="cls-15" cx="271.02" cy="479.71" r="1.31"/><path class="cls-15" d="M263,483.92a.87.87,0,1,1,.87.88A.87.87,0,0,1,263,483.92Z"/><circle class="cls-15" cx="240" cy="493.73" r="0.65"/><path class="cls-15" d="M243.41,473.24a.8.8,0,1,1,.8.8A.8.8,0,0,1,243.41,473.24Z"/><path class="cls-15" d="M233.82,481.53a.51.51,0,1,1,.51.5A.51.51,0,0,1,233.82,481.53Z"/><path class="cls-15" d="M282.72,466a.69.69,0,1,1,.69.69A.69.69,0,0,1,282.72,466Z"/><path class="cls-15" d="M106.39,342.58a1.33,1.33,0,1,1,1.32,1.33A1.32,1.32,0,0,1,106.39,342.58Z"/><circle class="cls-15" cx="105.24" cy="348.2" r="1.15"/><path class="cls-15" d="M101.45,342.58a1.33,1.33,0,1,1,1.32,1.33A1.32,1.32,0,0,1,101.45,342.58Z"/><path class="cls-15" d="M95.46,350.84a1.5,1.5,0,1,1,1.49,1.5A1.49,1.49,0,0,1,95.46,350.84Z"/><path class="cls-15" d="M106.39,363.36a.66.66,0,1,1,1.32,0,.66.66,0,0,1-1.32,0Z"/><path class="cls-15" d="M81.42,338.57a2.69,2.69,0,1,1,2.69,2.69A2.69,2.69,0,0,1,81.42,338.57Z"/><path class="cls-15" d="M109,297.15a1.24,1.24,0,1,1,1.23,1.23A1.23,1.23,0,0,1,109,297.15Z"/><path class="cls-15" d="M140.8,394.73a1.77,1.77,0,1,1,1.77,1.76A1.77,1.77,0,0,1,140.8,394.73Z"/><circle class="cls-15" cx="137.54" cy="400.29" r="1.15"/><circle class="cls-15" cx="134.27" cy="393.85" r="0.88"/><circle class="cls-15" cx="126.33" cy="402.49" r="1.06"/><path class="cls-15" d="M125.27,414.14a1.06,1.06,0,1,1,1.06,1.06A1.06,1.06,0,0,1,125.27,414.14Z"/><path class="cls-15" d="M119.8,408.93a1.33,1.33,0,1,1,1.33,1.33A1.32,1.32,0,0,1,119.8,408.93Z"/><path class="cls-15" d="M510.86,342.22a1.7,1.7,0,1,1,1.69,1.7A1.69,1.69,0,0,1,510.86,342.22Z"/><circle class="cls-15" cx="510.64" cy="334.38" r="1.91"/><path class="cls-15" d="M525.86,337.13a.85.85,0,1,1,.85.85A.85.85,0,0,1,525.86,337.13Z"/><path class="cls-15" d="M521.22,327.18a2.32,2.32,0,1,1,2.32,2.32A2.32,2.32,0,0,1,521.22,327.18Z"/><path class="cls-15" d="M508.74,320a1.91,1.91,0,1,1,1.9,1.91A1.9,1.9,0,0,1,508.74,320Z"/><path class="cls-15" d="M495.19,326a1.16,1.16,0,1,1,1.16,1.17A1.16,1.16,0,0,1,495.19,326Z"/><path class="cls-15" d="M556.23,348.37a2.34,2.34,0,1,1,2.34,2.33A2.33,2.33,0,0,1,556.23,348.37Z"/><path class="cls-15" d="M546.05,357.28a1.49,1.49,0,1,1,3,0,1.49,1.49,0,0,1-3,0Z"/><path class="cls-15" d="M444.37,63.1a1,1,0,1,1,1,1A1,1,0,0,1,444.37,63.1Z"/><path class="cls-15" d="M439.18,69.4A1.78,1.78,0,1,1,441,71.19,1.78,1.78,0,0,1,439.18,69.4Z"/><circle class="cls-15" cx="433.54" cy="59.61" r="0.89"/><path class="cls-15" d="M426.12,65.84a1.78,1.78,0,1,1,1.78,1.78A1.78,1.78,0,0,1,426.12,65.84Z"/><path class="cls-15" d="M409.8,74.75a1.78,1.78,0,1,1,1.78,1.78A1.77,1.77,0,0,1,409.8,74.75Z"/><circle class="cls-15" cx="406.68" cy="55.61" r="3.12"/><path class="cls-15" d="M391.62,62.62a.48.48,0,1,1,.48.48A.48.48,0,0,1,391.62,62.62Z"/><path class="cls-15" d="M445.33,91a1.82,1.82,0,1,1,1.82,1.82A1.83,1.83,0,0,1,445.33,91Z"/><circle class="cls-15" cx="432.5" cy="82.61" r="1.93"/></g><g class="cls-16"><path class="cls-15" d="M212.25,15a.45.45,0,0,1-.45-.45.45.45,0,1,1,.9,0A.45.45,0,0,1,212.25,15Z"/><circle class="cls-15" cx="213.3" cy="16.47" r="0.1"/><path class="cls-15" d="M214.38,15.24a.1.1,0,0,1,0-.2.1.1,0,1,1,0,.2Z"/><path class="cls-15" d="M207.6,17a.11.11,0,0,1-.1-.11.11.11,0,0,1,.1-.1.11.11,0,0,1,.11.1A.11.11,0,0,1,207.6,17Z"/><path class="cls-15" d="M209.23,13.74a.09.09,0,0,1-.09-.09.09.09,0,1,1,.18,0A.09.09,0,0,1,209.23,13.74Z"/><circle class="cls-15" cx="210.38" cy="17.06" r="0.1"/><path class="cls-15" d="M260.64,24.89a.69.69,0,1,1,0-1.38.69.69,0,0,1,0,1.38Z"/><path class="cls-15" d="M340.51,29.63a.63.63,0,1,1,.62-.63A.63.63,0,0,1,340.51,29.63Z"/><circle class="cls-15" cx="341.36" cy="20.75" r="0.85"/><path class="cls-15" d="M345.88,35.36a.92.92,0,1,1,.91-.92A.92.92,0,0,1,345.88,35.36Z"/><circle class="cls-15" cx="383.76" cy="2.84" r="0.49"/><circle class="cls-15" cx="416.74" cy="7.98" r="0.92" transform="translate(342.29 418.09) rotate(-80.81)"/><circle class="cls-15" cx="428.72" cy="2.28" r="0.72"/><circle class="cls-15" cx="458.16" cy="17.64" r="0.49"/><path class="cls-15" d="M560.33,115.91a1.22,1.22,0,0,1,0-2.43,1.22,1.22,0,1,1,0,2.43Z"/><circle class="cls-15" cx="577.55" cy="89.62" r="0.84"/><circle class="cls-15" cx="579.7" cy="105.81" r="1.31"/><circle class="cls-15" cx="579.7" cy="45.91" r="1.31"/><path class="cls-15" d="M604.79,55.83a2.06,2.06,0,1,1,2.05-2.06A2.06,2.06,0,0,1,604.79,55.83Z"/><path class="cls-15" d="M609,7.35a.84.84,0,0,1,0-1.68.84.84,0,1,1,0,1.68Z"/><path class="cls-15" d="M522.62,13.9a1.12,1.12,0,1,1,1.12-1.12A1.13,1.13,0,0,1,522.62,13.9Z"/><circle class="cls-15" cx="527.58" cy="70.34" r="1.4"/><path class="cls-15" d="M638.85,40.86a1.31,1.31,0,1,1,1.31-1.31A1.31,1.31,0,0,1,638.85,40.86Z"/><circle class="cls-15" cx="460.94" cy="319.55" r="0.45"/><circle class="cls-15" cx="459.89" cy="317.67" r="0.1"/><path class="cls-15" d="M458.81,318.91a.09.09,0,0,1,.09.09.09.09,0,0,1-.09.1.09.09,0,0,1-.1-.1A.09.09,0,0,1,458.81,318.91Z"/><path class="cls-15" d="M465.59,317.18a.11.11,0,0,1,.1.11.11.11,0,0,1-.1.1.11.11,0,0,1-.11-.1A.11.11,0,0,1,465.59,317.18Z"/><path class="cls-15" d="M464,320.4a.1.1,0,0,1,.09.1.09.09,0,0,1-.18,0A.1.1,0,0,1,464,320.4Z"/><circle class="cls-15" cx="462.81" cy="317.08" r="0.1"/><path class="cls-15" d="M435.7,347a.72.72,0,1,1-.72.72A.72.72,0,0,1,435.7,347Z"/><path class="cls-15" d="M437,355.17a.63.63,0,1,1-.62.63A.63.63,0,0,1,437,355.17Z"/><circle class="cls-15" cx="440.06" cy="348.07" r="0.36"/><path class="cls-15" d="M412.55,309.25a.69.69,0,0,1,0,1.38.69.69,0,0,1,0-1.38Z"/><path class="cls-15" d="M332.68,304.52a.61.61,0,0,1,.62.62.62.62,0,0,1-.62.62.62.62,0,0,1-.62-.62A.62.62,0,0,1,332.68,304.52Z"/><circle class="cls-15" cx="331.83" cy="313.39" r="0.85"/><path class="cls-15" d="M327.31,298.79a.92.92,0,1,1-.91.91A.92.92,0,0,1,327.31,298.79Z"/><circle class="cls-15" cx="295.55" cy="341.03" r="0.72"/><path class="cls-15" d="M289.42,330.81a.49.49,0,1,1-.49.49A.49.49,0,0,1,289.42,330.81Z"/><path class="cls-15" d="M285.46,349.08a.72.72,0,1,1-.72.72A.72.72,0,0,1,285.46,349.08Z"/><circle class="cls-15" cx="256.45" cy="326.16" r="0.92"/><circle class="cls-15" cx="252.39" cy="343.06" r="0.79"/><path class="cls-15" d="M244.46,331.14a.72.72,0,1,1-.72.72A.73.73,0,0,1,244.46,331.14Z"/><circle class="cls-15" cx="264.01" cy="338.9" r="0.49"/><path class="cls-15" d="M259.07,353.58a.46.46,0,0,1,.46.46.45.45,0,0,1-.46.46.46.46,0,0,1-.46-.46A.47.47,0,0,1,259.07,353.58Z"/><circle class="cls-15" cx="503.01" cy="463.26" r="0.84"/><path class="cls-15" d="M500.86,445.75a1.32,1.32,0,1,1-1.31,1.31A1.31,1.31,0,0,1,500.86,445.75Z"/><path class="cls-15" d="M475.78,497a2.06,2.06,0,1,1-2.06,2.06A2.06,2.06,0,0,1,475.78,497Z"/><circle class="cls-15" cx="552.99" cy="482.53" r="1.4"/><circle class="cls-15" cx="344.58" cy="485.65" r="1.56"/><path class="cls-15" d="M342.25,478.08a1.23,1.23,0,1,1-1.23,1.23A1.23,1.23,0,0,1,342.25,478.08Z"/><path class="cls-15" d="M347.92,477a1.78,1.78,0,1,1-1.78,1.78A1.78,1.78,0,0,1,347.92,477Z"/><path class="cls-15" d="M358.89,488a.95.95,0,1,1-.95.94A.94.94,0,0,1,358.89,488Z"/><path class="cls-15" d="M345.36,454a.78.78,0,1,1-.78.78A.78.78,0,0,1,345.36,454Z"/><circle class="cls-15" cx="354.72" cy="453.71" r="1.11"/><path class="cls-15" d="M348.37,461.17a1.34,1.34,0,0,1,0,2.67,1.34,1.34,0,1,1,0-2.67Z"/><path class="cls-15" d="M383.37,440.35a1.62,1.62,0,1,1-1.61,1.62A1.62,1.62,0,0,1,383.37,440.35Z"/><circle class="cls-15" cx="378.28" cy="438.94" r="1.42"/><path class="cls-15" d="M382.56,434.18a.81.81,0,1,1-.8.8A.8.8,0,0,1,382.56,434.18Z"/><path class="cls-15" d="M461.42,222.94a1.61,1.61,0,1,1-1.61,1.61A1.61,1.61,0,0,1,461.42,222.94Z"/><path class="cls-15" d="M454.67,215a1.29,1.29,0,1,1,0,2.57,1.29,1.29,0,0,1,0-2.57Z"/><path class="cls-15" d="M464.58,213.19a1.56,1.56,0,1,1-1.55,1.56A1.55,1.55,0,0,1,464.58,213.19Z"/><path class="cls-15" d="M456,203.44a1.29,1.29,0,1,1-1.29,1.29A1.28,1.28,0,0,1,456,203.44Z"/><path class="cls-15" d="M474.38,237.72a1.72,1.72,0,1,1-1.71,1.72A1.72,1.72,0,0,1,474.38,237.72Z"/><circle class="cls-15" cx="485.85" cy="183.84" r="2.89" transform="translate(130.08 562.35) rotate(-67.5)"/><circle class="cls-15" cx="327.19" cy="137.24" r="1.07"/><path class="cls-15" d="M313.37,128.67a1.39,1.39,0,1,1-1.39,1.39A1.39,1.39,0,0,1,313.37,128.67Z"/><path class="cls-15" d="M324.83,126.1a1.29,1.29,0,1,1-1.28,1.28A1.28,1.28,0,0,1,324.83,126.1Z"/><path class="cls-15" d="M315.89,118.92a1.13,1.13,0,1,1-1.13,1.12A1.12,1.12,0,0,1,315.89,118.92Z"/><path class="cls-15" d="M141.09,136.41a.67.67,0,0,1,.66.66.66.66,0,0,1-.66.65.65.65,0,0,1-.65-.65A.66.66,0,0,1,141.09,136.41Z"/><circle class="cls-15" cx="138.55" cy="134.23" r="0.44"/><path class="cls-15" d="M141.09,131.18a.67.67,0,0,1,.66.66.66.66,0,0,1-.66.65.65.65,0,0,1-.65-.65A.66.66,0,0,1,141.09,131.18Z"/><path class="cls-15" d="M136.73,124.35a1.38,1.38,0,1,1-1.38,1.38A1.38,1.38,0,0,1,136.73,124.35Z"/><path class="cls-15" d="M136,120.5a.69.69,0,1,1-.69.69A.69.69,0,0,1,136,120.5Z"/><path class="cls-15" d="M140.37,120.72A1.38,1.38,0,1,1,139,122.1,1.38,1.38,0,0,1,140.37,120.72Z"/><path class="cls-15" d="M136,113.52a.7.7,0,1,1-.69.69A.69.69,0,0,1,136,113.52Z"/><path class="cls-15" d="M139.86,147.17a.14.14,0,0,1,.14.14.15.15,0,0,1-.14.15.15.15,0,0,1-.15-.15A.15.15,0,0,1,139.86,147.17Z"/><path class="cls-15" d="M145.56,142.74a.61.61,0,0,1,.62.61.62.62,0,0,1-1.24,0A.61.61,0,0,1,145.56,142.74Z"/><path class="cls-15" d="M260.05,18.58a.71.71,0,1,1-.71.71A.71.71,0,0,1,260.05,18.58Z"/><path class="cls-15" d="M254.76,18.58a.71.71,0,1,1-.7.71A.7.7,0,0,1,254.76,18.58Z"/><circle class="cls-15" cx="251.41" cy="15.2" r="0.99"/><path class="cls-15" d="M255.65,13.42a.89.89,0,1,1-.89.89A.88.88,0,0,1,255.65,13.42Z"/><path class="cls-15" d="M224.48,7.43a.66.66,0,1,1-.66.66A.66.66,0,0,1,224.48,7.43Z"/><path class="cls-15" d="M335.64,292.56a1,1,0,1,1-1,1A1,1,0,0,1,335.64,292.56Z"/><path class="cls-15" d="M329.6,290.77a1.38,1.38,0,1,1-1.37,1.37A1.38,1.38,0,0,1,329.6,290.77Z"/><circle class="cls-15" cx="456.34" cy="300.87" r="0.58"/><circle class="cls-15" cx="453.79" cy="297.51" r="0.89"/><path class="cls-15" d="M457.91,294.63a1,1,0,1,1-1,1A1,1,0,0,1,457.91,294.63Z"/><path class="cls-15" d="M453.79,288.21a.9.9,0,1,1-.9.89A.89.89,0,0,1,453.79,288.21Z"/><circle class="cls-15" cx="450.97" cy="313.03" r="1.3" transform="translate(69.55 707.85) rotate(-80.75)"/><circle class="cls-15" cx="463.85" cy="285.66" r="0.94"/><path class="cls-15" d="M115.28,239a.65.65,0,0,1,.65.65.66.66,0,0,1-.65.66.67.67,0,0,1-.66-.66A.66.66,0,0,1,115.28,239Z"/><path class="cls-15" d="M112.59,234.2a.58.58,0,1,1-.58.58A.58.58,0,0,1,112.59,234.2Z"/><path class="cls-15" d="M116.91,232.24a1,1,0,1,1-1,1A1,1,0,0,1,116.91,232.24Z"/><circle class="cls-15" cx="113.31" cy="224.17" r="1.31"/><path class="cls-15" d="M114.19,256.29a1.6,1.6,0,1,1-1.6,1.6A1.6,1.6,0,0,1,114.19,256.29Z"/><circle class="cls-15" cx="124.36" cy="242.19" r="1.02"/><circle class="cls-15" cx="126.69" cy="229.11" r="1.31"/><path class="cls-15" d="M122.47,221.12a.88.88,0,1,1-.87.87A.87.87,0,0,1,122.47,221.12Z"/><circle class="cls-15" cx="112.66" cy="198.09" r="0.65"/><path class="cls-15" d="M133.15,201.5a.8.8,0,1,1-.8.8A.8.8,0,0,1,133.15,201.5Z"/><path class="cls-15" d="M124.87,191.91a.51.51,0,1,1-.51.51A.51.51,0,0,1,124.87,191.91Z"/><path class="cls-15" d="M140.4,240.81a.69.69,0,1,1-.69.69A.69.69,0,0,1,140.4,240.81Z"/><path class="cls-15" d="M263.81,64.48a1.33,1.33,0,1,1-1.32,1.32A1.32,1.32,0,0,1,263.81,64.48Z"/><circle class="cls-15" cx="258.2" cy="63.33" r="1.15"/><path class="cls-15" d="M263.81,59.54a1.33,1.33,0,1,1-1.32,1.32A1.32,1.32,0,0,1,263.81,59.54Z"/><path class="cls-15" d="M255.55,53.55A1.5,1.5,0,1,1,254.06,55,1.5,1.5,0,0,1,255.55,53.55Z"/><path class="cls-15" d="M243,64.48a.66.66,0,1,1-.66.66A.66.66,0,0,1,243,64.48Z"/><path class="cls-15" d="M267.82,39.51a2.69,2.69,0,1,1-2.69,2.69A2.7,2.7,0,0,1,267.82,39.51Z"/><path class="cls-15" d="M309.25,67.13A1.24,1.24,0,1,1,308,68.36,1.23,1.23,0,0,1,309.25,67.13Z"/><path class="cls-15" d="M211.67,98.89a1.77,1.77,0,1,1-1.77,1.77A1.76,1.76,0,0,1,211.67,98.89Z"/><circle class="cls-15" cx="206.11" cy="95.63" r="1.15"/><circle class="cls-15" cx="212.55" cy="92.36" r="0.88"/><circle class="cls-15" cx="203.9" cy="84.42" r="1.06"/><path class="cls-15" d="M192.26,83.36a1.06,1.06,0,1,1-1.06,1.06A1.06,1.06,0,0,1,192.26,83.36Z"/><path class="cls-15" d="M197.46,77.89a1.33,1.33,0,1,1-1.32,1.33A1.32,1.32,0,0,1,197.46,77.89Z"/><circle class="cls-15" cx="264.17" cy="470.64" r="1.7"/><circle class="cls-15" cx="272.02" cy="468.73" r="1.91"/><path class="cls-15" d="M269.26,484a.85.85,0,1,1-.85.85A.85.85,0,0,1,269.26,484Z"/><path class="cls-15" d="M279.22,479.31a2.32,2.32,0,1,1-2.33,2.32A2.32,2.32,0,0,1,279.22,479.31Z"/><path class="cls-15" d="M286.44,466.83a1.91,1.91,0,1,1-1.91,1.9A1.9,1.9,0,0,1,286.44,466.83Z"/><path class="cls-15" d="M280.38,453.28a1.16,1.16,0,1,1-1.16,1.16A1.16,1.16,0,0,1,280.38,453.28Z"/><path class="cls-15" d="M543.3,402.46a1,1,0,1,1-1,1A1,1,0,0,1,543.3,402.46Z"/><path class="cls-15" d="M537,397.27a1.78,1.78,0,1,1-1.78,1.78A1.78,1.78,0,0,1,537,397.27Z"/><path class="cls-15" d="M546.78,390.74a.89.89,0,1,1-.89.89A.89.89,0,0,1,546.78,390.74Z"/><path class="cls-15" d="M540.55,384.21a1.78,1.78,0,1,1-1.78,1.78A1.78,1.78,0,0,1,540.55,384.21Z"/><path class="cls-15" d="M531.65,367.89a1.78,1.78,0,1,1-1.78,1.78A1.78,1.78,0,0,1,531.65,367.89Z"/><circle class="cls-15" cx="550.79" cy="364.77" r="3.12"/><path class="cls-15" d="M543.78,349.71a.48.48,0,0,1,0,1,.48.48,0,0,1,0-1Z"/><path class="cls-15" d="M515.36,403.42a1.82,1.82,0,1,1-1.82,1.82A1.82,1.82,0,0,1,515.36,403.42Z"/><circle class="cls-15" cx="523.78" cy="390.59" r="1.93"/></g><g class="cls-17"><path class="cls-15" d="M706.49,77.64a.46.46,0,0,1,.46-.45.46.46,0,0,1,0,.91A.46.46,0,0,1,706.49,77.64Z"/><path class="cls-15" d="M705,78.69a.1.1,0,0,1,.1-.1.11.11,0,0,1,.11.1.11.11,0,0,1-.11.11A.1.1,0,0,1,705,78.69Z"/><path class="cls-15" d="M706.3,79.78a.1.1,0,0,1,.09-.1.1.1,0,1,1,0,.2A.1.1,0,0,1,706.3,79.78Z"/><path class="cls-15" d="M704.58,73a.1.1,0,1,1,.2,0,.1.1,0,0,1-.2,0Z"/><path class="cls-15" d="M707.8,74.63a.09.09,0,1,1,.09.09A.09.09,0,0,1,707.8,74.63Z"/><circle class="cls-15" cx="704.47" cy="75.78" r="0.1"/><path class="cls-15" d="M734.38,102.88a.72.72,0,1,1,.72.72A.72.72,0,0,1,734.38,102.88Z"/><path class="cls-15" d="M742.57,101.54a.62.62,0,0,1,.62-.62.62.62,0,0,1,0,1.24A.62.62,0,0,1,742.57,101.54Z"/><path class="cls-15" d="M735.1,98.53a.36.36,0,1,1,.36.36A.36.36,0,0,1,735.1,98.53Z"/><path class="cls-15" d="M696.64,126a.69.69,0,1,1,.69.69A.69.69,0,0,1,696.64,126Z"/><path class="cls-15" d="M691.91,205.9a.62.62,0,1,1,1.24,0,.62.62,0,1,1-1.24,0Z"/><path class="cls-15" d="M699.93,206.75a.85.85,0,1,1,.85.85A.85.85,0,0,1,699.93,206.75Z"/><path class="cls-15" d="M686.18,211.27a.92.92,0,1,1,.91.92A.92.92,0,0,1,686.18,211.27Z"/><path class="cls-15" d="M727.7,243a.72.72,0,1,1,.72.72A.72.72,0,0,1,727.7,243Z"/><circle class="cls-15" cx="718.69" cy="249.16" r="0.49"/><path class="cls-15" d="M736.48,253.12a.72.72,0,1,1,.72.72A.72.72,0,0,1,736.48,253.12Z"/><circle class="cls-15" cx="713.55" cy="282.13" r="0.92"/><circle class="cls-15" cx="730.45" cy="286.19" r="0.79"/><circle class="cls-15" cx="719.25" cy="294.12" r="0.72"/><circle class="cls-15" cx="726.29" cy="274.57" r="0.49"/><path class="cls-15" d="M741,279.51a.46.46,0,1,1,.45.46A.46.46,0,0,1,741,279.51Z"/><path class="cls-15" d="M727.5,323.56a.5.5,0,1,1,.49.49A.49.49,0,0,1,727.5,323.56Z"/><circle class="cls-15" cx="703.89" cy="323.56" r="0.49"/><path class="cls-15" d="M605.62,425.73a1.22,1.22,0,1,1,1.22,1.21A1.21,1.21,0,0,1,605.62,425.73Z"/><circle class="cls-15" cx="631.92" cy="442.95" r="0.84"/><circle class="cls-15" cx="615.73" cy="445.1" r="1.31"/><circle class="cls-15" cx="675.62" cy="445.1" r="1.31"/><path class="cls-15" d="M665.7,470.18a2.06,2.06,0,1,1,2.06,2.06A2.06,2.06,0,0,1,665.7,470.18Z"/><path class="cls-15" d="M714.18,474.39a.85.85,0,1,1,.84.84A.85.85,0,0,1,714.18,474.39Z"/><path class="cls-15" d="M724.49,407.84a1.51,1.51,0,1,1,1.51,1.51A1.51,1.51,0,0,1,724.49,407.84Z"/><path class="cls-15" d="M707.63,388a1.13,1.13,0,1,1,1.12,1.12A1.12,1.12,0,0,1,707.63,388Z"/><circle class="cls-15" cx="651.2" cy="392.97" r="1.4"/><circle class="cls-15" cx="40.07" cy="403.14" r="0.45"/><circle class="cls-15" cx="41.96" cy="402.09" r="0.1"/><path class="cls-15" d="M40.72,401a.1.1,0,0,1-.1.1.1.1,0,0,1,0-.2A.1.1,0,0,1,40.72,401Z"/><circle class="cls-15" cx="42.34" cy="407.79" r="0.1"/><path class="cls-15" d="M39.22,406.16a.09.09,0,1,1-.09-.09A.09.09,0,0,1,39.22,406.16Z"/><circle class="cls-15" cx="42.55" cy="405.01" r="0.1"/><path class="cls-15" d="M12.64,377.91a.72.72,0,0,1-1.44,0,.72.72,0,0,1,1.44,0Z"/><path class="cls-15" d="M4.45,379.25a.62.62,0,0,1-1.24,0,.62.62,0,0,1,1.24,0Z"/><circle class="cls-15" cx="11.56" cy="382.26" r="0.36"/><path class="cls-15" d="M50.37,354.76a.69.69,0,1,1-.68-.69A.69.69,0,0,1,50.37,354.76Z"/><path class="cls-15" d="M55.11,274.89a.63.63,0,1,1-.62-.63A.62.62,0,0,1,55.11,274.89Z"/><circle class="cls-15" cx="46.23" cy="274.04" r="0.85"/><path class="cls-15" d="M60.84,269.52a.92.92,0,1,1-.92-.92A.92.92,0,0,1,60.84,269.52Z"/><circle class="cls-15" cx="18.6" cy="237.75" r="0.72"/><path class="cls-15" d="M28.81,231.63a.49.49,0,1,1-.49-.49A.49.49,0,0,1,28.81,231.63Z"/><path class="cls-15" d="M10.54,227.67a.72.72,0,1,1-.72-.72A.72.72,0,0,1,10.54,227.67Z"/><circle class="cls-15" cx="33.46" cy="198.65" r="0.92"/><circle class="cls-15" cx="16.57" cy="194.59" r="0.79"/><path class="cls-15" d="M28.49,186.67a.72.72,0,1,1-.72-.72A.72.72,0,0,1,28.49,186.67Z"/><circle class="cls-15" cx="20.73" cy="206.22" r="0.49"/><path class="cls-15" d="M6,201.28a.46.46,0,0,1-.46.46.47.47,0,0,1-.46-.46.46.46,0,0,1,.46-.46A.45.45,0,0,1,6,201.28Z"/><circle class="cls-15" cx="19.02" cy="157.23" r="0.49"/><path class="cls-15" d="M43.61,157.23a.48.48,0,0,1-.49.49.49.49,0,1,1,0-1A.48.48,0,0,1,43.61,157.23Z"/><path class="cls-15" d="M141.4,55.06a1.22,1.22,0,1,1-1.22-1.21A1.22,1.22,0,0,1,141.4,55.06Z"/><circle class="cls-15" cx="115.1" cy="37.84" r="0.84"/><path class="cls-15" d="M132.6,35.69a1.31,1.31,0,1,1-1.31-1.31A1.31,1.31,0,0,1,132.6,35.69Z"/><path class="cls-15" d="M72.7,35.69a1.31,1.31,0,1,1-1.31-1.31A1.31,1.31,0,0,1,72.7,35.69Z"/><path class="cls-15" d="M81.31,10.61a2.06,2.06,0,1,1-2-2.06A2.05,2.05,0,0,1,81.31,10.61Z"/><circle class="cls-15" cx="31.99" cy="6.4" r="0.84"/><path class="cls-15" d="M22.53,73A1.51,1.51,0,1,1,21,71.44,1.51,1.51,0,0,1,22.53,73Z"/><path class="cls-15" d="M39.39,92.78a1.13,1.13,0,1,1-1.13-1.12A1.13,1.13,0,0,1,39.39,92.78Z"/><circle class="cls-15" cx="95.82" cy="87.82" r="1.4"/><circle class="cls-15" cx="235.88" cy="209.98" r="1.56"/><path class="cls-15" d="M243.45,207.64a1.23,1.23,0,1,1-1.22-1.22A1.23,1.23,0,0,1,243.45,207.64Z"/><path class="cls-15" d="M244.56,213.32a1.78,1.78,0,1,1-1.78-1.78A1.78,1.78,0,0,1,244.56,213.32Z"/><path class="cls-15" d="M220.53,212.43a.9.9,0,1,1-.89-.89A.89.89,0,0,1,220.53,212.43Z"/><path class="cls-15" d="M233.55,224.28a.95.95,0,1,1-1-.95A1,1,0,0,1,233.55,224.28Z"/><path class="cls-15" d="M267.49,210.76a.78.78,0,1,1-.78-.78A.78.78,0,0,1,267.49,210.76Z"/><circle class="cls-15" cx="267.82" cy="220.11" r="1.11"/><path class="cls-15" d="M260.37,213.76a1.34,1.34,0,1,1-1.34-1.33A1.34,1.34,0,0,1,260.37,213.76Z"/><path class="cls-15" d="M281.18,248.76a1.62,1.62,0,1,1-1.61-1.61A1.61,1.61,0,0,1,281.18,248.76Z"/><circle class="cls-15" cx="282.6" cy="243.67" r="1.42"/><path class="cls-15" d="M287.36,248a.81.81,0,1,1-.81-.81A.8.8,0,0,1,287.36,248Z"/><path class="cls-15" d="M498.59,326.82a1.61,1.61,0,1,1-1.6-1.61A1.6,1.6,0,0,1,498.59,326.82Z"/><path class="cls-15" d="M506.52,320.07a1.29,1.29,0,0,1-2.57,0,1.29,1.29,0,1,1,2.57,0Z"/><path class="cls-15" d="M508.34,330a1.55,1.55,0,1,1-1.55-1.56A1.55,1.55,0,0,1,508.34,330Z"/><path class="cls-15" d="M518.09,321.35a1.29,1.29,0,1,1-1.28-1.28A1.28,1.28,0,0,1,518.09,321.35Z"/><path class="cls-15" d="M483.81,339.78a1.72,1.72,0,1,1-1.71-1.72A1.72,1.72,0,0,1,483.81,339.78Z"/><circle class="cls-15" cx="537.7" cy="351.24" r="2.89"/><circle class="cls-15" cx="584.3" cy="192.58" r="1.07"/><path class="cls-15" d="M592.87,178.76a1.4,1.4,0,1,1-1.4-1.39A1.4,1.4,0,0,1,592.87,178.76Z"/><path class="cls-15" d="M595.44,190.23a1.29,1.29,0,1,1-1.29-1.29A1.28,1.28,0,0,1,595.44,190.23Z"/><path class="cls-15" d="M602.62,181.28a1.13,1.13,0,1,1-2.25,0,1.13,1.13,0,0,1,2.25,0Z"/><path class="cls-15" d="M585.12,6.49a.66.66,0,0,1-1.31,0,.66.66,0,1,1,1.31,0Z"/><circle class="cls-15" cx="587.3" cy="3.94" r="0.44"/><path class="cls-15" d="M590.35,6.49a.65.65,0,0,1-.65.65.66.66,0,0,1-.66-.65.67.67,0,0,1,.66-.66A.66.66,0,0,1,590.35,6.49Z"/><path class="cls-15" d="M597.18,2.13A1.38,1.38,0,1,1,595.8.75,1.38,1.38,0,0,1,597.18,2.13Z"/><path class="cls-15" d="M601,1.44a.69.69,0,1,1-.69-.69A.69.69,0,0,1,601,1.44Z"/><path class="cls-15" d="M600.82,5.76a1.39,1.39,0,1,1-1.39-1.38A1.38,1.38,0,0,1,600.82,5.76Z"/><path class="cls-15" d="M608,1.44a.69.69,0,1,1-.69-.69A.69.69,0,0,1,608,1.44Z"/><path class="cls-15" d="M574.37,5.25a.15.15,0,1,1-.3,0,.15.15,0,0,1,.3,0Z"/><path class="cls-15" d="M578.8,11a.62.62,0,1,1-.62-.62A.61.61,0,0,1,578.8,11Z"/><path class="cls-15" d="M703,125.44a.7.7,0,1,1-.7-.7A.7.7,0,0,1,703,125.44Z"/><path class="cls-15" d="M703,120.15a.7.7,0,1,1-.7-.7A.7.7,0,0,1,703,120.15Z"/><circle class="cls-15" cx="706.34" cy="116.81" r="0.99"/><path class="cls-15" d="M708.11,121a.89.89,0,1,1-.88-.89A.88.88,0,0,1,708.11,121Z"/><path class="cls-15" d="M735.42,89.88a.67.67,0,0,1-1.33,0,.67.67,0,0,1,1.33,0Z"/><path class="cls-15" d="M743.84,89.55a.33.33,0,1,1-.66,0,.33.33,0,1,1,.66,0Z"/><path class="cls-15" d="M714.1,89.88a.66.66,0,1,1-.66-.66A.66.66,0,0,1,714.1,89.88Z"/><path class="cls-15" d="M746.24,112.72a1.2,1.2,0,1,1-1.2-1.2A1.2,1.2,0,0,1,746.24,112.72Z"/><path class="cls-15" d="M742.68,158.69a1.07,1.07,0,1,1-1.07-1.07A1.07,1.07,0,0,1,742.68,158.69Z"/><path class="cls-15" d="M745,155.08a.6.6,0,1,1-.6-.6A.59.59,0,0,1,745,155.08Z"/><path class="cls-15" d="M730.54,159.89a1.2,1.2,0,1,1-1.2-1.2A1.19,1.19,0,0,1,730.54,159.89Z"/><path class="cls-15" d="M735.58,168.27a.91.91,0,1,1-.91-.91A.91.91,0,0,1,735.58,168.27Z"/><path class="cls-15" d="M743.43,164a.91.91,0,1,1-.91-.91A.9.9,0,0,1,743.43,164Z"/><path class="cls-15" d="M743.84,217.29a.58.58,0,1,1-.58-.58A.58.58,0,0,1,743.84,217.29Z"/><path class="cls-15" d="M67.07,277.84a1,1,0,1,1-1-1A1,1,0,0,1,67.07,277.84Z"/><path class="cls-15" d="M68.86,271.81a1.38,1.38,0,1,1-1.38-1.38A1.37,1.37,0,0,1,68.86,271.81Z"/><circle class="cls-15" cx="58.76" cy="398.54" r="0.58"/><circle class="cls-15" cx="62.11" cy="395.99" r="0.89"/><path class="cls-15" d="M65,400.12a1,1,0,1,1-1-1A1,1,0,0,1,65,400.12Z"/><path class="cls-15" d="M71.42,396a.9.9,0,1,1-.9-.89A.9.9,0,0,1,71.42,396Z"/><circle class="cls-15" cx="46.59" cy="393.18" r="1.3"/><circle class="cls-15" cx="73.97" cy="406.06" r="0.94"/><path class="cls-15" d="M480.72,5.8a.69.69,0,1,1-.69-.69A.69.69,0,0,1,480.72,5.8Z"/><path class="cls-15" d="M657.05,129.2a1.32,1.32,0,1,1-1.32-1.32A1.32,1.32,0,0,1,657.05,129.2Z"/><circle class="cls-15" cx="658.2" cy="123.59" r="1.15"/><path class="cls-15" d="M662,129.2a1.32,1.32,0,1,1-1.32-1.32A1.32,1.32,0,0,1,662,129.2Z"/><path class="cls-15" d="M668,121a1.5,1.5,0,1,1-1.5-1.5A1.5,1.5,0,0,1,668,121Z"/><path class="cls-15" d="M657.05,108.43a.66.66,0,0,1-1.32,0,.66.66,0,1,1,1.32,0Z"/><path class="cls-15" d="M682,133.22a2.69,2.69,0,1,1-2.69-2.69A2.68,2.68,0,0,1,682,133.22Z"/><path class="cls-15" d="M654.41,174.64a1.24,1.24,0,1,1-1.24-1.23A1.24,1.24,0,0,1,654.41,174.64Z"/><path class="cls-15" d="M622.64,77.06a1.77,1.77,0,1,1-1.76-1.76A1.76,1.76,0,0,1,622.64,77.06Z"/><circle class="cls-15" cx="625.91" cy="71.5" r="1.15"/><circle class="cls-15" cx="629.17" cy="77.94" r="0.88"/><circle class="cls-15" cx="637.11" cy="69.3" r="1.06"/><path class="cls-15" d="M638.17,57.65a1.06,1.06,0,1,1-1.06-1.06A1.06,1.06,0,0,1,638.17,57.65Z"/><path class="cls-15" d="M643.64,62.85a1.33,1.33,0,1,1-1.32-1.32A1.32,1.32,0,0,1,643.64,62.85Z"/><circle class="cls-15" cx="250.89" cy="129.57" r="1.7"/><circle class="cls-15" cx="252.8" cy="137.41" r="1.91"/><path class="cls-15" d="M237.58,134.66a.85.85,0,1,1-.85-.85A.85.85,0,0,1,237.58,134.66Z"/><path class="cls-15" d="M242.23,144.61a2.33,2.33,0,1,1-2.33-2.32A2.33,2.33,0,0,1,242.23,144.61Z"/><path class="cls-15" d="M254.71,151.83a1.91,1.91,0,1,1-1.91-1.91A1.92,1.92,0,0,1,254.71,151.83Z"/><path class="cls-15" d="M268.26,145.77a1.17,1.17,0,1,1-1.17-1.16A1.17,1.17,0,0,1,268.26,145.77Z"/><path class="cls-15" d="M207.21,123.42a2.33,2.33,0,1,1-2.33-2.34A2.33,2.33,0,0,1,207.21,123.42Z"/><circle class="cls-15" cx="215.9" cy="114.51" r="1.48"/><path class="cls-15" d="M319.07,408.69a1,1,0,1,1-1-1A1,1,0,0,1,319.07,408.69Z"/><path class="cls-15" d="M324.27,402.38a1.78,1.78,0,1,1-1.78-1.78A1.78,1.78,0,0,1,324.27,402.38Z"/><path class="cls-15" d="M330.8,412.18a.89.89,0,1,1-.89-.89A.89.89,0,0,1,330.8,412.18Z"/><path class="cls-15" d="M337.33,405.94a1.79,1.79,0,1,1-1.79-1.78A1.79,1.79,0,0,1,337.33,405.94Z"/><path class="cls-15" d="M353.65,397a1.78,1.78,0,1,1-1.78-1.78A1.78,1.78,0,0,1,353.65,397Z"/><circle class="cls-15" cx="356.76" cy="416.18" r="3.12"/><path class="cls-15" d="M371.82,409.17a.47.47,0,0,1-.48.48.48.48,0,0,1-.48-.48.49.49,0,0,1,.48-.48A.48.48,0,0,1,371.82,409.17Z"/><path class="cls-15" d="M318.11,380.76a1.82,1.82,0,1,1-1.82-1.82A1.81,1.81,0,0,1,318.11,380.76Z"/><circle class="cls-15" cx="330.94" cy="389.18" r="1.93"/></g></g></g></g></svg>