<svg xmlns="http://www.w3.org/2000/svg" xmlns:xlink="http://www.w3.org/1999/xlink" viewBox="0 0 186.38 186.38"><defs><style>.cls-1{fill:#f2defc;}.cls-2{fill:url(#未命名漸層_15);}.cls-3{fill:#323232;}.cls-4{fill:#ce996c;}.cls-5{fill:#e19b72;}.cls-6{fill:#e5c0a3;}.cls-7{fill:#1e1002;}.cls-8{fill:#231811;}.cls-9{fill:#373c44;}.cls-10{fill:#ce8282;}.cls-11{fill:#281400;}</style><radialGradient id="未命名漸層_15" cx="90.87" cy="112.02" r="46.99" gradientUnits="userSpaceOnUse"><stop offset="0" stop-color="#000002"/><stop offset="1" stop-color="#281400"/></radialGradient></defs><title>頭像</title><g id="OBJECTS"><rect class="cls-1" width="186.38" height="186.38"/><path class="cls-2" d="M62,79.13c-.9,4.77.55,9.63.94,14.46,1.19,14.46-7,27.78-12.38,41.23a20.42,20.42,0,0,0-1.95,8.36c.13,2.88,1.63,5.88,4.29,7A8.42,8.42,0,0,1,53.92,143,25,25,0,0,1,59,137.57c-1.67,3.2-2.79,6.92-1.89,10.42,1.43,5.57,7.31,8.63,12.71,10.61,12.12,4.42,25.76,6.75,37.81,2.14,7.55-2.88,13.88-8.27,19.5-14.09,6.24-6.47,6.24-15.93,6-24.47-.46-14.8-4.63-29-8.63-43.19-1.39-4.89-4.82-7.56-8.36-11.35-5.16-5.53-13.32-7.44-20.85-6.7s-14.61,3.81-21.5,7C69,70.06,62.91,74,62,79.13Z"/><path class="cls-3" d="M126.35,141.45c-7.62-5.92-17.61-10-30.71-10a52.46,52.46,0,0,0-31.54,9.94c-21.85,15.82-27.8,45-27.8,45H150.08S146.74,157.28,126.35,141.45Z"/><circle class="cls-4" cx="60.71" cy="83.04" r="8.93" transform="translate(-34.1 122.97) rotate(-76.67)"/><circle class="cls-4" cx="127.05" cy="83.04" r="8.93" transform="translate(16.95 187.52) rotate(-76.67)"/><path class="cls-5" d="M105.41,115.48,103.9,95.63,88.41,97.76l-2.53,29A27.93,27.93,0,0,0,105.41,115.48Z"/><path class="cls-6" d="M104.33,49.17C96.36,51.3,92.82,69,75,72.9a30.71,30.71,0,0,1-11.77.64c0,.33,0,.66,0,1a49.21,49.21,0,0,0,.45,10.91c1,9.37,5.52,17.53,14,22.07s20.16,6.16,29.24,2.43a27.13,27.13,0,0,0,15.25-15c2.48-6.21,3-13.77,3-20.88C108.56,74.05,102.32,52.69,104.33,49.17Z"/><path class="cls-7" d="M104.63,75.29l.6-.82a2.76,2.76,0,0,1,2.42-1.11c2.15.15,6,.85,8.33,3.77C111.5,75.22,107.74,74.54,104.63,75.29Z"/><path class="cls-7" d="M83.59,75.29l-.6-.82a2.78,2.78,0,0,0-2.43-1.11c-2.14.15-6,.85-8.33,3.77C76.72,75.22,80.48,74.54,83.59,75.29Z"/><path class="cls-6" d="M85.88,126.77l-1.12,12.77s.46,6.38,10.79,7.59,11.54-9.57,11.54-9.57l-1.68-22.08A27.93,27.93,0,0,1,85.88,126.77Z"/><path class="cls-8" d="M81.5,80.92c0,1.75-.71,3.17-1.59,3.17s-1.59-1.42-1.59-3.17.71-3.17,1.59-3.17S81.5,79.17,81.5,80.92Z"/><path class="cls-8" d="M110.85,81.46c0,1.75-.71,3.17-1.59,3.17s-1.58-1.42-1.58-3.17.71-3.17,1.58-3.17S110.85,79.71,110.85,81.46Z"/><path class="cls-9" d="M94.36,83c-.63.4-1.26.78-1.84,1.17a6.72,6.72,0,0,0-.81.64,1.17,1.17,0,0,0-.42.65c0,.17.08.36.35.59a1.92,1.92,0,0,0,.78.48,2.53,2.53,0,0,0,1.94-.35,2.22,2.22,0,0,1-2.07,1,2.38,2.38,0,0,1-1.15-.52,1.48,1.48,0,0,1-.66-1.25,1.86,1.86,0,0,1,.72-1.16,4.55,4.55,0,0,1,1-.61A7.21,7.21,0,0,1,94.36,83Z"/><path class="cls-9" d="M90,90.48a13.07,13.07,0,0,0,2.16,1.18,6.56,6.56,0,0,0,2.27.55,4.63,4.63,0,0,0,2.24-.43,10.48,10.48,0,0,0,2.07-1.3,9.42,9.42,0,0,1-.76,1,4.81,4.81,0,0,1-1,.83,4.35,4.35,0,0,1-1.22.55,5.12,5.12,0,0,1-1.35.14A5.92,5.92,0,0,1,90,90.48Z"/><circle class="cls-10" cx="78.32" cy="89.33" r="3.34"/><circle class="cls-10" cx="109.26" cy="90.83" r="3.34"/><path class="cls-11" d="M98.7,39.22s-2.44-8.67,0-9.09,1.48,7.13,1.48,7.13,1.6-4.8,3.94-3.53S101.77,39.19,98.7,39.22Z"/><path class="cls-11" d="M124.7,65.22h0c-3-28.59-27.16-28.16-27.16-28.16s-28.8-2.18-33.62,28.15h-.11s-9.4,73.72,15.45,77.44c0,0-5.3-7.71-5.71-27.18-.27-12.85-.18-31.25-.09-42.27.5-.09,1-.19,1.53-.31C92.82,69,96.36,51.3,104.33,49.17,102.8,51.85,106.07,64.89,115,71c.1,10.61.22,30.75-.07,44.53-.42,19.47-5.71,27.18-5.71,27.18C134.11,138.94,124.7,65.22,124.7,65.22Z"/><path class="cls-6" d="M95.93,163.89c17.62,0,23.35-10.45,23.35-23.34a23.64,23.64,0,0,0-.31-3.79,50.52,50.52,0,0,0-23.33-5.29A54,54,0,0,0,73,136.22a23.8,23.8,0,0,0-.4,4.33C72.58,153.44,78.32,163.89,95.93,163.89Z"/></g></svg>